G04 #@! TF.FileFunction,Legend,Top*
%FSLAX46Y46*%
G04 Gerber Fmt 4.6, Leading zero omitted, Abs format (unit mm)*
G04 Created by KiCad (PCBNEW 4.0.6) date Fri Aug 18 15:24:34 2017*
%MOMM*%
%LPD*%
G01*
G04 APERTURE LIST*
%ADD10C,0.100000*%
%ADD11C,0.250000*%
%ADD12C,0.152400*%
%ADD13C,0.120000*%
%ADD14C,0.010000*%
%ADD15C,0.150000*%
G04 APERTURE END LIST*
D10*
D11*
X220726096Y-29980000D02*
X220630858Y-29932381D01*
X220488001Y-29932381D01*
X220345143Y-29980000D01*
X220249905Y-30075238D01*
X220202286Y-30170476D01*
X220154667Y-30360952D01*
X220154667Y-30503810D01*
X220202286Y-30694286D01*
X220249905Y-30789524D01*
X220345143Y-30884762D01*
X220488001Y-30932381D01*
X220583239Y-30932381D01*
X220726096Y-30884762D01*
X220773715Y-30837143D01*
X220773715Y-30503810D01*
X220583239Y-30503810D01*
X221202286Y-30932381D02*
X221202286Y-29932381D01*
X221773715Y-30932381D01*
X221773715Y-29932381D01*
X222249905Y-30932381D02*
X222249905Y-29932381D01*
X222488000Y-29932381D01*
X222630858Y-29980000D01*
X222726096Y-30075238D01*
X222773715Y-30170476D01*
X222821334Y-30360952D01*
X222821334Y-30503810D01*
X222773715Y-30694286D01*
X222726096Y-30789524D01*
X222630858Y-30884762D01*
X222488000Y-30932381D01*
X222249905Y-30932381D01*
D12*
X183896000Y-49911000D02*
X183896000Y-50673000D01*
X183896000Y-50673000D02*
X199898000Y-50673000D01*
X199898000Y-50673000D02*
X199898000Y-49911000D01*
D13*
X220218000Y-27058000D02*
X207398000Y-27058000D01*
X207398000Y-27058000D02*
X207398000Y-29838000D01*
X207398000Y-29838000D02*
X220218000Y-29838000D01*
X220218000Y-29838000D02*
X220218000Y-27058000D01*
X221488000Y-27058000D02*
X222878000Y-27058000D01*
X222878000Y-27058000D02*
X222878000Y-28448000D01*
X169326000Y-37220000D02*
X170526000Y-37220000D01*
X170526000Y-38980000D02*
X169326000Y-38980000D01*
X169326000Y-33918000D02*
X170526000Y-33918000D01*
X170526000Y-35678000D02*
X169326000Y-35678000D01*
X205114000Y-41494000D02*
X205114000Y-40294000D01*
X206874000Y-40294000D02*
X206874000Y-41494000D01*
X205324000Y-35424000D02*
X204124000Y-35424000D01*
X204124000Y-33664000D02*
X205324000Y-33664000D01*
X209414000Y-40294000D02*
X209414000Y-41494000D01*
X207654000Y-41494000D02*
X207654000Y-40294000D01*
D14*
G36*
X179923429Y-34617830D02*
X180225266Y-34655496D01*
X180465565Y-34730508D01*
X180676461Y-34852877D01*
X180888820Y-35031420D01*
X181010838Y-35135244D01*
X181117875Y-35179749D01*
X181261603Y-35177085D01*
X181409989Y-35153958D01*
X181602895Y-35129110D01*
X181740828Y-35126813D01*
X181780650Y-35137983D01*
X181795004Y-35212738D01*
X181807091Y-35391050D01*
X181815943Y-35649481D01*
X181820591Y-35964595D01*
X181821054Y-36115525D01*
X181819028Y-36492773D01*
X181810764Y-36774420D01*
X181792404Y-36991840D01*
X181760090Y-37176411D01*
X181709968Y-37359506D01*
X181643983Y-37555982D01*
X181349276Y-38216432D01*
X180957868Y-38794738D01*
X180471371Y-39289155D01*
X179891395Y-39697937D01*
X179465640Y-39916629D01*
X179199758Y-40036857D01*
X178943812Y-40153680D01*
X178746412Y-40244893D01*
X178720750Y-40256924D01*
X178212967Y-40494042D01*
X177798272Y-40681067D01*
X177455742Y-40823851D01*
X177164451Y-40928248D01*
X176903476Y-41000111D01*
X176651891Y-41045292D01*
X176388772Y-41069645D01*
X176093195Y-41079023D01*
X175780090Y-41079486D01*
X175445798Y-41076412D01*
X175155621Y-41071339D01*
X174933800Y-41064875D01*
X174804572Y-41057627D01*
X174783750Y-41054499D01*
X174696785Y-41030430D01*
X174519137Y-40983320D01*
X174283129Y-40921708D01*
X174180500Y-40895142D01*
X173897792Y-40819840D01*
X173629276Y-40744406D01*
X173423325Y-40682524D01*
X173386750Y-40670597D01*
X173174398Y-40608507D01*
X172912553Y-40543968D01*
X172767625Y-40512966D01*
X172536747Y-40452228D01*
X172417225Y-40385464D01*
X172402500Y-40352308D01*
X172445920Y-40272407D01*
X172488424Y-40220708D01*
X173098837Y-40220708D01*
X173401543Y-40298815D01*
X173636320Y-40349213D01*
X173922574Y-40396832D01*
X174117000Y-40421986D01*
X174381852Y-40461328D01*
X174637487Y-40516184D01*
X174783750Y-40559508D01*
X175265391Y-40689075D01*
X175779261Y-40748449D01*
X176278471Y-40734933D01*
X176647226Y-40666669D01*
X176899541Y-40593818D01*
X177147603Y-40518516D01*
X177260250Y-40482509D01*
X177500918Y-40407419D01*
X177750676Y-40335586D01*
X177774984Y-40329029D01*
X178006523Y-40243796D01*
X178230200Y-40126800D01*
X178254831Y-40110685D01*
X178411607Y-40021671D01*
X178647789Y-39907938D01*
X178923441Y-39788205D01*
X179059229Y-39733637D01*
X179683512Y-39435491D01*
X180216186Y-39066707D01*
X180650126Y-38634225D01*
X180978211Y-38144985D01*
X181173410Y-37673971D01*
X181248040Y-37448022D01*
X181317703Y-37266126D01*
X181367612Y-37166808D01*
X181368512Y-37165674D01*
X181398313Y-37072586D01*
X181428251Y-36883645D01*
X181454096Y-36629925D01*
X181466760Y-36443855D01*
X181502287Y-35799111D01*
X180778268Y-36526409D01*
X180431883Y-36864617D01*
X180129836Y-37134035D01*
X179835829Y-37363990D01*
X179513564Y-37583809D01*
X179315040Y-37708603D01*
X179041094Y-37874859D01*
X178804806Y-38013891D01*
X178627584Y-38113426D01*
X178530838Y-38161192D01*
X178521290Y-38163621D01*
X178446043Y-38194354D01*
X178289638Y-38276663D01*
X178079273Y-38395884D01*
X177958750Y-38466906D01*
X177664859Y-38632092D01*
X177344537Y-38796228D01*
X177057914Y-38928795D01*
X177006250Y-38950328D01*
X176743925Y-39058122D01*
X176488002Y-39165606D01*
X176298882Y-39247324D01*
X176091017Y-39330140D01*
X175897291Y-39392525D01*
X175854382Y-39403016D01*
X175515207Y-39483366D01*
X175097375Y-39593907D01*
X174642121Y-39722948D01*
X174190684Y-39858800D01*
X173784301Y-39989770D01*
X173782543Y-39990362D01*
X173098837Y-40220708D01*
X172488424Y-40220708D01*
X172562491Y-40130621D01*
X172731680Y-39950808D01*
X172839432Y-39844624D01*
X173276365Y-39425128D01*
X173298410Y-38968425D01*
X173697927Y-38968425D01*
X173729774Y-39283330D01*
X173730908Y-39287591D01*
X173780243Y-39447882D01*
X173839134Y-39513774D01*
X173949192Y-39513753D01*
X174037769Y-39497667D01*
X174209944Y-39457773D01*
X174457579Y-39392085D01*
X174734971Y-39312877D01*
X174815500Y-39288814D01*
X175088402Y-39208737D01*
X175340451Y-39138947D01*
X175528234Y-39091342D01*
X175566871Y-39082896D01*
X175778492Y-39040104D01*
X175655908Y-38903427D01*
X175473237Y-38608621D01*
X175361829Y-38213987D01*
X175325172Y-37747204D01*
X175769561Y-37747204D01*
X175791673Y-37947279D01*
X175847435Y-38199816D01*
X175923883Y-38460787D01*
X176008051Y-38686166D01*
X176086973Y-38831924D01*
X176090151Y-38835854D01*
X176133886Y-38873308D01*
X176196427Y-38884143D01*
X176296060Y-38862204D01*
X176451072Y-38801338D01*
X176679749Y-38695391D01*
X177000379Y-38538209D01*
X177054640Y-38511270D01*
X177303284Y-38390948D01*
X177512575Y-38295647D01*
X177654618Y-38237745D01*
X177697491Y-38226027D01*
X177810566Y-38193581D01*
X177858791Y-38167753D01*
X177899740Y-38114619D01*
X177868011Y-38030289D01*
X177754306Y-37888329D01*
X177606102Y-37642841D01*
X177499723Y-37308832D01*
X177441931Y-36919845D01*
X177439491Y-36509421D01*
X177442516Y-36476245D01*
X177869119Y-36476245D01*
X177889547Y-36721017D01*
X177905088Y-36866208D01*
X177944035Y-37172735D01*
X177987148Y-37381730D01*
X178042579Y-37522598D01*
X178114120Y-37620153D01*
X178266841Y-37727758D01*
X178425874Y-37714595D01*
X178530250Y-37653414D01*
X178638528Y-37599159D01*
X178738526Y-37563138D01*
X178970471Y-37460585D01*
X179267235Y-37281362D01*
X179606645Y-37041333D01*
X179966530Y-36756357D01*
X180324719Y-36442294D01*
X180388296Y-36382961D01*
X181025444Y-35782250D01*
X180870694Y-35541592D01*
X180739875Y-35378502D01*
X180599905Y-35261758D01*
X180559518Y-35241461D01*
X180405783Y-35178597D01*
X180202851Y-35090330D01*
X180121029Y-35053493D01*
X179720697Y-34938708D01*
X179302657Y-34946495D01*
X178881002Y-35076472D01*
X178856843Y-35087700D01*
X178543429Y-35264518D01*
X178311946Y-35472174D01*
X178117685Y-35751014D01*
X178113223Y-35758719D01*
X177988011Y-35980348D01*
X177910694Y-36146651D01*
X177873616Y-36298370D01*
X177869119Y-36476245D01*
X177442516Y-36476245D01*
X177450952Y-36383752D01*
X177466428Y-36173911D01*
X177458317Y-36039215D01*
X177436760Y-36004500D01*
X177246377Y-36036774D01*
X176993413Y-36121652D01*
X176720904Y-36241213D01*
X176471891Y-36377538D01*
X176362267Y-36451874D01*
X176165340Y-36615087D01*
X176037876Y-36773808D01*
X175941325Y-36981736D01*
X175901892Y-37093183D01*
X175830161Y-37346971D01*
X175782196Y-37596160D01*
X175769561Y-37747204D01*
X175325172Y-37747204D01*
X175323509Y-37726030D01*
X175323500Y-37717714D01*
X175321420Y-37465991D01*
X175310324Y-37315622D01*
X175282922Y-37240972D01*
X175231925Y-37216407D01*
X175180625Y-37215214D01*
X175053598Y-37244562D01*
X174856358Y-37317588D01*
X174630990Y-37418662D01*
X174625000Y-37421589D01*
X174349923Y-37576059D01*
X174154113Y-37740981D01*
X174014008Y-37920373D01*
X173849579Y-38240900D01*
X173741040Y-38605599D01*
X173697927Y-38968425D01*
X173298410Y-38968425D01*
X173302983Y-38873689D01*
X173352421Y-38427246D01*
X173463499Y-38060997D01*
X173652676Y-37736442D01*
X173919323Y-37432071D01*
X174290566Y-37127818D01*
X174692403Y-36917870D01*
X175098450Y-36814989D01*
X175211618Y-36807043D01*
X175412168Y-36794985D01*
X175535770Y-36754057D01*
X175632468Y-36656943D01*
X175717320Y-36530985D01*
X175979449Y-36225362D01*
X176329762Y-35962868D01*
X176731625Y-35763198D01*
X177148403Y-35646046D01*
X177405507Y-35623468D01*
X177576366Y-35615759D01*
X177699215Y-35577357D01*
X177816083Y-35485291D01*
X177969002Y-35316586D01*
X177970825Y-35314469D01*
X178171865Y-35106934D01*
X178401763Y-34906492D01*
X178537337Y-34806500D01*
X178676177Y-34718572D01*
X178796087Y-34661287D01*
X178929688Y-34628093D01*
X179109599Y-34612436D01*
X179368438Y-34607764D01*
X179527916Y-34607500D01*
X179923429Y-34617830D01*
X179923429Y-34617830D01*
G37*
X179923429Y-34617830D02*
X180225266Y-34655496D01*
X180465565Y-34730508D01*
X180676461Y-34852877D01*
X180888820Y-35031420D01*
X181010838Y-35135244D01*
X181117875Y-35179749D01*
X181261603Y-35177085D01*
X181409989Y-35153958D01*
X181602895Y-35129110D01*
X181740828Y-35126813D01*
X181780650Y-35137983D01*
X181795004Y-35212738D01*
X181807091Y-35391050D01*
X181815943Y-35649481D01*
X181820591Y-35964595D01*
X181821054Y-36115525D01*
X181819028Y-36492773D01*
X181810764Y-36774420D01*
X181792404Y-36991840D01*
X181760090Y-37176411D01*
X181709968Y-37359506D01*
X181643983Y-37555982D01*
X181349276Y-38216432D01*
X180957868Y-38794738D01*
X180471371Y-39289155D01*
X179891395Y-39697937D01*
X179465640Y-39916629D01*
X179199758Y-40036857D01*
X178943812Y-40153680D01*
X178746412Y-40244893D01*
X178720750Y-40256924D01*
X178212967Y-40494042D01*
X177798272Y-40681067D01*
X177455742Y-40823851D01*
X177164451Y-40928248D01*
X176903476Y-41000111D01*
X176651891Y-41045292D01*
X176388772Y-41069645D01*
X176093195Y-41079023D01*
X175780090Y-41079486D01*
X175445798Y-41076412D01*
X175155621Y-41071339D01*
X174933800Y-41064875D01*
X174804572Y-41057627D01*
X174783750Y-41054499D01*
X174696785Y-41030430D01*
X174519137Y-40983320D01*
X174283129Y-40921708D01*
X174180500Y-40895142D01*
X173897792Y-40819840D01*
X173629276Y-40744406D01*
X173423325Y-40682524D01*
X173386750Y-40670597D01*
X173174398Y-40608507D01*
X172912553Y-40543968D01*
X172767625Y-40512966D01*
X172536747Y-40452228D01*
X172417225Y-40385464D01*
X172402500Y-40352308D01*
X172445920Y-40272407D01*
X172488424Y-40220708D01*
X173098837Y-40220708D01*
X173401543Y-40298815D01*
X173636320Y-40349213D01*
X173922574Y-40396832D01*
X174117000Y-40421986D01*
X174381852Y-40461328D01*
X174637487Y-40516184D01*
X174783750Y-40559508D01*
X175265391Y-40689075D01*
X175779261Y-40748449D01*
X176278471Y-40734933D01*
X176647226Y-40666669D01*
X176899541Y-40593818D01*
X177147603Y-40518516D01*
X177260250Y-40482509D01*
X177500918Y-40407419D01*
X177750676Y-40335586D01*
X177774984Y-40329029D01*
X178006523Y-40243796D01*
X178230200Y-40126800D01*
X178254831Y-40110685D01*
X178411607Y-40021671D01*
X178647789Y-39907938D01*
X178923441Y-39788205D01*
X179059229Y-39733637D01*
X179683512Y-39435491D01*
X180216186Y-39066707D01*
X180650126Y-38634225D01*
X180978211Y-38144985D01*
X181173410Y-37673971D01*
X181248040Y-37448022D01*
X181317703Y-37266126D01*
X181367612Y-37166808D01*
X181368512Y-37165674D01*
X181398313Y-37072586D01*
X181428251Y-36883645D01*
X181454096Y-36629925D01*
X181466760Y-36443855D01*
X181502287Y-35799111D01*
X180778268Y-36526409D01*
X180431883Y-36864617D01*
X180129836Y-37134035D01*
X179835829Y-37363990D01*
X179513564Y-37583809D01*
X179315040Y-37708603D01*
X179041094Y-37874859D01*
X178804806Y-38013891D01*
X178627584Y-38113426D01*
X178530838Y-38161192D01*
X178521290Y-38163621D01*
X178446043Y-38194354D01*
X178289638Y-38276663D01*
X178079273Y-38395884D01*
X177958750Y-38466906D01*
X177664859Y-38632092D01*
X177344537Y-38796228D01*
X177057914Y-38928795D01*
X177006250Y-38950328D01*
X176743925Y-39058122D01*
X176488002Y-39165606D01*
X176298882Y-39247324D01*
X176091017Y-39330140D01*
X175897291Y-39392525D01*
X175854382Y-39403016D01*
X175515207Y-39483366D01*
X175097375Y-39593907D01*
X174642121Y-39722948D01*
X174190684Y-39858800D01*
X173784301Y-39989770D01*
X173782543Y-39990362D01*
X173098837Y-40220708D01*
X172488424Y-40220708D01*
X172562491Y-40130621D01*
X172731680Y-39950808D01*
X172839432Y-39844624D01*
X173276365Y-39425128D01*
X173298410Y-38968425D01*
X173697927Y-38968425D01*
X173729774Y-39283330D01*
X173730908Y-39287591D01*
X173780243Y-39447882D01*
X173839134Y-39513774D01*
X173949192Y-39513753D01*
X174037769Y-39497667D01*
X174209944Y-39457773D01*
X174457579Y-39392085D01*
X174734971Y-39312877D01*
X174815500Y-39288814D01*
X175088402Y-39208737D01*
X175340451Y-39138947D01*
X175528234Y-39091342D01*
X175566871Y-39082896D01*
X175778492Y-39040104D01*
X175655908Y-38903427D01*
X175473237Y-38608621D01*
X175361829Y-38213987D01*
X175325172Y-37747204D01*
X175769561Y-37747204D01*
X175791673Y-37947279D01*
X175847435Y-38199816D01*
X175923883Y-38460787D01*
X176008051Y-38686166D01*
X176086973Y-38831924D01*
X176090151Y-38835854D01*
X176133886Y-38873308D01*
X176196427Y-38884143D01*
X176296060Y-38862204D01*
X176451072Y-38801338D01*
X176679749Y-38695391D01*
X177000379Y-38538209D01*
X177054640Y-38511270D01*
X177303284Y-38390948D01*
X177512575Y-38295647D01*
X177654618Y-38237745D01*
X177697491Y-38226027D01*
X177810566Y-38193581D01*
X177858791Y-38167753D01*
X177899740Y-38114619D01*
X177868011Y-38030289D01*
X177754306Y-37888329D01*
X177606102Y-37642841D01*
X177499723Y-37308832D01*
X177441931Y-36919845D01*
X177439491Y-36509421D01*
X177442516Y-36476245D01*
X177869119Y-36476245D01*
X177889547Y-36721017D01*
X177905088Y-36866208D01*
X177944035Y-37172735D01*
X177987148Y-37381730D01*
X178042579Y-37522598D01*
X178114120Y-37620153D01*
X178266841Y-37727758D01*
X178425874Y-37714595D01*
X178530250Y-37653414D01*
X178638528Y-37599159D01*
X178738526Y-37563138D01*
X178970471Y-37460585D01*
X179267235Y-37281362D01*
X179606645Y-37041333D01*
X179966530Y-36756357D01*
X180324719Y-36442294D01*
X180388296Y-36382961D01*
X181025444Y-35782250D01*
X180870694Y-35541592D01*
X180739875Y-35378502D01*
X180599905Y-35261758D01*
X180559518Y-35241461D01*
X180405783Y-35178597D01*
X180202851Y-35090330D01*
X180121029Y-35053493D01*
X179720697Y-34938708D01*
X179302657Y-34946495D01*
X178881002Y-35076472D01*
X178856843Y-35087700D01*
X178543429Y-35264518D01*
X178311946Y-35472174D01*
X178117685Y-35751014D01*
X178113223Y-35758719D01*
X177988011Y-35980348D01*
X177910694Y-36146651D01*
X177873616Y-36298370D01*
X177869119Y-36476245D01*
X177442516Y-36476245D01*
X177450952Y-36383752D01*
X177466428Y-36173911D01*
X177458317Y-36039215D01*
X177436760Y-36004500D01*
X177246377Y-36036774D01*
X176993413Y-36121652D01*
X176720904Y-36241213D01*
X176471891Y-36377538D01*
X176362267Y-36451874D01*
X176165340Y-36615087D01*
X176037876Y-36773808D01*
X175941325Y-36981736D01*
X175901892Y-37093183D01*
X175830161Y-37346971D01*
X175782196Y-37596160D01*
X175769561Y-37747204D01*
X175325172Y-37747204D01*
X175323509Y-37726030D01*
X175323500Y-37717714D01*
X175321420Y-37465991D01*
X175310324Y-37315622D01*
X175282922Y-37240972D01*
X175231925Y-37216407D01*
X175180625Y-37215214D01*
X175053598Y-37244562D01*
X174856358Y-37317588D01*
X174630990Y-37418662D01*
X174625000Y-37421589D01*
X174349923Y-37576059D01*
X174154113Y-37740981D01*
X174014008Y-37920373D01*
X173849579Y-38240900D01*
X173741040Y-38605599D01*
X173697927Y-38968425D01*
X173298410Y-38968425D01*
X173302983Y-38873689D01*
X173352421Y-38427246D01*
X173463499Y-38060997D01*
X173652676Y-37736442D01*
X173919323Y-37432071D01*
X174290566Y-37127818D01*
X174692403Y-36917870D01*
X175098450Y-36814989D01*
X175211618Y-36807043D01*
X175412168Y-36794985D01*
X175535770Y-36754057D01*
X175632468Y-36656943D01*
X175717320Y-36530985D01*
X175979449Y-36225362D01*
X176329762Y-35962868D01*
X176731625Y-35763198D01*
X177148403Y-35646046D01*
X177405507Y-35623468D01*
X177576366Y-35615759D01*
X177699215Y-35577357D01*
X177816083Y-35485291D01*
X177969002Y-35316586D01*
X177970825Y-35314469D01*
X178171865Y-35106934D01*
X178401763Y-34906492D01*
X178537337Y-34806500D01*
X178676177Y-34718572D01*
X178796087Y-34661287D01*
X178929688Y-34628093D01*
X179109599Y-34612436D01*
X179368438Y-34607764D01*
X179527916Y-34607500D01*
X179923429Y-34617830D01*
G36*
X177340503Y-39225447D02*
X177476181Y-39335212D01*
X177544590Y-39466677D01*
X177546000Y-39485942D01*
X177493386Y-39558305D01*
X177364274Y-39639078D01*
X177339625Y-39650387D01*
X177216752Y-39709784D01*
X177204539Y-39737741D01*
X177272377Y-39745820D01*
X177400207Y-39724133D01*
X177450750Y-39687500D01*
X177533037Y-39625735D01*
X177598764Y-39669886D01*
X177609500Y-39728124D01*
X177555222Y-39867706D01*
X177419149Y-39960785D01*
X177241425Y-39996361D01*
X177062192Y-39963433D01*
X176968041Y-39903905D01*
X176887617Y-39839190D01*
X176875762Y-39871364D01*
X176890135Y-39932072D01*
X176866225Y-40087710D01*
X176765179Y-40220093D01*
X176660113Y-40357548D01*
X176615605Y-40481066D01*
X176615834Y-40491118D01*
X176579059Y-40594637D01*
X176530000Y-40621365D01*
X176445427Y-40573571D01*
X176330641Y-40406676D01*
X176228375Y-40209817D01*
X176128931Y-39997437D01*
X176072516Y-39869004D01*
X176347694Y-39869004D01*
X176405234Y-40009174D01*
X176502891Y-40119803D01*
X176594746Y-40124859D01*
X176645565Y-40031944D01*
X176645342Y-39957375D01*
X176592727Y-39813786D01*
X176482375Y-39762458D01*
X176366755Y-39776780D01*
X176347694Y-39869004D01*
X176072516Y-39869004D01*
X176055753Y-39830843D01*
X176022654Y-39741696D01*
X176022000Y-39736873D01*
X176039478Y-39719250D01*
X176784000Y-39719250D01*
X176815750Y-39751000D01*
X176847500Y-39719250D01*
X176815750Y-39687500D01*
X176784000Y-39719250D01*
X176039478Y-39719250D01*
X176073683Y-39684763D01*
X176202272Y-39608794D01*
X176247429Y-39586485D01*
X176426896Y-39520265D01*
X176565440Y-39526375D01*
X176628429Y-39550394D01*
X176742641Y-39589716D01*
X176781937Y-39556413D01*
X176784000Y-39527388D01*
X176796781Y-39495007D01*
X177038000Y-39495007D01*
X177084545Y-39529945D01*
X177133250Y-39519963D01*
X177216801Y-39474891D01*
X177228500Y-39458456D01*
X177176647Y-39436258D01*
X177133250Y-39433500D01*
X177048730Y-39466731D01*
X177038000Y-39495007D01*
X176796781Y-39495007D01*
X176837712Y-39391309D01*
X176967546Y-39264443D01*
X177126548Y-39187333D01*
X177186908Y-39179500D01*
X177340503Y-39225447D01*
X177340503Y-39225447D01*
G37*
X177340503Y-39225447D02*
X177476181Y-39335212D01*
X177544590Y-39466677D01*
X177546000Y-39485942D01*
X177493386Y-39558305D01*
X177364274Y-39639078D01*
X177339625Y-39650387D01*
X177216752Y-39709784D01*
X177204539Y-39737741D01*
X177272377Y-39745820D01*
X177400207Y-39724133D01*
X177450750Y-39687500D01*
X177533037Y-39625735D01*
X177598764Y-39669886D01*
X177609500Y-39728124D01*
X177555222Y-39867706D01*
X177419149Y-39960785D01*
X177241425Y-39996361D01*
X177062192Y-39963433D01*
X176968041Y-39903905D01*
X176887617Y-39839190D01*
X176875762Y-39871364D01*
X176890135Y-39932072D01*
X176866225Y-40087710D01*
X176765179Y-40220093D01*
X176660113Y-40357548D01*
X176615605Y-40481066D01*
X176615834Y-40491118D01*
X176579059Y-40594637D01*
X176530000Y-40621365D01*
X176445427Y-40573571D01*
X176330641Y-40406676D01*
X176228375Y-40209817D01*
X176128931Y-39997437D01*
X176072516Y-39869004D01*
X176347694Y-39869004D01*
X176405234Y-40009174D01*
X176502891Y-40119803D01*
X176594746Y-40124859D01*
X176645565Y-40031944D01*
X176645342Y-39957375D01*
X176592727Y-39813786D01*
X176482375Y-39762458D01*
X176366755Y-39776780D01*
X176347694Y-39869004D01*
X176072516Y-39869004D01*
X176055753Y-39830843D01*
X176022654Y-39741696D01*
X176022000Y-39736873D01*
X176039478Y-39719250D01*
X176784000Y-39719250D01*
X176815750Y-39751000D01*
X176847500Y-39719250D01*
X176815750Y-39687500D01*
X176784000Y-39719250D01*
X176039478Y-39719250D01*
X176073683Y-39684763D01*
X176202272Y-39608794D01*
X176247429Y-39586485D01*
X176426896Y-39520265D01*
X176565440Y-39526375D01*
X176628429Y-39550394D01*
X176742641Y-39589716D01*
X176781937Y-39556413D01*
X176784000Y-39527388D01*
X176796781Y-39495007D01*
X177038000Y-39495007D01*
X177084545Y-39529945D01*
X177133250Y-39519963D01*
X177216801Y-39474891D01*
X177228500Y-39458456D01*
X177176647Y-39436258D01*
X177133250Y-39433500D01*
X177048730Y-39466731D01*
X177038000Y-39495007D01*
X176796781Y-39495007D01*
X176837712Y-39391309D01*
X176967546Y-39264443D01*
X177126548Y-39187333D01*
X177186908Y-39179500D01*
X177340503Y-39225447D01*
G36*
X177957900Y-38887862D02*
X178084878Y-38973329D01*
X178203747Y-39137475D01*
X178286494Y-39333550D01*
X178308000Y-39472152D01*
X178257506Y-39534668D01*
X178137293Y-39619731D01*
X177994256Y-39699600D01*
X177875295Y-39746532D01*
X177839870Y-39749069D01*
X177786402Y-39720206D01*
X177720625Y-39682413D01*
X177624716Y-39564775D01*
X177623898Y-39429531D01*
X177875406Y-39429531D01*
X177892740Y-39488571D01*
X177930968Y-39485093D01*
X178027202Y-39404697D01*
X178042093Y-39373968D01*
X178024759Y-39314928D01*
X177986531Y-39318406D01*
X177890297Y-39398802D01*
X177875406Y-39429531D01*
X177623898Y-39429531D01*
X177623754Y-39405890D01*
X177713453Y-39243770D01*
X177776813Y-39184108D01*
X177870166Y-39097455D01*
X177884331Y-39053763D01*
X177876599Y-39052500D01*
X177780436Y-39093326D01*
X177713821Y-39147750D01*
X177591847Y-39231936D01*
X177506315Y-39222230D01*
X177482500Y-39149213D01*
X177538101Y-39032460D01*
X177673631Y-38935098D01*
X177842181Y-38882916D01*
X177957900Y-38887862D01*
X177957900Y-38887862D01*
G37*
X177957900Y-38887862D02*
X178084878Y-38973329D01*
X178203747Y-39137475D01*
X178286494Y-39333550D01*
X178308000Y-39472152D01*
X178257506Y-39534668D01*
X178137293Y-39619731D01*
X177994256Y-39699600D01*
X177875295Y-39746532D01*
X177839870Y-39749069D01*
X177786402Y-39720206D01*
X177720625Y-39682413D01*
X177624716Y-39564775D01*
X177623898Y-39429531D01*
X177875406Y-39429531D01*
X177892740Y-39488571D01*
X177930968Y-39485093D01*
X178027202Y-39404697D01*
X178042093Y-39373968D01*
X178024759Y-39314928D01*
X177986531Y-39318406D01*
X177890297Y-39398802D01*
X177875406Y-39429531D01*
X177623898Y-39429531D01*
X177623754Y-39405890D01*
X177713453Y-39243770D01*
X177776813Y-39184108D01*
X177870166Y-39097455D01*
X177884331Y-39053763D01*
X177876599Y-39052500D01*
X177780436Y-39093326D01*
X177713821Y-39147750D01*
X177591847Y-39231936D01*
X177506315Y-39222230D01*
X177482500Y-39149213D01*
X177538101Y-39032460D01*
X177673631Y-38935098D01*
X177842181Y-38882916D01*
X177957900Y-38887862D01*
G36*
X180079841Y-37621872D02*
X180181050Y-37781477D01*
X180292866Y-38024499D01*
X180295046Y-38029911D01*
X180483743Y-38499573D01*
X180332496Y-38615874D01*
X180130810Y-38717485D01*
X179945360Y-38713857D01*
X179823900Y-38629822D01*
X179760326Y-38569490D01*
X179725829Y-38607668D01*
X179704776Y-38706888D01*
X179614077Y-38892133D01*
X179501678Y-38985180D01*
X179376035Y-39042561D01*
X179277288Y-39030555D01*
X179148800Y-38946853D01*
X178967046Y-38812476D01*
X178992829Y-38988145D01*
X178977259Y-39153827D01*
X178871463Y-39266881D01*
X178761338Y-39389465D01*
X178722532Y-39507279D01*
X178698355Y-39637333D01*
X178634426Y-39652142D01*
X178536291Y-39555107D01*
X178409500Y-39349630D01*
X178382871Y-39299081D01*
X178256904Y-39038768D01*
X178230269Y-38958817D01*
X178494092Y-38958817D01*
X178537757Y-39070499D01*
X178540833Y-39073666D01*
X178632189Y-39111444D01*
X178744686Y-39109095D01*
X178813265Y-39070397D01*
X178816000Y-39057693D01*
X178773561Y-38895782D01*
X178666033Y-38805790D01*
X178618706Y-38798500D01*
X178526655Y-38848436D01*
X178494092Y-38958817D01*
X178230269Y-38958817D01*
X178198030Y-38862046D01*
X178205204Y-38745333D01*
X178277379Y-38665048D01*
X178352905Y-38623875D01*
X178586376Y-38552473D01*
X178771227Y-38569247D01*
X178874413Y-38655625D01*
X178919042Y-38713251D01*
X178937681Y-38666624D01*
X178940614Y-38585635D01*
X179198034Y-38585635D01*
X179225504Y-38716660D01*
X179268237Y-38780837D01*
X179370842Y-38822581D01*
X179473903Y-38795224D01*
X179514500Y-38724031D01*
X179475982Y-38589023D01*
X179387251Y-38468539D01*
X179350503Y-38449250D01*
X179641500Y-38449250D01*
X179673250Y-38481000D01*
X179705000Y-38449250D01*
X179673250Y-38417500D01*
X179641500Y-38449250D01*
X179350503Y-38449250D01*
X179290015Y-38417500D01*
X179220592Y-38468327D01*
X179198034Y-38585635D01*
X178940614Y-38585635D01*
X178941069Y-38573075D01*
X178966101Y-38409540D01*
X179019199Y-38303200D01*
X179150031Y-38243632D01*
X179332813Y-38230460D01*
X179501272Y-38263685D01*
X179565300Y-38303200D01*
X179620333Y-38332284D01*
X179635897Y-38273392D01*
X179859651Y-38273392D01*
X179892589Y-38348561D01*
X179994172Y-38456979D01*
X180109177Y-38474935D01*
X180180438Y-38418812D01*
X180185751Y-38310670D01*
X180121762Y-38193931D01*
X180025333Y-38126500D01*
X179993304Y-38124842D01*
X179871096Y-38172328D01*
X179859651Y-38273392D01*
X179635897Y-38273392D01*
X179640450Y-38256167D01*
X179641500Y-38206588D01*
X179687910Y-38043784D01*
X179795246Y-37963725D01*
X179916196Y-37863113D01*
X179938121Y-37726962D01*
X179948549Y-37586273D01*
X179999065Y-37554024D01*
X180079841Y-37621872D01*
X180079841Y-37621872D01*
G37*
X180079841Y-37621872D02*
X180181050Y-37781477D01*
X180292866Y-38024499D01*
X180295046Y-38029911D01*
X180483743Y-38499573D01*
X180332496Y-38615874D01*
X180130810Y-38717485D01*
X179945360Y-38713857D01*
X179823900Y-38629822D01*
X179760326Y-38569490D01*
X179725829Y-38607668D01*
X179704776Y-38706888D01*
X179614077Y-38892133D01*
X179501678Y-38985180D01*
X179376035Y-39042561D01*
X179277288Y-39030555D01*
X179148800Y-38946853D01*
X178967046Y-38812476D01*
X178992829Y-38988145D01*
X178977259Y-39153827D01*
X178871463Y-39266881D01*
X178761338Y-39389465D01*
X178722532Y-39507279D01*
X178698355Y-39637333D01*
X178634426Y-39652142D01*
X178536291Y-39555107D01*
X178409500Y-39349630D01*
X178382871Y-39299081D01*
X178256904Y-39038768D01*
X178230269Y-38958817D01*
X178494092Y-38958817D01*
X178537757Y-39070499D01*
X178540833Y-39073666D01*
X178632189Y-39111444D01*
X178744686Y-39109095D01*
X178813265Y-39070397D01*
X178816000Y-39057693D01*
X178773561Y-38895782D01*
X178666033Y-38805790D01*
X178618706Y-38798500D01*
X178526655Y-38848436D01*
X178494092Y-38958817D01*
X178230269Y-38958817D01*
X178198030Y-38862046D01*
X178205204Y-38745333D01*
X178277379Y-38665048D01*
X178352905Y-38623875D01*
X178586376Y-38552473D01*
X178771227Y-38569247D01*
X178874413Y-38655625D01*
X178919042Y-38713251D01*
X178937681Y-38666624D01*
X178940614Y-38585635D01*
X179198034Y-38585635D01*
X179225504Y-38716660D01*
X179268237Y-38780837D01*
X179370842Y-38822581D01*
X179473903Y-38795224D01*
X179514500Y-38724031D01*
X179475982Y-38589023D01*
X179387251Y-38468539D01*
X179350503Y-38449250D01*
X179641500Y-38449250D01*
X179673250Y-38481000D01*
X179705000Y-38449250D01*
X179673250Y-38417500D01*
X179641500Y-38449250D01*
X179350503Y-38449250D01*
X179290015Y-38417500D01*
X179220592Y-38468327D01*
X179198034Y-38585635D01*
X178940614Y-38585635D01*
X178941069Y-38573075D01*
X178966101Y-38409540D01*
X179019199Y-38303200D01*
X179150031Y-38243632D01*
X179332813Y-38230460D01*
X179501272Y-38263685D01*
X179565300Y-38303200D01*
X179620333Y-38332284D01*
X179635897Y-38273392D01*
X179859651Y-38273392D01*
X179892589Y-38348561D01*
X179994172Y-38456979D01*
X180109177Y-38474935D01*
X180180438Y-38418812D01*
X180185751Y-38310670D01*
X180121762Y-38193931D01*
X180025333Y-38126500D01*
X179993304Y-38124842D01*
X179871096Y-38172328D01*
X179859651Y-38273392D01*
X179635897Y-38273392D01*
X179640450Y-38256167D01*
X179641500Y-38206588D01*
X179687910Y-38043784D01*
X179795246Y-37963725D01*
X179916196Y-37863113D01*
X179938121Y-37726962D01*
X179948549Y-37586273D01*
X179999065Y-37554024D01*
X180079841Y-37621872D01*
G36*
X177143172Y-37249902D02*
X177133250Y-37274500D01*
X177076188Y-37335077D01*
X177066002Y-37338000D01*
X177038728Y-37288870D01*
X177038000Y-37274500D01*
X177086815Y-37213440D01*
X177105247Y-37211000D01*
X177143172Y-37249902D01*
X177143172Y-37249902D01*
G37*
X177143172Y-37249902D02*
X177133250Y-37274500D01*
X177076188Y-37335077D01*
X177066002Y-37338000D01*
X177038728Y-37288870D01*
X177038000Y-37274500D01*
X177086815Y-37213440D01*
X177105247Y-37211000D01*
X177143172Y-37249902D01*
D15*
X193254381Y-42163905D02*
X194063905Y-42163905D01*
X194159143Y-42116286D01*
X194206762Y-42068667D01*
X194254381Y-41973429D01*
X194254381Y-41782952D01*
X194206762Y-41687714D01*
X194159143Y-41640095D01*
X194063905Y-41592476D01*
X193254381Y-41592476D01*
X194254381Y-40592476D02*
X194254381Y-41163905D01*
X194254381Y-40878191D02*
X193254381Y-40878191D01*
X193397238Y-40973429D01*
X193492476Y-41068667D01*
X193540095Y-41163905D01*
X161441333Y-32520000D02*
X161346095Y-32472381D01*
X161203238Y-32472381D01*
X161060380Y-32520000D01*
X160965142Y-32615238D01*
X160917523Y-32710476D01*
X160869904Y-32900952D01*
X160869904Y-33043810D01*
X160917523Y-33234286D01*
X160965142Y-33329524D01*
X161060380Y-33424762D01*
X161203238Y-33472381D01*
X161298476Y-33472381D01*
X161441333Y-33424762D01*
X161488952Y-33377143D01*
X161488952Y-33043810D01*
X161298476Y-33043810D01*
X161917523Y-33472381D02*
X161917523Y-32472381D01*
X162488952Y-33472381D01*
X162488952Y-32472381D01*
X162965142Y-33472381D02*
X162965142Y-32472381D01*
X163203237Y-32472381D01*
X163346095Y-32520000D01*
X163441333Y-32615238D01*
X163488952Y-32710476D01*
X163536571Y-32900952D01*
X163536571Y-33043810D01*
X163488952Y-33234286D01*
X163441333Y-33329524D01*
X163346095Y-33424762D01*
X163203237Y-33472381D01*
X162965142Y-33472381D01*
X166822286Y-33472381D02*
X166488952Y-32996190D01*
X166250857Y-33472381D02*
X166250857Y-32472381D01*
X166631810Y-32472381D01*
X166727048Y-32520000D01*
X166774667Y-32567619D01*
X166822286Y-32662857D01*
X166822286Y-32805714D01*
X166774667Y-32900952D01*
X166727048Y-32948571D01*
X166631810Y-32996190D01*
X166250857Y-32996190D01*
X167250857Y-32948571D02*
X167584191Y-32948571D01*
X167727048Y-33472381D02*
X167250857Y-33472381D01*
X167250857Y-32472381D01*
X167727048Y-32472381D01*
X168108000Y-33424762D02*
X168250857Y-33472381D01*
X168488953Y-33472381D01*
X168584191Y-33424762D01*
X168631810Y-33377143D01*
X168679429Y-33281905D01*
X168679429Y-33186667D01*
X168631810Y-33091429D01*
X168584191Y-33043810D01*
X168488953Y-32996190D01*
X168298476Y-32948571D01*
X168203238Y-32900952D01*
X168155619Y-32853333D01*
X168108000Y-32758095D01*
X168108000Y-32662857D01*
X168155619Y-32567619D01*
X168203238Y-32520000D01*
X168298476Y-32472381D01*
X168536572Y-32472381D01*
X168679429Y-32520000D01*
X169108000Y-32948571D02*
X169441334Y-32948571D01*
X169584191Y-33472381D02*
X169108000Y-33472381D01*
X169108000Y-32472381D01*
X169584191Y-32472381D01*
X169869905Y-32472381D02*
X170441334Y-32472381D01*
X170155619Y-33472381D02*
X170155619Y-32472381D01*
X216416000Y-50878857D02*
X216368381Y-50974095D01*
X216368381Y-51116952D01*
X216416000Y-51259810D01*
X216511238Y-51355048D01*
X216606476Y-51402667D01*
X216796952Y-51450286D01*
X216939810Y-51450286D01*
X217130286Y-51402667D01*
X217225524Y-51355048D01*
X217320762Y-51259810D01*
X217368381Y-51116952D01*
X217368381Y-51021714D01*
X217320762Y-50878857D01*
X217273143Y-50831238D01*
X216939810Y-50831238D01*
X216939810Y-51021714D01*
X217368381Y-50402667D02*
X216368381Y-50402667D01*
X217368381Y-49831238D01*
X216368381Y-49831238D01*
X217368381Y-49355048D02*
X216368381Y-49355048D01*
X216368381Y-49116953D01*
X216416000Y-48974095D01*
X216511238Y-48878857D01*
X216606476Y-48831238D01*
X216796952Y-48783619D01*
X216939810Y-48783619D01*
X217130286Y-48831238D01*
X217225524Y-48878857D01*
X217320762Y-48974095D01*
X217368381Y-49116953D01*
X217368381Y-49355048D01*
X216416000Y-45545523D02*
X216368381Y-45640761D01*
X216368381Y-45783618D01*
X216416000Y-45926476D01*
X216511238Y-46021714D01*
X216606476Y-46069333D01*
X216796952Y-46116952D01*
X216939810Y-46116952D01*
X217130286Y-46069333D01*
X217225524Y-46021714D01*
X217320762Y-45926476D01*
X217368381Y-45783618D01*
X217368381Y-45688380D01*
X217320762Y-45545523D01*
X217273143Y-45497904D01*
X216939810Y-45497904D01*
X216939810Y-45688380D01*
X217368381Y-45069333D02*
X216368381Y-45069333D01*
X216368381Y-44688380D01*
X216416000Y-44593142D01*
X216463619Y-44545523D01*
X216558857Y-44497904D01*
X216701714Y-44497904D01*
X216796952Y-44545523D01*
X216844571Y-44593142D01*
X216892190Y-44688380D01*
X216892190Y-45069333D01*
X217368381Y-44069333D02*
X216368381Y-44069333D01*
X216368381Y-43402667D02*
X216368381Y-43212190D01*
X216416000Y-43116952D01*
X216511238Y-43021714D01*
X216701714Y-42974095D01*
X217035048Y-42974095D01*
X217225524Y-43021714D01*
X217320762Y-43116952D01*
X217368381Y-43212190D01*
X217368381Y-43402667D01*
X217320762Y-43497905D01*
X217225524Y-43593143D01*
X217035048Y-43640762D01*
X216701714Y-43640762D01*
X216511238Y-43593143D01*
X216416000Y-43497905D01*
X216368381Y-43402667D01*
X216368381Y-42355048D02*
X216368381Y-42259809D01*
X216416000Y-42164571D01*
X216463619Y-42116952D01*
X216558857Y-42069333D01*
X216749333Y-42021714D01*
X216987429Y-42021714D01*
X217177905Y-42069333D01*
X217273143Y-42116952D01*
X217320762Y-42164571D01*
X217368381Y-42259809D01*
X217368381Y-42355048D01*
X217320762Y-42450286D01*
X217273143Y-42497905D01*
X217177905Y-42545524D01*
X216987429Y-42593143D01*
X216749333Y-42593143D01*
X216558857Y-42545524D01*
X216463619Y-42497905D01*
X216416000Y-42450286D01*
X216368381Y-42355048D01*
X194488571Y-40155714D02*
X194536190Y-40012857D01*
X194583810Y-39965238D01*
X194679048Y-39917619D01*
X194821905Y-39917619D01*
X194917143Y-39965238D01*
X194964762Y-40012857D01*
X195012381Y-40108095D01*
X195012381Y-40489048D01*
X194012381Y-40489048D01*
X194012381Y-40155714D01*
X194060000Y-40060476D01*
X194107619Y-40012857D01*
X194202857Y-39965238D01*
X194298095Y-39965238D01*
X194393333Y-40012857D01*
X194440952Y-40060476D01*
X194488571Y-40155714D01*
X194488571Y-40489048D01*
X194012381Y-39631905D02*
X194012381Y-39060476D01*
X195012381Y-39346191D02*
X194012381Y-39346191D01*
X195012381Y-38203333D02*
X195012381Y-38774762D01*
X195012381Y-38489048D02*
X194012381Y-38489048D01*
X194155238Y-38584286D01*
X194250476Y-38679524D01*
X194298095Y-38774762D01*
X165870286Y-51014381D02*
X166203619Y-52014381D01*
X166536953Y-51014381D01*
X167060762Y-51014381D02*
X167251239Y-51014381D01*
X167346477Y-51062000D01*
X167441715Y-51157238D01*
X167489334Y-51347714D01*
X167489334Y-51681048D01*
X167441715Y-51871524D01*
X167346477Y-51966762D01*
X167251239Y-52014381D01*
X167060762Y-52014381D01*
X166965524Y-51966762D01*
X166870286Y-51871524D01*
X166822667Y-51681048D01*
X166822667Y-51347714D01*
X166870286Y-51157238D01*
X166965524Y-51062000D01*
X167060762Y-51014381D01*
X167775048Y-51014381D02*
X168346477Y-51014381D01*
X168060762Y-52014381D02*
X168060762Y-51014381D01*
X168679810Y-51490571D02*
X169013144Y-51490571D01*
X169156001Y-52014381D02*
X168679810Y-52014381D01*
X168679810Y-51014381D01*
X169156001Y-51014381D01*
X170346477Y-51919143D02*
X170394096Y-51966762D01*
X170346477Y-52014381D01*
X170298858Y-51966762D01*
X170346477Y-51919143D01*
X170346477Y-52014381D01*
X170346477Y-51395333D02*
X170394096Y-51442952D01*
X170346477Y-51490571D01*
X170298858Y-51442952D01*
X170346477Y-51395333D01*
X170346477Y-51490571D01*
X171060762Y-52347714D02*
X171060762Y-50919143D01*
X157377143Y-51014381D02*
X157710476Y-52014381D01*
X158043810Y-51014381D01*
X158567619Y-51014381D02*
X158758096Y-51014381D01*
X158853334Y-51062000D01*
X158948572Y-51157238D01*
X158996191Y-51347714D01*
X158996191Y-51681048D01*
X158948572Y-51871524D01*
X158853334Y-51966762D01*
X158758096Y-52014381D01*
X158567619Y-52014381D01*
X158472381Y-51966762D01*
X158377143Y-51871524D01*
X158329524Y-51681048D01*
X158329524Y-51347714D01*
X158377143Y-51157238D01*
X158472381Y-51062000D01*
X158567619Y-51014381D01*
X159281905Y-51014381D02*
X159853334Y-51014381D01*
X159567619Y-52014381D02*
X159567619Y-51014381D01*
X160186667Y-51490571D02*
X160520001Y-51490571D01*
X160662858Y-52014381D02*
X160186667Y-52014381D01*
X160186667Y-51014381D01*
X160662858Y-51014381D01*
X161853334Y-51919143D02*
X161900953Y-51966762D01*
X161853334Y-52014381D01*
X161805715Y-51966762D01*
X161853334Y-51919143D01*
X161853334Y-52014381D01*
X161853334Y-51395333D02*
X161900953Y-51442952D01*
X161853334Y-51490571D01*
X161805715Y-51442952D01*
X161853334Y-51395333D01*
X161853334Y-51490571D01*
X162234286Y-52395333D02*
X162281905Y-52347714D01*
X162377143Y-52204857D01*
X162424762Y-52109619D01*
X162472381Y-51966762D01*
X162520000Y-51728667D01*
X162520000Y-51538190D01*
X162472381Y-51300095D01*
X162424762Y-51157238D01*
X162377143Y-51062000D01*
X162281905Y-50919143D01*
X162234286Y-50871524D01*
X175157143Y-51014381D02*
X175490476Y-52014381D01*
X175823810Y-51014381D01*
X176347619Y-51014381D02*
X176538096Y-51014381D01*
X176633334Y-51062000D01*
X176728572Y-51157238D01*
X176776191Y-51347714D01*
X176776191Y-51681048D01*
X176728572Y-51871524D01*
X176633334Y-51966762D01*
X176538096Y-52014381D01*
X176347619Y-52014381D01*
X176252381Y-51966762D01*
X176157143Y-51871524D01*
X176109524Y-51681048D01*
X176109524Y-51347714D01*
X176157143Y-51157238D01*
X176252381Y-51062000D01*
X176347619Y-51014381D01*
X177061905Y-51014381D02*
X177633334Y-51014381D01*
X177347619Y-52014381D02*
X177347619Y-51014381D01*
X177966667Y-51490571D02*
X178300001Y-51490571D01*
X178442858Y-52014381D02*
X177966667Y-52014381D01*
X177966667Y-51014381D01*
X178442858Y-51014381D01*
X179633334Y-51919143D02*
X179680953Y-51966762D01*
X179633334Y-52014381D01*
X179585715Y-51966762D01*
X179633334Y-51919143D01*
X179633334Y-52014381D01*
X179633334Y-51395333D02*
X179680953Y-51442952D01*
X179633334Y-51490571D01*
X179585715Y-51442952D01*
X179633334Y-51395333D01*
X179633334Y-51490571D01*
X180395239Y-52395333D02*
X180347619Y-52347714D01*
X180252381Y-52204857D01*
X180204762Y-52109619D01*
X180157143Y-51966762D01*
X180109524Y-51728667D01*
X180109524Y-51538190D01*
X180157143Y-51300095D01*
X180204762Y-51157238D01*
X180252381Y-51062000D01*
X180347619Y-50919143D01*
X180395239Y-50871524D01*
X153336952Y-33186667D02*
X153813143Y-33186667D01*
X153241714Y-33472381D02*
X153575047Y-32472381D01*
X153908381Y-33472381D01*
X154241714Y-33472381D02*
X154241714Y-32472381D01*
X154813143Y-33472381D01*
X154813143Y-32472381D01*
X155241714Y-33186667D02*
X155717905Y-33186667D01*
X155146476Y-33472381D02*
X155479809Y-32472381D01*
X155813143Y-33472381D01*
X156622667Y-33472381D02*
X156146476Y-33472381D01*
X156146476Y-32472381D01*
X157146476Y-32472381D02*
X157336953Y-32472381D01*
X157432191Y-32520000D01*
X157527429Y-32615238D01*
X157575048Y-32805714D01*
X157575048Y-33139048D01*
X157527429Y-33329524D01*
X157432191Y-33424762D01*
X157336953Y-33472381D01*
X157146476Y-33472381D01*
X157051238Y-33424762D01*
X156956000Y-33329524D01*
X156908381Y-33139048D01*
X156908381Y-32805714D01*
X156956000Y-32615238D01*
X157051238Y-32520000D01*
X157146476Y-32472381D01*
X158527429Y-32520000D02*
X158432191Y-32472381D01*
X158289334Y-32472381D01*
X158146476Y-32520000D01*
X158051238Y-32615238D01*
X158003619Y-32710476D01*
X157956000Y-32900952D01*
X157956000Y-33043810D01*
X158003619Y-33234286D01*
X158051238Y-33329524D01*
X158146476Y-33424762D01*
X158289334Y-33472381D01*
X158384572Y-33472381D01*
X158527429Y-33424762D01*
X158575048Y-33377143D01*
X158575048Y-33043810D01*
X158384572Y-33043810D01*
X210383810Y-30916571D02*
X210050476Y-30916571D01*
X210050476Y-31440381D02*
X210050476Y-30440381D01*
X210526667Y-30440381D01*
X210764762Y-30440381D02*
X211336191Y-30440381D01*
X211050476Y-31440381D02*
X211050476Y-30440381D01*
X211669524Y-31440381D02*
X211669524Y-30440381D01*
X211907619Y-30440381D01*
X212050477Y-30488000D01*
X212145715Y-30583238D01*
X212193334Y-30678476D01*
X212240953Y-30868952D01*
X212240953Y-31011810D01*
X212193334Y-31202286D01*
X212145715Y-31297524D01*
X212050477Y-31392762D01*
X211907619Y-31440381D01*
X211669524Y-31440381D01*
X212669524Y-31440381D02*
X212669524Y-30440381D01*
X213812381Y-30440381D02*
X214431429Y-30440381D01*
X214098095Y-30821333D01*
X214240953Y-30821333D01*
X214336191Y-30868952D01*
X214383810Y-30916571D01*
X214431429Y-31011810D01*
X214431429Y-31249905D01*
X214383810Y-31345143D01*
X214336191Y-31392762D01*
X214240953Y-31440381D01*
X213955238Y-31440381D01*
X213860000Y-31392762D01*
X213812381Y-31345143D01*
X214860000Y-31345143D02*
X214907619Y-31392762D01*
X214860000Y-31440381D01*
X214812381Y-31392762D01*
X214860000Y-31345143D01*
X214860000Y-31440381D01*
X215240952Y-30440381D02*
X215860000Y-30440381D01*
X215526666Y-30821333D01*
X215669524Y-30821333D01*
X215764762Y-30868952D01*
X215812381Y-30916571D01*
X215860000Y-31011810D01*
X215860000Y-31249905D01*
X215812381Y-31345143D01*
X215764762Y-31392762D01*
X215669524Y-31440381D01*
X215383809Y-31440381D01*
X215288571Y-31392762D01*
X215240952Y-31345143D01*
X216145714Y-30440381D02*
X216479047Y-31440381D01*
X216812381Y-30440381D01*
X204263810Y-46109000D02*
X204168572Y-46061381D01*
X204025715Y-46061381D01*
X203882857Y-46109000D01*
X203787619Y-46204238D01*
X203740000Y-46299476D01*
X203692381Y-46489952D01*
X203692381Y-46632810D01*
X203740000Y-46823286D01*
X203787619Y-46918524D01*
X203882857Y-47013762D01*
X204025715Y-47061381D01*
X204120953Y-47061381D01*
X204263810Y-47013762D01*
X204311429Y-46966143D01*
X204311429Y-46632810D01*
X204120953Y-46632810D01*
X204740000Y-47061381D02*
X204740000Y-46061381D01*
X205120953Y-46061381D01*
X205216191Y-46109000D01*
X205263810Y-46156619D01*
X205311429Y-46251857D01*
X205311429Y-46394714D01*
X205263810Y-46489952D01*
X205216191Y-46537571D01*
X205120953Y-46585190D01*
X204740000Y-46585190D01*
X205740000Y-47061381D02*
X205740000Y-46061381D01*
X206406666Y-46061381D02*
X206597143Y-46061381D01*
X206692381Y-46109000D01*
X206787619Y-46204238D01*
X206835238Y-46394714D01*
X206835238Y-46728048D01*
X206787619Y-46918524D01*
X206692381Y-47013762D01*
X206597143Y-47061381D01*
X206406666Y-47061381D01*
X206311428Y-47013762D01*
X206216190Y-46918524D01*
X206168571Y-46728048D01*
X206168571Y-46394714D01*
X206216190Y-46204238D01*
X206311428Y-46109000D01*
X206406666Y-46061381D01*
X207740000Y-46061381D02*
X207263809Y-46061381D01*
X207216190Y-46537571D01*
X207263809Y-46489952D01*
X207359047Y-46442333D01*
X207597143Y-46442333D01*
X207692381Y-46489952D01*
X207740000Y-46537571D01*
X207787619Y-46632810D01*
X207787619Y-46870905D01*
X207740000Y-46966143D01*
X207692381Y-47013762D01*
X207597143Y-47061381D01*
X207359047Y-47061381D01*
X207263809Y-47013762D01*
X207216190Y-46966143D01*
X211502810Y-46109000D02*
X211407572Y-46061381D01*
X211264715Y-46061381D01*
X211121857Y-46109000D01*
X211026619Y-46204238D01*
X210979000Y-46299476D01*
X210931381Y-46489952D01*
X210931381Y-46632810D01*
X210979000Y-46823286D01*
X211026619Y-46918524D01*
X211121857Y-47013762D01*
X211264715Y-47061381D01*
X211359953Y-47061381D01*
X211502810Y-47013762D01*
X211550429Y-46966143D01*
X211550429Y-46632810D01*
X211359953Y-46632810D01*
X211979000Y-47061381D02*
X211979000Y-46061381D01*
X212359953Y-46061381D01*
X212455191Y-46109000D01*
X212502810Y-46156619D01*
X212550429Y-46251857D01*
X212550429Y-46394714D01*
X212502810Y-46489952D01*
X212455191Y-46537571D01*
X212359953Y-46585190D01*
X211979000Y-46585190D01*
X212979000Y-47061381D02*
X212979000Y-46061381D01*
X213645666Y-46061381D02*
X213836143Y-46061381D01*
X213931381Y-46109000D01*
X214026619Y-46204238D01*
X214074238Y-46394714D01*
X214074238Y-46728048D01*
X214026619Y-46918524D01*
X213931381Y-47013762D01*
X213836143Y-47061381D01*
X213645666Y-47061381D01*
X213550428Y-47013762D01*
X213455190Y-46918524D01*
X213407571Y-46728048D01*
X213407571Y-46394714D01*
X213455190Y-46204238D01*
X213550428Y-46109000D01*
X213645666Y-46061381D01*
X214931381Y-46394714D02*
X214931381Y-47061381D01*
X214693285Y-46013762D02*
X214455190Y-46728048D01*
X215074238Y-46728048D01*
X169759334Y-40252381D02*
X169426000Y-39776190D01*
X169187905Y-40252381D02*
X169187905Y-39252381D01*
X169568858Y-39252381D01*
X169664096Y-39300000D01*
X169711715Y-39347619D01*
X169759334Y-39442857D01*
X169759334Y-39585714D01*
X169711715Y-39680952D01*
X169664096Y-39728571D01*
X169568858Y-39776190D01*
X169187905Y-39776190D01*
X170711715Y-40252381D02*
X170140286Y-40252381D01*
X170426000Y-40252381D02*
X170426000Y-39252381D01*
X170330762Y-39395238D01*
X170235524Y-39490476D01*
X170140286Y-39538095D01*
X169759334Y-36950381D02*
X169426000Y-36474190D01*
X169187905Y-36950381D02*
X169187905Y-35950381D01*
X169568858Y-35950381D01*
X169664096Y-35998000D01*
X169711715Y-36045619D01*
X169759334Y-36140857D01*
X169759334Y-36283714D01*
X169711715Y-36378952D01*
X169664096Y-36426571D01*
X169568858Y-36474190D01*
X169187905Y-36474190D01*
X170140286Y-36045619D02*
X170187905Y-35998000D01*
X170283143Y-35950381D01*
X170521239Y-35950381D01*
X170616477Y-35998000D01*
X170664096Y-36045619D01*
X170711715Y-36140857D01*
X170711715Y-36236095D01*
X170664096Y-36378952D01*
X170092667Y-36950381D01*
X170711715Y-36950381D01*
X205827334Y-38298381D02*
X205494000Y-37822190D01*
X205255905Y-38298381D02*
X205255905Y-37298381D01*
X205636858Y-37298381D01*
X205732096Y-37346000D01*
X205779715Y-37393619D01*
X205827334Y-37488857D01*
X205827334Y-37631714D01*
X205779715Y-37726952D01*
X205732096Y-37774571D01*
X205636858Y-37822190D01*
X205255905Y-37822190D01*
X206160667Y-37298381D02*
X206779715Y-37298381D01*
X206446381Y-37679333D01*
X206589239Y-37679333D01*
X206684477Y-37726952D01*
X206732096Y-37774571D01*
X206779715Y-37869810D01*
X206779715Y-38107905D01*
X206732096Y-38203143D01*
X206684477Y-38250762D01*
X206589239Y-38298381D01*
X206303524Y-38298381D01*
X206208286Y-38250762D01*
X206160667Y-38203143D01*
X204557334Y-33472381D02*
X204224000Y-32996190D01*
X203985905Y-33472381D02*
X203985905Y-32472381D01*
X204366858Y-32472381D01*
X204462096Y-32520000D01*
X204509715Y-32567619D01*
X204557334Y-32662857D01*
X204557334Y-32805714D01*
X204509715Y-32900952D01*
X204462096Y-32948571D01*
X204366858Y-32996190D01*
X203985905Y-32996190D01*
X205414477Y-32805714D02*
X205414477Y-33472381D01*
X205176381Y-32424762D02*
X204938286Y-33139048D01*
X205557334Y-33139048D01*
X208367334Y-38298381D02*
X208034000Y-37822190D01*
X207795905Y-38298381D02*
X207795905Y-37298381D01*
X208176858Y-37298381D01*
X208272096Y-37346000D01*
X208319715Y-37393619D01*
X208367334Y-37488857D01*
X208367334Y-37631714D01*
X208319715Y-37726952D01*
X208272096Y-37774571D01*
X208176858Y-37822190D01*
X207795905Y-37822190D01*
X209272096Y-37298381D02*
X208795905Y-37298381D01*
X208748286Y-37774571D01*
X208795905Y-37726952D01*
X208891143Y-37679333D01*
X209129239Y-37679333D01*
X209224477Y-37726952D01*
X209272096Y-37774571D01*
X209319715Y-37869810D01*
X209319715Y-38107905D01*
X209272096Y-38203143D01*
X209224477Y-38250762D01*
X209129239Y-38298381D01*
X208891143Y-38298381D01*
X208795905Y-38250762D01*
X208748286Y-38203143D01*
X216241334Y-34996381D02*
X215908000Y-34520190D01*
X215669905Y-34996381D02*
X215669905Y-33996381D01*
X216050858Y-33996381D01*
X216146096Y-34044000D01*
X216193715Y-34091619D01*
X216241334Y-34186857D01*
X216241334Y-34329714D01*
X216193715Y-34424952D01*
X216146096Y-34472571D01*
X216050858Y-34520190D01*
X215669905Y-34520190D01*
X216574667Y-33996381D02*
X217241334Y-34996381D01*
X217241334Y-33996381D02*
X216574667Y-34996381D01*
X173736095Y-32472381D02*
X174307524Y-32472381D01*
X174021809Y-33472381D02*
X174021809Y-32472381D01*
X174545619Y-32472381D02*
X175212286Y-33472381D01*
X175212286Y-32472381D02*
X174545619Y-33472381D01*
M02*
