G04 #@! TF.FileFunction,Copper,L2,Bot,Signal*
%FSLAX46Y46*%
G04 Gerber Fmt 4.6, Leading zero omitted, Abs format (unit mm)*
G04 Created by KiCad (PCBNEW 4.0.6) date Fri Aug 18 15:24:34 2017*
%MOMM*%
%LPD*%
G01*
G04 APERTURE LIST*
%ADD10C,0.100000*%
%ADD11C,2.540000*%
%ADD12R,1.700000X1.700000*%
%ADD13O,1.700000X1.700000*%
%ADD14C,0.685800*%
%ADD15C,0.635000*%
%ADD16C,0.254000*%
G04 APERTURE END LIST*
D10*
D11*
X156340000Y-39370000D03*
X163960000Y-41910000D03*
X163960000Y-37084000D03*
X219460000Y-39370000D03*
X211840000Y-36830000D03*
X211840000Y-41910000D03*
D12*
X221488000Y-28448000D03*
D13*
X218948000Y-28448000D03*
X216408000Y-28448000D03*
X213868000Y-28448000D03*
X211328000Y-28448000D03*
X208788000Y-28448000D03*
D14*
X204216000Y-44704000D03*
X195072000Y-44704000D03*
X216408000Y-32258000D03*
X216408000Y-34036000D03*
X198882000Y-49022000D03*
X162306000Y-29464000D03*
X168402000Y-34798000D03*
X177800000Y-49022000D03*
X168656000Y-49022000D03*
X160020000Y-49022000D03*
X220472000Y-50292000D03*
X208534000Y-39370000D03*
D15*
X195072000Y-44704000D02*
X204216000Y-44704000D01*
X216408000Y-34036000D02*
X216408000Y-32258000D01*
D16*
G36*
X165227000Y-33528000D02*
X165237006Y-33577410D01*
X165265447Y-33619035D01*
X165307841Y-33646315D01*
X165354000Y-33655000D01*
X212598000Y-33655000D01*
X212647410Y-33644994D01*
X212689035Y-33616553D01*
X212716315Y-33574159D01*
X212725000Y-33528000D01*
X212725000Y-32451663D01*
X215429931Y-32451663D01*
X215455500Y-32513545D01*
X215455500Y-33779869D01*
X215430270Y-33840630D01*
X215429931Y-34229663D01*
X215578493Y-34589212D01*
X215853341Y-34864540D01*
X216212630Y-35013730D01*
X216601663Y-35014069D01*
X216961212Y-34865507D01*
X217236540Y-34590659D01*
X217385730Y-34231370D01*
X217386069Y-33842337D01*
X217360500Y-33780455D01*
X217360500Y-32514131D01*
X217385730Y-32453370D01*
X217386069Y-32064337D01*
X217237507Y-31704788D01*
X216962659Y-31429460D01*
X216603370Y-31280270D01*
X216214337Y-31279931D01*
X215854788Y-31428493D01*
X215579460Y-31703341D01*
X215430270Y-32062630D01*
X215429931Y-32451663D01*
X212725000Y-32451663D01*
X212725000Y-29388043D01*
X212817946Y-29527147D01*
X213299715Y-29849054D01*
X213868000Y-29962093D01*
X214436285Y-29849054D01*
X214918054Y-29527147D01*
X215138000Y-29197974D01*
X215357946Y-29527147D01*
X215839715Y-29849054D01*
X216408000Y-29962093D01*
X216976285Y-29849054D01*
X217458054Y-29527147D01*
X217678000Y-29197974D01*
X217897946Y-29527147D01*
X218379715Y-29849054D01*
X218948000Y-29962093D01*
X219516285Y-29849054D01*
X219998054Y-29527147D01*
X220027403Y-29483223D01*
X220099673Y-29657698D01*
X220278301Y-29836327D01*
X220511690Y-29933000D01*
X221202250Y-29933000D01*
X221361000Y-29774250D01*
X221361000Y-28575000D01*
X221341000Y-28575000D01*
X221341000Y-28321000D01*
X221361000Y-28321000D01*
X221361000Y-28301000D01*
X221615000Y-28301000D01*
X221615000Y-28321000D01*
X221635000Y-28321000D01*
X221635000Y-28575000D01*
X221615000Y-28575000D01*
X221615000Y-29774250D01*
X221773750Y-29933000D01*
X222464310Y-29933000D01*
X222697699Y-29836327D01*
X222876327Y-29657698D01*
X222885000Y-29636760D01*
X222885000Y-52630000D01*
X153618000Y-52630000D01*
X153618000Y-44897663D01*
X194093931Y-44897663D01*
X194242493Y-45257212D01*
X194517341Y-45532540D01*
X194876630Y-45681730D01*
X195265663Y-45682069D01*
X195327545Y-45656500D01*
X203959869Y-45656500D01*
X204020630Y-45681730D01*
X204409663Y-45682069D01*
X204769212Y-45533507D01*
X205044540Y-45258659D01*
X205193730Y-44899370D01*
X205194069Y-44510337D01*
X205045507Y-44150788D01*
X204770659Y-43875460D01*
X204411370Y-43726270D01*
X204022337Y-43725931D01*
X203960455Y-43751500D01*
X195328131Y-43751500D01*
X195267370Y-43726270D01*
X194878337Y-43725931D01*
X194518788Y-43874493D01*
X194243460Y-44149341D01*
X194094270Y-44508630D01*
X194093931Y-44897663D01*
X153618000Y-44897663D01*
X153618000Y-42287265D01*
X162054670Y-42287265D01*
X162344078Y-42987686D01*
X162879495Y-43524039D01*
X163579410Y-43814668D01*
X164337265Y-43815330D01*
X165037686Y-43525922D01*
X165306299Y-43257777D01*
X210671828Y-43257777D01*
X210803520Y-43552657D01*
X211511036Y-43824261D01*
X212268632Y-43804436D01*
X212876480Y-43552657D01*
X213008172Y-43257777D01*
X211840000Y-42089605D01*
X210671828Y-43257777D01*
X165306299Y-43257777D01*
X165574039Y-42990505D01*
X165864668Y-42290590D01*
X165865287Y-41581036D01*
X209925739Y-41581036D01*
X209945564Y-42338632D01*
X210197343Y-42946480D01*
X210492223Y-43078172D01*
X211660395Y-41910000D01*
X212019605Y-41910000D01*
X213187777Y-43078172D01*
X213482657Y-42946480D01*
X213754261Y-42238964D01*
X213734436Y-41481368D01*
X213482657Y-40873520D01*
X213187777Y-40741828D01*
X212019605Y-41910000D01*
X211660395Y-41910000D01*
X210492223Y-40741828D01*
X210197343Y-40873520D01*
X209925739Y-41581036D01*
X165865287Y-41581036D01*
X165865330Y-41532735D01*
X165575922Y-40832314D01*
X165306303Y-40562223D01*
X210671828Y-40562223D01*
X211840000Y-41730395D01*
X212852618Y-40717777D01*
X218291828Y-40717777D01*
X218423520Y-41012657D01*
X219131036Y-41284261D01*
X219888632Y-41264436D01*
X220496480Y-41012657D01*
X220628172Y-40717777D01*
X219460000Y-39549605D01*
X218291828Y-40717777D01*
X212852618Y-40717777D01*
X213008172Y-40562223D01*
X212876480Y-40267343D01*
X212168964Y-39995739D01*
X211411368Y-40015564D01*
X210803520Y-40267343D01*
X210671828Y-40562223D01*
X165306303Y-40562223D01*
X165040505Y-40295961D01*
X164340590Y-40005332D01*
X163582735Y-40004670D01*
X162882314Y-40294078D01*
X162345961Y-40829495D01*
X162055332Y-41529410D01*
X162054670Y-42287265D01*
X153618000Y-42287265D01*
X153618000Y-39747265D01*
X154434670Y-39747265D01*
X154724078Y-40447686D01*
X155259495Y-40984039D01*
X155959410Y-41274668D01*
X156717265Y-41275330D01*
X157417686Y-40985922D01*
X157954039Y-40450505D01*
X158244668Y-39750590D01*
X158245287Y-39041036D01*
X217545739Y-39041036D01*
X217565564Y-39798632D01*
X217817343Y-40406480D01*
X218112223Y-40538172D01*
X219280395Y-39370000D01*
X219639605Y-39370000D01*
X220807777Y-40538172D01*
X221102657Y-40406480D01*
X221374261Y-39698964D01*
X221354436Y-38941368D01*
X221102657Y-38333520D01*
X220807777Y-38201828D01*
X219639605Y-39370000D01*
X219280395Y-39370000D01*
X218112223Y-38201828D01*
X217817343Y-38333520D01*
X217545739Y-39041036D01*
X158245287Y-39041036D01*
X158245330Y-38992735D01*
X157955922Y-38292314D01*
X157420505Y-37755961D01*
X156720590Y-37465332D01*
X155962735Y-37464670D01*
X155262314Y-37754078D01*
X154725961Y-38289495D01*
X154435332Y-38989410D01*
X154434670Y-39747265D01*
X153618000Y-39747265D01*
X153618000Y-37461265D01*
X162054670Y-37461265D01*
X162344078Y-38161686D01*
X162879495Y-38698039D01*
X163579410Y-38988668D01*
X164337265Y-38989330D01*
X165037686Y-38699922D01*
X165560743Y-38177777D01*
X210671828Y-38177777D01*
X210803520Y-38472657D01*
X211511036Y-38744261D01*
X212268632Y-38724436D01*
X212876480Y-38472657D01*
X213008172Y-38177777D01*
X212852618Y-38022223D01*
X218291828Y-38022223D01*
X219460000Y-39190395D01*
X220628172Y-38022223D01*
X220496480Y-37727343D01*
X219788964Y-37455739D01*
X219031368Y-37475564D01*
X218423520Y-37727343D01*
X218291828Y-38022223D01*
X212852618Y-38022223D01*
X211840000Y-37009605D01*
X210671828Y-38177777D01*
X165560743Y-38177777D01*
X165574039Y-38164505D01*
X165864668Y-37464590D01*
X165865330Y-36706735D01*
X165780337Y-36501036D01*
X209925739Y-36501036D01*
X209945564Y-37258632D01*
X210197343Y-37866480D01*
X210492223Y-37998172D01*
X211660395Y-36830000D01*
X212019605Y-36830000D01*
X213187777Y-37998172D01*
X213482657Y-37866480D01*
X213754261Y-37158964D01*
X213734436Y-36401368D01*
X213482657Y-35793520D01*
X213187777Y-35661828D01*
X212019605Y-36830000D01*
X211660395Y-36830000D01*
X210492223Y-35661828D01*
X210197343Y-35793520D01*
X209925739Y-36501036D01*
X165780337Y-36501036D01*
X165575922Y-36006314D01*
X165052746Y-35482223D01*
X210671828Y-35482223D01*
X211840000Y-36650395D01*
X213008172Y-35482223D01*
X212876480Y-35187343D01*
X212168964Y-34915739D01*
X211411368Y-34935564D01*
X210803520Y-35187343D01*
X210671828Y-35482223D01*
X165052746Y-35482223D01*
X165040505Y-35469961D01*
X164340590Y-35179332D01*
X163582735Y-35178670D01*
X162882314Y-35468078D01*
X162345961Y-36003495D01*
X162055332Y-36703410D01*
X162054670Y-37461265D01*
X153618000Y-37461265D01*
X153618000Y-27126000D01*
X165227000Y-27126000D01*
X165227000Y-33528000D01*
X165227000Y-33528000D01*
G37*
X165227000Y-33528000D02*
X165237006Y-33577410D01*
X165265447Y-33619035D01*
X165307841Y-33646315D01*
X165354000Y-33655000D01*
X212598000Y-33655000D01*
X212647410Y-33644994D01*
X212689035Y-33616553D01*
X212716315Y-33574159D01*
X212725000Y-33528000D01*
X212725000Y-32451663D01*
X215429931Y-32451663D01*
X215455500Y-32513545D01*
X215455500Y-33779869D01*
X215430270Y-33840630D01*
X215429931Y-34229663D01*
X215578493Y-34589212D01*
X215853341Y-34864540D01*
X216212630Y-35013730D01*
X216601663Y-35014069D01*
X216961212Y-34865507D01*
X217236540Y-34590659D01*
X217385730Y-34231370D01*
X217386069Y-33842337D01*
X217360500Y-33780455D01*
X217360500Y-32514131D01*
X217385730Y-32453370D01*
X217386069Y-32064337D01*
X217237507Y-31704788D01*
X216962659Y-31429460D01*
X216603370Y-31280270D01*
X216214337Y-31279931D01*
X215854788Y-31428493D01*
X215579460Y-31703341D01*
X215430270Y-32062630D01*
X215429931Y-32451663D01*
X212725000Y-32451663D01*
X212725000Y-29388043D01*
X212817946Y-29527147D01*
X213299715Y-29849054D01*
X213868000Y-29962093D01*
X214436285Y-29849054D01*
X214918054Y-29527147D01*
X215138000Y-29197974D01*
X215357946Y-29527147D01*
X215839715Y-29849054D01*
X216408000Y-29962093D01*
X216976285Y-29849054D01*
X217458054Y-29527147D01*
X217678000Y-29197974D01*
X217897946Y-29527147D01*
X218379715Y-29849054D01*
X218948000Y-29962093D01*
X219516285Y-29849054D01*
X219998054Y-29527147D01*
X220027403Y-29483223D01*
X220099673Y-29657698D01*
X220278301Y-29836327D01*
X220511690Y-29933000D01*
X221202250Y-29933000D01*
X221361000Y-29774250D01*
X221361000Y-28575000D01*
X221341000Y-28575000D01*
X221341000Y-28321000D01*
X221361000Y-28321000D01*
X221361000Y-28301000D01*
X221615000Y-28301000D01*
X221615000Y-28321000D01*
X221635000Y-28321000D01*
X221635000Y-28575000D01*
X221615000Y-28575000D01*
X221615000Y-29774250D01*
X221773750Y-29933000D01*
X222464310Y-29933000D01*
X222697699Y-29836327D01*
X222876327Y-29657698D01*
X222885000Y-29636760D01*
X222885000Y-52630000D01*
X153618000Y-52630000D01*
X153618000Y-44897663D01*
X194093931Y-44897663D01*
X194242493Y-45257212D01*
X194517341Y-45532540D01*
X194876630Y-45681730D01*
X195265663Y-45682069D01*
X195327545Y-45656500D01*
X203959869Y-45656500D01*
X204020630Y-45681730D01*
X204409663Y-45682069D01*
X204769212Y-45533507D01*
X205044540Y-45258659D01*
X205193730Y-44899370D01*
X205194069Y-44510337D01*
X205045507Y-44150788D01*
X204770659Y-43875460D01*
X204411370Y-43726270D01*
X204022337Y-43725931D01*
X203960455Y-43751500D01*
X195328131Y-43751500D01*
X195267370Y-43726270D01*
X194878337Y-43725931D01*
X194518788Y-43874493D01*
X194243460Y-44149341D01*
X194094270Y-44508630D01*
X194093931Y-44897663D01*
X153618000Y-44897663D01*
X153618000Y-42287265D01*
X162054670Y-42287265D01*
X162344078Y-42987686D01*
X162879495Y-43524039D01*
X163579410Y-43814668D01*
X164337265Y-43815330D01*
X165037686Y-43525922D01*
X165306299Y-43257777D01*
X210671828Y-43257777D01*
X210803520Y-43552657D01*
X211511036Y-43824261D01*
X212268632Y-43804436D01*
X212876480Y-43552657D01*
X213008172Y-43257777D01*
X211840000Y-42089605D01*
X210671828Y-43257777D01*
X165306299Y-43257777D01*
X165574039Y-42990505D01*
X165864668Y-42290590D01*
X165865287Y-41581036D01*
X209925739Y-41581036D01*
X209945564Y-42338632D01*
X210197343Y-42946480D01*
X210492223Y-43078172D01*
X211660395Y-41910000D01*
X212019605Y-41910000D01*
X213187777Y-43078172D01*
X213482657Y-42946480D01*
X213754261Y-42238964D01*
X213734436Y-41481368D01*
X213482657Y-40873520D01*
X213187777Y-40741828D01*
X212019605Y-41910000D01*
X211660395Y-41910000D01*
X210492223Y-40741828D01*
X210197343Y-40873520D01*
X209925739Y-41581036D01*
X165865287Y-41581036D01*
X165865330Y-41532735D01*
X165575922Y-40832314D01*
X165306303Y-40562223D01*
X210671828Y-40562223D01*
X211840000Y-41730395D01*
X212852618Y-40717777D01*
X218291828Y-40717777D01*
X218423520Y-41012657D01*
X219131036Y-41284261D01*
X219888632Y-41264436D01*
X220496480Y-41012657D01*
X220628172Y-40717777D01*
X219460000Y-39549605D01*
X218291828Y-40717777D01*
X212852618Y-40717777D01*
X213008172Y-40562223D01*
X212876480Y-40267343D01*
X212168964Y-39995739D01*
X211411368Y-40015564D01*
X210803520Y-40267343D01*
X210671828Y-40562223D01*
X165306303Y-40562223D01*
X165040505Y-40295961D01*
X164340590Y-40005332D01*
X163582735Y-40004670D01*
X162882314Y-40294078D01*
X162345961Y-40829495D01*
X162055332Y-41529410D01*
X162054670Y-42287265D01*
X153618000Y-42287265D01*
X153618000Y-39747265D01*
X154434670Y-39747265D01*
X154724078Y-40447686D01*
X155259495Y-40984039D01*
X155959410Y-41274668D01*
X156717265Y-41275330D01*
X157417686Y-40985922D01*
X157954039Y-40450505D01*
X158244668Y-39750590D01*
X158245287Y-39041036D01*
X217545739Y-39041036D01*
X217565564Y-39798632D01*
X217817343Y-40406480D01*
X218112223Y-40538172D01*
X219280395Y-39370000D01*
X219639605Y-39370000D01*
X220807777Y-40538172D01*
X221102657Y-40406480D01*
X221374261Y-39698964D01*
X221354436Y-38941368D01*
X221102657Y-38333520D01*
X220807777Y-38201828D01*
X219639605Y-39370000D01*
X219280395Y-39370000D01*
X218112223Y-38201828D01*
X217817343Y-38333520D01*
X217545739Y-39041036D01*
X158245287Y-39041036D01*
X158245330Y-38992735D01*
X157955922Y-38292314D01*
X157420505Y-37755961D01*
X156720590Y-37465332D01*
X155962735Y-37464670D01*
X155262314Y-37754078D01*
X154725961Y-38289495D01*
X154435332Y-38989410D01*
X154434670Y-39747265D01*
X153618000Y-39747265D01*
X153618000Y-37461265D01*
X162054670Y-37461265D01*
X162344078Y-38161686D01*
X162879495Y-38698039D01*
X163579410Y-38988668D01*
X164337265Y-38989330D01*
X165037686Y-38699922D01*
X165560743Y-38177777D01*
X210671828Y-38177777D01*
X210803520Y-38472657D01*
X211511036Y-38744261D01*
X212268632Y-38724436D01*
X212876480Y-38472657D01*
X213008172Y-38177777D01*
X212852618Y-38022223D01*
X218291828Y-38022223D01*
X219460000Y-39190395D01*
X220628172Y-38022223D01*
X220496480Y-37727343D01*
X219788964Y-37455739D01*
X219031368Y-37475564D01*
X218423520Y-37727343D01*
X218291828Y-38022223D01*
X212852618Y-38022223D01*
X211840000Y-37009605D01*
X210671828Y-38177777D01*
X165560743Y-38177777D01*
X165574039Y-38164505D01*
X165864668Y-37464590D01*
X165865330Y-36706735D01*
X165780337Y-36501036D01*
X209925739Y-36501036D01*
X209945564Y-37258632D01*
X210197343Y-37866480D01*
X210492223Y-37998172D01*
X211660395Y-36830000D01*
X212019605Y-36830000D01*
X213187777Y-37998172D01*
X213482657Y-37866480D01*
X213754261Y-37158964D01*
X213734436Y-36401368D01*
X213482657Y-35793520D01*
X213187777Y-35661828D01*
X212019605Y-36830000D01*
X211660395Y-36830000D01*
X210492223Y-35661828D01*
X210197343Y-35793520D01*
X209925739Y-36501036D01*
X165780337Y-36501036D01*
X165575922Y-36006314D01*
X165052746Y-35482223D01*
X210671828Y-35482223D01*
X211840000Y-36650395D01*
X213008172Y-35482223D01*
X212876480Y-35187343D01*
X212168964Y-34915739D01*
X211411368Y-34935564D01*
X210803520Y-35187343D01*
X210671828Y-35482223D01*
X165052746Y-35482223D01*
X165040505Y-35469961D01*
X164340590Y-35179332D01*
X163582735Y-35178670D01*
X162882314Y-35468078D01*
X162345961Y-36003495D01*
X162055332Y-36703410D01*
X162054670Y-37461265D01*
X153618000Y-37461265D01*
X153618000Y-27126000D01*
X165227000Y-27126000D01*
X165227000Y-33528000D01*
M02*
