G04 #@! TF.FileFunction,Copper,L1,Top,Signal*
%FSLAX46Y46*%
G04 Gerber Fmt 4.6, Leading zero omitted, Abs format (unit mm)*
G04 Created by KiCad (PCBNEW 4.0.6) date Fri Aug 18 15:24:34 2017*
%MOMM*%
%LPD*%
G01*
G04 APERTURE LIST*
%ADD10C,0.100000*%
%ADD11R,2.500000X1.100000*%
%ADD12R,5.000000X5.000000*%
%ADD13C,2.540000*%
%ADD14R,1.500000X1.500000*%
%ADD15R,1.700000X1.700000*%
%ADD16O,1.700000X1.700000*%
%ADD17R,1.500000X1.300000*%
%ADD18R,1.300000X1.500000*%
%ADD19C,0.685800*%
%ADD20C,0.635000*%
%ADD21C,1.270000*%
G04 APERTURE END LIST*
D10*
D11*
X184212000Y-35052000D03*
X184212000Y-37052000D03*
X184212000Y-39052000D03*
X184212000Y-41052000D03*
X184212000Y-43052000D03*
X184212000Y-45052000D03*
X184212000Y-47052000D03*
X184212000Y-49052000D03*
X199612000Y-49052000D03*
X199612000Y-47052000D03*
X199612000Y-45052000D03*
X199612000Y-43052000D03*
X199612000Y-41052000D03*
X199612000Y-39052000D03*
X199612000Y-37052000D03*
X199612000Y-35052000D03*
D12*
X168354000Y-29464000D03*
X162354000Y-29464000D03*
X220472000Y-44244000D03*
X220472000Y-50244000D03*
D13*
X156340000Y-39370000D03*
X163960000Y-41910000D03*
X163960000Y-37084000D03*
X219460000Y-39370000D03*
X211840000Y-36830000D03*
X211840000Y-41910000D03*
D14*
X170881000Y-48994000D03*
X166431000Y-48994000D03*
X170881000Y-45494000D03*
X166431000Y-45494000D03*
X162245000Y-48994000D03*
X157795000Y-48994000D03*
X162245000Y-45494000D03*
X157795000Y-45494000D03*
X180025000Y-48994000D03*
X175575000Y-48994000D03*
X180025000Y-45494000D03*
X175575000Y-45494000D03*
D12*
X155956000Y-29464000D03*
D15*
X221488000Y-28448000D03*
D16*
X218948000Y-28448000D03*
X216408000Y-28448000D03*
X213868000Y-28448000D03*
X211328000Y-28448000D03*
X208788000Y-28448000D03*
D12*
X205740000Y-50165000D03*
X212725000Y-50165000D03*
D17*
X171276000Y-38100000D03*
X168576000Y-38100000D03*
X171276000Y-34798000D03*
X168576000Y-34798000D03*
D18*
X205994000Y-39544000D03*
X205994000Y-42244000D03*
D17*
X203374000Y-34544000D03*
X206074000Y-34544000D03*
D18*
X208534000Y-42244000D03*
X208534000Y-39544000D03*
D12*
X220472000Y-34544000D03*
X174498000Y-29464000D03*
D19*
X204216000Y-44704000D03*
X195072000Y-44704000D03*
X216408000Y-32258000D03*
X216408000Y-34036000D03*
X198882000Y-49022000D03*
X162306000Y-29464000D03*
X168402000Y-34798000D03*
X177800000Y-49022000D03*
X168656000Y-49022000D03*
X160020000Y-49022000D03*
X220472000Y-50292000D03*
X208534000Y-39370000D03*
D20*
X206074000Y-34544000D02*
X216408000Y-34544000D01*
X216408000Y-34544000D02*
X216408000Y-34798000D01*
X206074000Y-34544000D02*
X206074000Y-39464000D01*
X206074000Y-39464000D02*
X205994000Y-39544000D01*
X184912000Y-49052000D02*
X190754000Y-49022000D01*
X216408000Y-35814000D02*
X216408000Y-34798000D01*
X216408000Y-40640000D02*
X216408000Y-35814000D01*
X216408000Y-42164000D02*
X216408000Y-40640000D01*
X213868000Y-44704000D02*
X216408000Y-42164000D01*
X204216000Y-44704000D02*
X213868000Y-44704000D01*
X190754000Y-49022000D02*
X195072000Y-44704000D01*
X163960000Y-41910000D02*
X171958000Y-41910000D01*
X174816000Y-39052000D02*
X184912000Y-39052000D01*
X171958000Y-41910000D02*
X174816000Y-39052000D01*
X216408000Y-34798000D02*
X216408000Y-34036000D01*
X216408000Y-32258000D02*
X216408000Y-28448000D01*
X156340000Y-39370000D02*
X156340000Y-39748000D01*
X156340000Y-39748000D02*
X155194000Y-40894000D01*
X181864000Y-51308000D02*
X184120000Y-49052000D01*
X156210000Y-51308000D02*
X181864000Y-51308000D01*
X155194000Y-50292000D02*
X156210000Y-51308000D01*
X155194000Y-40894000D02*
X155194000Y-50292000D01*
X184120000Y-49052000D02*
X184912000Y-49052000D01*
X156340000Y-39370000D02*
X161674000Y-39370000D01*
X161674000Y-39370000D02*
X163960000Y-37084000D01*
X163960000Y-37084000D02*
X163960000Y-41910000D01*
D21*
X180025000Y-48994000D02*
X177828000Y-48994000D01*
X177772000Y-48994000D02*
X177800000Y-49022000D01*
X177772000Y-48994000D02*
X175575000Y-48994000D01*
X177828000Y-48994000D02*
X177800000Y-49022000D01*
X170881000Y-48994000D02*
X175575000Y-48994000D01*
X170881000Y-48994000D02*
X168684000Y-48994000D01*
X168628000Y-48994000D02*
X168656000Y-49022000D01*
X168628000Y-48994000D02*
X166431000Y-48994000D01*
X168684000Y-48994000D02*
X168656000Y-49022000D01*
X162245000Y-48994000D02*
X166431000Y-48994000D01*
X162245000Y-48994000D02*
X160048000Y-48994000D01*
X159992000Y-48994000D02*
X157795000Y-48994000D01*
X159992000Y-48994000D02*
X160020000Y-49022000D01*
X160048000Y-48994000D02*
X160020000Y-49022000D01*
D20*
X184912000Y-45052000D02*
X182466000Y-45052000D01*
X172433000Y-43942000D02*
X170881000Y-45494000D01*
X181356000Y-43942000D02*
X172433000Y-43942000D01*
X182466000Y-45052000D02*
X181356000Y-43942000D01*
X166431000Y-45494000D02*
X170881000Y-45494000D01*
X162245000Y-45494000D02*
X163548000Y-45494000D01*
X165990000Y-43052000D02*
X184912000Y-43052000D01*
X163548000Y-45494000D02*
X165990000Y-43052000D01*
X157795000Y-45494000D02*
X162245000Y-45494000D01*
X175575000Y-45494000D02*
X180025000Y-45494000D01*
X180025000Y-45494000D02*
X181583000Y-47052000D01*
X181583000Y-47052000D02*
X184912000Y-47052000D01*
X155956000Y-29464000D02*
X155956000Y-31242000D01*
X155956000Y-31242000D02*
X159512000Y-34798000D01*
X159512000Y-34798000D02*
X165274000Y-34798000D01*
X165274000Y-34798000D02*
X168576000Y-38100000D01*
X184912000Y-41052000D02*
X185516000Y-41052000D01*
X186436000Y-36068000D02*
X185420000Y-35052000D01*
X186436000Y-40132000D02*
X186436000Y-36068000D01*
X185516000Y-41052000D02*
X186436000Y-40132000D01*
X185420000Y-35052000D02*
X184912000Y-35052000D01*
X168354000Y-29464000D02*
X168354000Y-29924000D01*
X168354000Y-29924000D02*
X171196000Y-32766000D01*
X171196000Y-32766000D02*
X176784000Y-32766000D01*
X176784000Y-32766000D02*
X179070000Y-35052000D01*
X179070000Y-35052000D02*
X179578000Y-35052000D01*
X179578000Y-35052000D02*
X181864000Y-35052000D01*
X181864000Y-35052000D02*
X184912000Y-35052000D01*
X213868000Y-28448000D02*
X213868000Y-33147000D01*
X213868000Y-33147000D02*
X213868000Y-33020000D01*
X213868000Y-33020000D02*
X213868000Y-33147000D01*
X198912000Y-37052000D02*
X200946000Y-37052000D01*
X202311000Y-33147000D02*
X213868000Y-33147000D01*
X213868000Y-33147000D02*
X219075000Y-33147000D01*
X201930000Y-33528000D02*
X202311000Y-33147000D01*
X201930000Y-36068000D02*
X201930000Y-33528000D01*
X200946000Y-37052000D02*
X201930000Y-36068000D01*
X219075000Y-33147000D02*
X220472000Y-34544000D01*
X198912000Y-35052000D02*
X200279000Y-35052000D01*
X200279000Y-35052000D02*
X201142598Y-34188402D01*
X211328000Y-31750000D02*
X211328000Y-28448000D01*
X210718402Y-32359598D02*
X211328000Y-31750000D01*
X201955402Y-32359598D02*
X210718402Y-32359598D01*
X201142598Y-33172402D02*
X201955402Y-32359598D01*
X201142598Y-34188402D02*
X201142598Y-33172402D01*
X198912000Y-35052000D02*
X199771000Y-35052000D01*
X198912000Y-35052000D02*
X199898000Y-35052000D01*
X174498000Y-29464000D02*
X175768000Y-29464000D01*
X175768000Y-29464000D02*
X180086000Y-33782000D01*
X180086000Y-33782000D02*
X197612000Y-33782000D01*
X197612000Y-33782000D02*
X198882000Y-35052000D01*
X198882000Y-35052000D02*
X198912000Y-35052000D01*
X205740000Y-50165000D02*
X203615000Y-50165000D01*
X203615000Y-50165000D02*
X201890000Y-51890000D01*
X201890000Y-51890000D02*
X197230000Y-51890000D01*
X197230000Y-51890000D02*
X195990000Y-50650000D01*
X195990000Y-50650000D02*
X195990000Y-39990000D01*
X195990000Y-39990000D02*
X196928000Y-39052000D01*
X196928000Y-39052000D02*
X198912000Y-39052000D01*
X198848000Y-39116000D02*
X198912000Y-39052000D01*
X212725000Y-50165000D02*
X212725000Y-46985000D01*
X197698000Y-41052000D02*
X198912000Y-41052000D01*
X196810000Y-41940000D02*
X197698000Y-41052000D01*
X196810000Y-50350000D02*
X196810000Y-41940000D01*
X197560000Y-51100000D02*
X196810000Y-50350000D01*
X201520000Y-51100000D02*
X197560000Y-51100000D01*
X202480000Y-50140000D02*
X201520000Y-51100000D01*
X202480000Y-47553554D02*
X202480000Y-50140000D01*
X203396152Y-46637402D02*
X202480000Y-47553554D01*
X212377402Y-46637402D02*
X203396152Y-46637402D01*
X212725000Y-46985000D02*
X212377402Y-46637402D01*
X198912000Y-43052000D02*
X201550000Y-43052000D01*
X203374000Y-41228000D02*
X203374000Y-34544000D01*
X201550000Y-43052000D02*
X203374000Y-41228000D01*
X198912000Y-43052000D02*
X197994000Y-43052000D01*
X215716000Y-44244000D02*
X220472000Y-44244000D01*
X214110000Y-45850000D02*
X215716000Y-44244000D01*
X203070000Y-45850000D02*
X214110000Y-45850000D01*
X201676000Y-47244000D02*
X203070000Y-45850000D01*
X201676000Y-49784000D02*
X201676000Y-47244000D01*
X201168000Y-50292000D02*
X201676000Y-49784000D01*
X197866000Y-50292000D02*
X201168000Y-50292000D01*
X197612000Y-50038000D02*
X197866000Y-50292000D01*
X197612000Y-43434000D02*
X197612000Y-50038000D01*
X197994000Y-43052000D02*
X197612000Y-43434000D01*
X171276000Y-38100000D02*
X181610000Y-38100000D01*
X182658000Y-37052000D02*
X184912000Y-37052000D01*
X181610000Y-38100000D02*
X182658000Y-37052000D01*
X171276000Y-34798000D02*
X171276000Y-38100000D01*
X205994000Y-42244000D02*
X203628000Y-42244000D01*
X203628000Y-42244000D02*
X200820000Y-45052000D01*
X200820000Y-45052000D02*
X198912000Y-45052000D01*
X208534000Y-42244000D02*
X208534000Y-42926000D01*
X208534000Y-42926000D02*
X207772000Y-43688000D01*
X207772000Y-43688000D02*
X203962000Y-43688000D01*
X203962000Y-43688000D02*
X200598000Y-47052000D01*
X200598000Y-47052000D02*
X198912000Y-47052000D01*
M02*
