G04 #@! TF.FileFunction,Legend,Bot*
%FSLAX46Y46*%
G04 Gerber Fmt 4.6, Leading zero omitted, Abs format (unit mm)*
G04 Created by KiCad (PCBNEW 4.0.6) date Fri Aug 18 15:25:10 2017*
%MOMM*%
%LPD*%
G01*
G04 APERTURE LIST*
%ADD10C,0.100000*%
%ADD11C,0.300000*%
%ADD12C,0.500000*%
%ADD13C,0.010000*%
G04 APERTURE END LIST*
D10*
D11*
X199960001Y-46053714D02*
X199626667Y-45768000D01*
X198960001Y-45482286D01*
X197293334Y-45482286D01*
X196626667Y-45768000D01*
X196293334Y-46053714D01*
X195960001Y-46625143D01*
X195960001Y-47196571D01*
X196293334Y-48053714D01*
X200293334Y-51482286D01*
X195960001Y-51482286D01*
X191626667Y-45482286D02*
X190960000Y-45482286D01*
X190293334Y-45768000D01*
X189960000Y-46053714D01*
X189626667Y-46625143D01*
X189293334Y-47768000D01*
X189293334Y-49196571D01*
X189626667Y-50339429D01*
X189960000Y-50910857D01*
X190293334Y-51196571D01*
X190960000Y-51482286D01*
X191626667Y-51482286D01*
X192293334Y-51196571D01*
X192626667Y-50910857D01*
X192960000Y-50339429D01*
X193293334Y-49196571D01*
X193293334Y-47768000D01*
X192960000Y-46625143D01*
X192626667Y-46053714D01*
X192293334Y-45768000D01*
X191626667Y-45482286D01*
X182626667Y-51482286D02*
X186626667Y-51482286D01*
X184626667Y-51482286D02*
X184626667Y-45482286D01*
X185293333Y-46339429D01*
X185960000Y-46910857D01*
X186626667Y-47196571D01*
X180293333Y-45482286D02*
X175626666Y-45482286D01*
X178626666Y-51482286D01*
X222292285Y-46976000D02*
X221577999Y-46976000D01*
X222435142Y-47404571D02*
X221935142Y-45904571D01*
X221435142Y-47404571D01*
X220935142Y-47404571D02*
X220935142Y-45904571D01*
X220077999Y-47404571D01*
X220077999Y-45904571D01*
X219435142Y-46976000D02*
X218720856Y-46976000D01*
X219577999Y-47404571D02*
X219077999Y-45904571D01*
X218577999Y-47404571D01*
X217363713Y-47404571D02*
X218077999Y-47404571D01*
X218077999Y-45904571D01*
X216577999Y-45904571D02*
X216292285Y-45904571D01*
X216149427Y-45976000D01*
X216006570Y-46118857D01*
X215935142Y-46404571D01*
X215935142Y-46904571D01*
X216006570Y-47190286D01*
X216149427Y-47333143D01*
X216292285Y-47404571D01*
X216577999Y-47404571D01*
X216720856Y-47333143D01*
X216863713Y-47190286D01*
X216935142Y-46904571D01*
X216935142Y-46404571D01*
X216863713Y-46118857D01*
X216720856Y-45976000D01*
X216577999Y-45904571D01*
X214506570Y-45976000D02*
X214649427Y-45904571D01*
X214863713Y-45904571D01*
X215077998Y-45976000D01*
X215220856Y-46118857D01*
X215292284Y-46261714D01*
X215363713Y-46547429D01*
X215363713Y-46761714D01*
X215292284Y-47047429D01*
X215220856Y-47190286D01*
X215077998Y-47333143D01*
X214863713Y-47404571D01*
X214720856Y-47404571D01*
X214506570Y-47333143D01*
X214435141Y-47261714D01*
X214435141Y-46761714D01*
X214720856Y-46761714D01*
X212792284Y-45904571D02*
X211863713Y-45904571D01*
X212363713Y-46476000D01*
X212149427Y-46476000D01*
X212006570Y-46547429D01*
X211935141Y-46618857D01*
X211863713Y-46761714D01*
X211863713Y-47118857D01*
X211935141Y-47261714D01*
X212006570Y-47333143D01*
X212149427Y-47404571D01*
X212577999Y-47404571D01*
X212720856Y-47333143D01*
X212792284Y-47261714D01*
X211220856Y-47261714D02*
X211149428Y-47333143D01*
X211220856Y-47404571D01*
X211292285Y-47333143D01*
X211220856Y-47261714D01*
X211220856Y-47404571D01*
X210649427Y-45904571D02*
X209720856Y-45904571D01*
X210220856Y-46476000D01*
X210006570Y-46476000D01*
X209863713Y-46547429D01*
X209792284Y-46618857D01*
X209720856Y-46761714D01*
X209720856Y-47118857D01*
X209792284Y-47261714D01*
X209863713Y-47333143D01*
X210006570Y-47404571D01*
X210435142Y-47404571D01*
X210577999Y-47333143D01*
X210649427Y-47261714D01*
X209220856Y-46404571D02*
X208863713Y-47404571D01*
X208506571Y-46404571D01*
X207006571Y-46404571D02*
X206435142Y-46404571D01*
X206792285Y-45904571D02*
X206792285Y-47190286D01*
X206720857Y-47333143D01*
X206577999Y-47404571D01*
X206435142Y-47404571D01*
X205720856Y-47404571D02*
X205863714Y-47333143D01*
X205935142Y-47261714D01*
X206006571Y-47118857D01*
X206006571Y-46690286D01*
X205935142Y-46547429D01*
X205863714Y-46476000D01*
X205720856Y-46404571D01*
X205506571Y-46404571D01*
X205363714Y-46476000D01*
X205292285Y-46547429D01*
X205220856Y-46690286D01*
X205220856Y-47118857D01*
X205292285Y-47261714D01*
X205363714Y-47333143D01*
X205506571Y-47404571D01*
X205720856Y-47404571D01*
X202649428Y-47404571D02*
X203506571Y-47404571D01*
X203077999Y-47404571D02*
X203077999Y-45904571D01*
X203220856Y-46118857D01*
X203363714Y-46261714D01*
X203506571Y-46333143D01*
X202149428Y-46404571D02*
X201792285Y-47404571D01*
X201435143Y-46404571D01*
X215685142Y-49954571D02*
X216185142Y-49240286D01*
X216542285Y-49954571D02*
X216542285Y-48454571D01*
X215970857Y-48454571D01*
X215827999Y-48526000D01*
X215756571Y-48597429D01*
X215685142Y-48740286D01*
X215685142Y-48954571D01*
X215756571Y-49097429D01*
X215827999Y-49168857D01*
X215970857Y-49240286D01*
X216542285Y-49240286D01*
X215113714Y-48597429D02*
X215042285Y-48526000D01*
X214899428Y-48454571D01*
X214542285Y-48454571D01*
X214399428Y-48526000D01*
X214327999Y-48597429D01*
X214256571Y-48740286D01*
X214256571Y-48883143D01*
X214327999Y-49097429D01*
X215185142Y-49954571D01*
X214256571Y-49954571D01*
X212470857Y-49168857D02*
X211328000Y-49168857D01*
X211328000Y-49597429D02*
X212470857Y-49597429D01*
X208685143Y-49954571D02*
X209542286Y-49954571D01*
X209113714Y-49954571D02*
X209113714Y-48454571D01*
X209256571Y-48668857D01*
X209399429Y-48811714D01*
X209542286Y-48883143D01*
X207756572Y-48454571D02*
X207613715Y-48454571D01*
X207470858Y-48526000D01*
X207399429Y-48597429D01*
X207328000Y-48740286D01*
X207256572Y-49026000D01*
X207256572Y-49383143D01*
X207328000Y-49668857D01*
X207399429Y-49811714D01*
X207470858Y-49883143D01*
X207613715Y-49954571D01*
X207756572Y-49954571D01*
X207899429Y-49883143D01*
X207970858Y-49811714D01*
X208042286Y-49668857D01*
X208113715Y-49383143D01*
X208113715Y-49026000D01*
X208042286Y-48740286D01*
X207970858Y-48597429D01*
X207899429Y-48526000D01*
X207756572Y-48454571D01*
X206613715Y-49954571D02*
X206613715Y-48454571D01*
X206470858Y-49383143D02*
X206042287Y-49954571D01*
X206042287Y-48954571D02*
X206613715Y-49526000D01*
X215685142Y-52504571D02*
X216185142Y-51790286D01*
X216542285Y-52504571D02*
X216542285Y-51004571D01*
X215970857Y-51004571D01*
X215827999Y-51076000D01*
X215756571Y-51147429D01*
X215685142Y-51290286D01*
X215685142Y-51504571D01*
X215756571Y-51647429D01*
X215827999Y-51718857D01*
X215970857Y-51790286D01*
X216542285Y-51790286D01*
X214256571Y-52504571D02*
X215113714Y-52504571D01*
X214685142Y-52504571D02*
X214685142Y-51004571D01*
X214827999Y-51218857D01*
X214970857Y-51361714D01*
X215113714Y-51433143D01*
X212470857Y-51718857D02*
X211328000Y-51718857D01*
X211328000Y-52147429D02*
X212470857Y-52147429D01*
X209542286Y-51147429D02*
X209470857Y-51076000D01*
X209328000Y-51004571D01*
X208970857Y-51004571D01*
X208828000Y-51076000D01*
X208756571Y-51147429D01*
X208685143Y-51290286D01*
X208685143Y-51433143D01*
X208756571Y-51647429D01*
X209613714Y-52504571D01*
X208685143Y-52504571D01*
X207328000Y-51004571D02*
X208042286Y-51004571D01*
X208113715Y-51718857D01*
X208042286Y-51647429D01*
X207899429Y-51576000D01*
X207542286Y-51576000D01*
X207399429Y-51647429D01*
X207328000Y-51718857D01*
X207256572Y-51861714D01*
X207256572Y-52218857D01*
X207328000Y-52361714D01*
X207399429Y-52433143D01*
X207542286Y-52504571D01*
X207899429Y-52504571D01*
X208042286Y-52433143D01*
X208113715Y-52361714D01*
X206613715Y-52504571D02*
X206613715Y-51004571D01*
X206470858Y-51933143D02*
X206042287Y-52504571D01*
X206042287Y-51504571D02*
X206613715Y-52076000D01*
D12*
X167513143Y-39584286D02*
X169798857Y-39584286D01*
X168656000Y-40727143D02*
X168656000Y-38441429D01*
X205867143Y-39584286D02*
X208152857Y-39584286D01*
D11*
X200626667Y-31067429D02*
X202960000Y-31067429D01*
X202960000Y-34210286D02*
X202960000Y-28210286D01*
X199626667Y-28210286D01*
X197293334Y-33924571D02*
X196293334Y-34210286D01*
X194626667Y-34210286D01*
X193960000Y-33924571D01*
X193626667Y-33638857D01*
X193293334Y-33067429D01*
X193293334Y-32496000D01*
X193626667Y-31924571D01*
X193960000Y-31638857D01*
X194626667Y-31353143D01*
X195960000Y-31067429D01*
X196626667Y-30781714D01*
X196960000Y-30496000D01*
X197293334Y-29924571D01*
X197293334Y-29353143D01*
X196960000Y-28781714D01*
X196626667Y-28496000D01*
X195960000Y-28210286D01*
X194293334Y-28210286D01*
X193293334Y-28496000D01*
X188960000Y-28210286D02*
X187626667Y-28210286D01*
X186960000Y-28496000D01*
X186293333Y-29067429D01*
X185960000Y-30210286D01*
X185960000Y-32210286D01*
X186293333Y-33353143D01*
X186960000Y-33924571D01*
X187626667Y-34210286D01*
X188960000Y-34210286D01*
X189626667Y-33924571D01*
X190293333Y-33353143D01*
X190626667Y-32210286D01*
X190626667Y-30210286D01*
X190293333Y-29067429D01*
X189626667Y-28496000D01*
X188960000Y-28210286D01*
X183293334Y-33924571D02*
X182293334Y-34210286D01*
X180626667Y-34210286D01*
X179960000Y-33924571D01*
X179626667Y-33638857D01*
X179293334Y-33067429D01*
X179293334Y-32496000D01*
X179626667Y-31924571D01*
X179960000Y-31638857D01*
X180626667Y-31353143D01*
X181960000Y-31067429D01*
X182626667Y-30781714D01*
X182960000Y-30496000D01*
X183293334Y-29924571D01*
X183293334Y-29353143D01*
X182960000Y-28781714D01*
X182626667Y-28496000D01*
X181960000Y-28210286D01*
X180293334Y-28210286D01*
X179293334Y-28496000D01*
X176626667Y-33924571D02*
X175626667Y-34210286D01*
X173960000Y-34210286D01*
X173293333Y-33924571D01*
X172960000Y-33638857D01*
X172626667Y-33067429D01*
X172626667Y-32496000D01*
X172960000Y-31924571D01*
X173293333Y-31638857D01*
X173960000Y-31353143D01*
X175293333Y-31067429D01*
X175960000Y-30781714D01*
X176293333Y-30496000D01*
X176626667Y-29924571D01*
X176626667Y-29353143D01*
X176293333Y-28781714D01*
X175960000Y-28496000D01*
X175293333Y-28210286D01*
X173626667Y-28210286D01*
X172626667Y-28496000D01*
D13*
G36*
X158722124Y-52183344D02*
X158305798Y-52138507D01*
X157906862Y-52051580D01*
X157471588Y-51913148D01*
X157353000Y-51870202D01*
X157139678Y-51773506D01*
X156884556Y-51630441D01*
X156609531Y-51456749D01*
X156336497Y-51268170D01*
X156087348Y-51080447D01*
X155883980Y-50909320D01*
X155748285Y-50770530D01*
X155702000Y-50683211D01*
X155731215Y-50614059D01*
X155811884Y-50653520D01*
X155874334Y-50720625D01*
X155926881Y-50773628D01*
X155916770Y-50736500D01*
X155893350Y-50675139D01*
X155942686Y-50702217D01*
X155974862Y-50727820D01*
X156043322Y-50823121D01*
X156042851Y-50831750D01*
X156019500Y-50831750D01*
X155987750Y-50800000D01*
X155956000Y-50831750D01*
X155987750Y-50863500D01*
X156019500Y-50831750D01*
X156042851Y-50831750D01*
X156040134Y-50881487D01*
X156045388Y-50922063D01*
X156099691Y-50909816D01*
X156218546Y-50922932D01*
X156284733Y-50978400D01*
X156336223Y-51051874D01*
X156300889Y-51041385D01*
X156270508Y-51022250D01*
X156236650Y-51009916D01*
X156292406Y-51068947D01*
X156293418Y-51069875D01*
X156500708Y-51182915D01*
X156670375Y-51188520D01*
X156715660Y-51229942D01*
X156718000Y-51251294D01*
X156763751Y-51294890D01*
X156807995Y-51287054D01*
X156905236Y-51304366D01*
X156933002Y-51343760D01*
X157009675Y-51424951D01*
X157049383Y-51434028D01*
X157088341Y-51413688D01*
X157035500Y-51364538D01*
X156979735Y-51317308D01*
X157035046Y-51326910D01*
X157056569Y-51333760D01*
X157168009Y-51365421D01*
X157203192Y-51371501D01*
X157207366Y-51411736D01*
X157198712Y-51427781D01*
X157221142Y-51485692D01*
X157290302Y-51517109D01*
X157375800Y-51521089D01*
X157381091Y-51492579D01*
X157404126Y-51447572D01*
X157480000Y-51435000D01*
X157573098Y-51460035D01*
X157569527Y-51507762D01*
X157572904Y-51552433D01*
X157680421Y-51541269D01*
X157698100Y-51536966D01*
X157811018Y-51521539D01*
X157839470Y-51545464D01*
X157839358Y-51545646D01*
X157883170Y-51569011D01*
X158027586Y-51587801D01*
X158246224Y-51599254D01*
X158371139Y-51601342D01*
X158623348Y-51597023D01*
X158806118Y-51582242D01*
X158895829Y-51559402D01*
X158899851Y-51547601D01*
X158929795Y-51520437D01*
X159054720Y-51527007D01*
X159102179Y-51534990D01*
X159261552Y-51552718D01*
X159303901Y-51523914D01*
X159298842Y-51513211D01*
X159310757Y-51472324D01*
X159394842Y-51482675D01*
X159489164Y-51492936D01*
X159483361Y-51440180D01*
X159479763Y-51434212D01*
X159465390Y-51376923D01*
X159531544Y-51389780D01*
X159647603Y-51399569D01*
X159791926Y-51372016D01*
X159919896Y-51321955D01*
X159986897Y-51264222D01*
X159984877Y-51239042D01*
X160001846Y-51210574D01*
X160058869Y-51224269D01*
X160133274Y-51234802D01*
X160122369Y-51192519D01*
X160119532Y-51143427D01*
X160161400Y-51151379D01*
X160270768Y-51139941D01*
X160371073Y-51082443D01*
X160433546Y-51024036D01*
X160407064Y-51027353D01*
X160348827Y-51039379D01*
X160361473Y-51003085D01*
X160450275Y-50956281D01*
X160482444Y-50962239D01*
X160570011Y-50940441D01*
X160715539Y-50852943D01*
X160890787Y-50723199D01*
X161067515Y-50574662D01*
X161217480Y-50430784D01*
X161312441Y-50315018D01*
X161329865Y-50258499D01*
X161347583Y-50156597D01*
X161404900Y-50090268D01*
X161475855Y-50038852D01*
X161463609Y-50069768D01*
X161417000Y-50133250D01*
X161355554Y-50219710D01*
X161376947Y-50215709D01*
X161435765Y-50170702D01*
X161513203Y-50068344D01*
X161517914Y-49998111D01*
X161530386Y-49896831D01*
X161556585Y-49871473D01*
X161598170Y-49868768D01*
X161580853Y-49917064D01*
X161579151Y-49942665D01*
X161639607Y-49879250D01*
X161767594Y-49695910D01*
X161883516Y-49481593D01*
X161970766Y-49273746D01*
X162012739Y-49109813D01*
X162008786Y-49046773D01*
X161998439Y-48972145D01*
X162039348Y-48982431D01*
X162101914Y-48966394D01*
X162150988Y-48868071D01*
X162172849Y-48732173D01*
X162154826Y-48606094D01*
X162148285Y-48539187D01*
X162172509Y-48541738D01*
X162229856Y-48518931D01*
X162261109Y-48449699D01*
X162265089Y-48364201D01*
X162236579Y-48358910D01*
X162187667Y-48340436D01*
X162179001Y-48291751D01*
X162208405Y-48222835D01*
X162241427Y-48227587D01*
X162275113Y-48211738D01*
X162296609Y-48106481D01*
X162307083Y-47899736D01*
X162307182Y-47848432D01*
X162337750Y-47879000D01*
X162369500Y-47847250D01*
X162337750Y-47815500D01*
X162307187Y-47846063D01*
X162307701Y-47579419D01*
X162307325Y-47545625D01*
X162296872Y-47278359D01*
X162272432Y-47129837D01*
X162232610Y-47092428D01*
X162225127Y-47095988D01*
X162194682Y-47070833D01*
X162206626Y-46946085D01*
X162210751Y-46926500D01*
X162228157Y-46787236D01*
X162197088Y-46756865D01*
X162192445Y-46759442D01*
X162120212Y-46745440D01*
X162090404Y-46698692D01*
X162055043Y-46579254D01*
X162070306Y-46553611D01*
X162115501Y-46609000D01*
X162164795Y-46668277D01*
X162177815Y-46610503D01*
X162178028Y-46596113D01*
X162154145Y-46450870D01*
X162095027Y-46311199D01*
X162023090Y-46218794D01*
X161969404Y-46208053D01*
X161936320Y-46206282D01*
X161952530Y-46171329D01*
X161951693Y-46084158D01*
X161910181Y-45933277D01*
X161845124Y-45762261D01*
X161773654Y-45614683D01*
X161712902Y-45534116D01*
X161700191Y-45529500D01*
X161699645Y-45577078D01*
X161740039Y-45672375D01*
X161782273Y-45765566D01*
X161758331Y-45762121D01*
X161733806Y-45740109D01*
X161665404Y-45619130D01*
X161644086Y-45517859D01*
X161603648Y-45405684D01*
X161541428Y-45391917D01*
X161484040Y-45387871D01*
X161494141Y-45367693D01*
X161508707Y-45284867D01*
X161461823Y-45185052D01*
X161387243Y-45121612D01*
X161340503Y-45124783D01*
X161299634Y-45129009D01*
X161310202Y-45103687D01*
X161290029Y-45028202D01*
X161195914Y-44905557D01*
X161057000Y-44762769D01*
X160902433Y-44626855D01*
X160761357Y-44524829D01*
X160662915Y-44483709D01*
X160645567Y-44487581D01*
X160601718Y-44495458D01*
X160617187Y-44459812D01*
X160611119Y-44394937D01*
X160509033Y-44373556D01*
X160443906Y-44380554D01*
X160419243Y-44350173D01*
X160429505Y-44328253D01*
X160406381Y-44265629D01*
X160303015Y-44192557D01*
X160162448Y-44129085D01*
X160027723Y-44095262D01*
X159949881Y-44104841D01*
X159903737Y-44116112D01*
X159925356Y-44068021D01*
X159939620Y-44011403D01*
X159868369Y-44025732D01*
X159794657Y-44035452D01*
X159796700Y-44007200D01*
X159766528Y-43956712D01*
X159645411Y-43898708D01*
X159468269Y-43842607D01*
X159270022Y-43797826D01*
X159085592Y-43773783D01*
X158951985Y-43779397D01*
X158847746Y-43795370D01*
X158860022Y-43767069D01*
X158871032Y-43759434D01*
X158857551Y-43732568D01*
X158749231Y-43711921D01*
X158578121Y-43698327D01*
X158376269Y-43692618D01*
X158175721Y-43695630D01*
X158008525Y-43708193D01*
X157957264Y-43719750D01*
X157861000Y-43719750D01*
X157829250Y-43688000D01*
X157797500Y-43719750D01*
X157829250Y-43751500D01*
X157861000Y-43719750D01*
X157957264Y-43719750D01*
X157906729Y-43731143D01*
X157901096Y-43734215D01*
X157789797Y-43761240D01*
X157638789Y-43762289D01*
X157518188Y-43759350D01*
X157508473Y-43786780D01*
X157543500Y-43816413D01*
X157594446Y-43863254D01*
X157537756Y-43858145D01*
X157501276Y-43848345D01*
X157351899Y-43831972D01*
X157203769Y-43851858D01*
X157098222Y-43897139D01*
X157076595Y-43956950D01*
X157078106Y-43959565D01*
X157073052Y-44000058D01*
X157013045Y-43986104D01*
X156905638Y-43984253D01*
X156758809Y-44023328D01*
X156614847Y-44085545D01*
X156516041Y-44153118D01*
X156499506Y-44202077D01*
X156483475Y-44273051D01*
X156455225Y-44296674D01*
X156410689Y-44305225D01*
X156426187Y-44269312D01*
X156438145Y-44204154D01*
X156420123Y-44196973D01*
X156299196Y-44241407D01*
X156200277Y-44336379D01*
X156176825Y-44400059D01*
X156161860Y-44418250D01*
X156146500Y-44418250D01*
X156114750Y-44386500D01*
X156083000Y-44418250D01*
X156114750Y-44450000D01*
X156146500Y-44418250D01*
X156161860Y-44418250D01*
X156125753Y-44462139D01*
X156074171Y-44465037D01*
X155957495Y-44496893D01*
X155885097Y-44560287D01*
X155830268Y-44635115D01*
X155859053Y-44624849D01*
X155924250Y-44577000D01*
X156010565Y-44515705D01*
X156007202Y-44536419D01*
X155964681Y-44592176D01*
X155874016Y-44665406D01*
X155820197Y-44666810D01*
X155745453Y-44686054D01*
X155627487Y-44773838D01*
X155499322Y-44897139D01*
X155393982Y-45022932D01*
X155344492Y-45118192D01*
X155347310Y-45139697D01*
X155332820Y-45218849D01*
X155272676Y-45284181D01*
X155199137Y-45337876D01*
X155210049Y-45308400D01*
X155257500Y-45243750D01*
X155318947Y-45157291D01*
X155297554Y-45161292D01*
X155238736Y-45206299D01*
X155161298Y-45308657D01*
X155156587Y-45378890D01*
X155144115Y-45480170D01*
X155117916Y-45505528D01*
X155078004Y-45510823D01*
X155098750Y-45466001D01*
X155115451Y-45412808D01*
X155075604Y-45428933D01*
X155005818Y-45507863D01*
X154915424Y-45653753D01*
X154823418Y-45828799D01*
X154748794Y-45995196D01*
X154710546Y-46115141D01*
X154713481Y-46149648D01*
X154745746Y-46134769D01*
X154749500Y-46101000D01*
X154768130Y-46043638D01*
X154782745Y-46049579D01*
X154797270Y-46128524D01*
X154754144Y-46216764D01*
X154687174Y-46255264D01*
X154668556Y-46248969D01*
X154628125Y-46254003D01*
X154642732Y-46316132D01*
X154652450Y-46390037D01*
X154622729Y-46386892D01*
X154588127Y-46411242D01*
X154593914Y-46539060D01*
X154597053Y-46558219D01*
X154613345Y-46688370D01*
X154593729Y-46709931D01*
X154559375Y-46672500D01*
X154510403Y-46625614D01*
X154503666Y-46681909D01*
X154513106Y-46749954D01*
X154516457Y-46862809D01*
X154486327Y-46889081D01*
X154438631Y-46789944D01*
X154438122Y-46598211D01*
X154479440Y-46336902D01*
X154557222Y-46029038D01*
X154666106Y-45697641D01*
X154800729Y-45365732D01*
X154880046Y-45198747D01*
X155234487Y-44611292D01*
X155676506Y-44068708D01*
X156184021Y-43591977D01*
X156734951Y-43202081D01*
X157257750Y-42939483D01*
X157552414Y-42821636D01*
X157784424Y-42735783D01*
X157983519Y-42676964D01*
X158179439Y-42640218D01*
X158401920Y-42620584D01*
X158680704Y-42613102D01*
X159045527Y-42612810D01*
X159211661Y-42613547D01*
X159630110Y-42617370D01*
X159947410Y-42626091D01*
X160189390Y-42642198D01*
X160381877Y-42668176D01*
X160550701Y-42706511D01*
X160718500Y-42758608D01*
X161420402Y-43061369D01*
X162064783Y-43468308D01*
X162639170Y-43966756D01*
X163131096Y-44544043D01*
X163528088Y-45187499D01*
X163817676Y-45884456D01*
X163828367Y-45918100D01*
X163892531Y-46210390D01*
X163937106Y-46593238D01*
X163962055Y-47033349D01*
X163967345Y-47497432D01*
X163952939Y-47952192D01*
X163918804Y-48364338D01*
X163864904Y-48700576D01*
X163831422Y-48827052D01*
X163550137Y-49536767D01*
X163182795Y-50160794D01*
X162717682Y-50715530D01*
X162143087Y-51217370D01*
X162101617Y-51248589D01*
X161557041Y-51615941D01*
X161029051Y-51883700D01*
X160485252Y-52062471D01*
X159893249Y-52162862D01*
X159220648Y-52195478D01*
X159209572Y-52195506D01*
X158722124Y-52183344D01*
X158722124Y-52183344D01*
G37*
X158722124Y-52183344D02*
X158305798Y-52138507D01*
X157906862Y-52051580D01*
X157471588Y-51913148D01*
X157353000Y-51870202D01*
X157139678Y-51773506D01*
X156884556Y-51630441D01*
X156609531Y-51456749D01*
X156336497Y-51268170D01*
X156087348Y-51080447D01*
X155883980Y-50909320D01*
X155748285Y-50770530D01*
X155702000Y-50683211D01*
X155731215Y-50614059D01*
X155811884Y-50653520D01*
X155874334Y-50720625D01*
X155926881Y-50773628D01*
X155916770Y-50736500D01*
X155893350Y-50675139D01*
X155942686Y-50702217D01*
X155974862Y-50727820D01*
X156043322Y-50823121D01*
X156042851Y-50831750D01*
X156019500Y-50831750D01*
X155987750Y-50800000D01*
X155956000Y-50831750D01*
X155987750Y-50863500D01*
X156019500Y-50831750D01*
X156042851Y-50831750D01*
X156040134Y-50881487D01*
X156045388Y-50922063D01*
X156099691Y-50909816D01*
X156218546Y-50922932D01*
X156284733Y-50978400D01*
X156336223Y-51051874D01*
X156300889Y-51041385D01*
X156270508Y-51022250D01*
X156236650Y-51009916D01*
X156292406Y-51068947D01*
X156293418Y-51069875D01*
X156500708Y-51182915D01*
X156670375Y-51188520D01*
X156715660Y-51229942D01*
X156718000Y-51251294D01*
X156763751Y-51294890D01*
X156807995Y-51287054D01*
X156905236Y-51304366D01*
X156933002Y-51343760D01*
X157009675Y-51424951D01*
X157049383Y-51434028D01*
X157088341Y-51413688D01*
X157035500Y-51364538D01*
X156979735Y-51317308D01*
X157035046Y-51326910D01*
X157056569Y-51333760D01*
X157168009Y-51365421D01*
X157203192Y-51371501D01*
X157207366Y-51411736D01*
X157198712Y-51427781D01*
X157221142Y-51485692D01*
X157290302Y-51517109D01*
X157375800Y-51521089D01*
X157381091Y-51492579D01*
X157404126Y-51447572D01*
X157480000Y-51435000D01*
X157573098Y-51460035D01*
X157569527Y-51507762D01*
X157572904Y-51552433D01*
X157680421Y-51541269D01*
X157698100Y-51536966D01*
X157811018Y-51521539D01*
X157839470Y-51545464D01*
X157839358Y-51545646D01*
X157883170Y-51569011D01*
X158027586Y-51587801D01*
X158246224Y-51599254D01*
X158371139Y-51601342D01*
X158623348Y-51597023D01*
X158806118Y-51582242D01*
X158895829Y-51559402D01*
X158899851Y-51547601D01*
X158929795Y-51520437D01*
X159054720Y-51527007D01*
X159102179Y-51534990D01*
X159261552Y-51552718D01*
X159303901Y-51523914D01*
X159298842Y-51513211D01*
X159310757Y-51472324D01*
X159394842Y-51482675D01*
X159489164Y-51492936D01*
X159483361Y-51440180D01*
X159479763Y-51434212D01*
X159465390Y-51376923D01*
X159531544Y-51389780D01*
X159647603Y-51399569D01*
X159791926Y-51372016D01*
X159919896Y-51321955D01*
X159986897Y-51264222D01*
X159984877Y-51239042D01*
X160001846Y-51210574D01*
X160058869Y-51224269D01*
X160133274Y-51234802D01*
X160122369Y-51192519D01*
X160119532Y-51143427D01*
X160161400Y-51151379D01*
X160270768Y-51139941D01*
X160371073Y-51082443D01*
X160433546Y-51024036D01*
X160407064Y-51027353D01*
X160348827Y-51039379D01*
X160361473Y-51003085D01*
X160450275Y-50956281D01*
X160482444Y-50962239D01*
X160570011Y-50940441D01*
X160715539Y-50852943D01*
X160890787Y-50723199D01*
X161067515Y-50574662D01*
X161217480Y-50430784D01*
X161312441Y-50315018D01*
X161329865Y-50258499D01*
X161347583Y-50156597D01*
X161404900Y-50090268D01*
X161475855Y-50038852D01*
X161463609Y-50069768D01*
X161417000Y-50133250D01*
X161355554Y-50219710D01*
X161376947Y-50215709D01*
X161435765Y-50170702D01*
X161513203Y-50068344D01*
X161517914Y-49998111D01*
X161530386Y-49896831D01*
X161556585Y-49871473D01*
X161598170Y-49868768D01*
X161580853Y-49917064D01*
X161579151Y-49942665D01*
X161639607Y-49879250D01*
X161767594Y-49695910D01*
X161883516Y-49481593D01*
X161970766Y-49273746D01*
X162012739Y-49109813D01*
X162008786Y-49046773D01*
X161998439Y-48972145D01*
X162039348Y-48982431D01*
X162101914Y-48966394D01*
X162150988Y-48868071D01*
X162172849Y-48732173D01*
X162154826Y-48606094D01*
X162148285Y-48539187D01*
X162172509Y-48541738D01*
X162229856Y-48518931D01*
X162261109Y-48449699D01*
X162265089Y-48364201D01*
X162236579Y-48358910D01*
X162187667Y-48340436D01*
X162179001Y-48291751D01*
X162208405Y-48222835D01*
X162241427Y-48227587D01*
X162275113Y-48211738D01*
X162296609Y-48106481D01*
X162307083Y-47899736D01*
X162307182Y-47848432D01*
X162337750Y-47879000D01*
X162369500Y-47847250D01*
X162337750Y-47815500D01*
X162307187Y-47846063D01*
X162307701Y-47579419D01*
X162307325Y-47545625D01*
X162296872Y-47278359D01*
X162272432Y-47129837D01*
X162232610Y-47092428D01*
X162225127Y-47095988D01*
X162194682Y-47070833D01*
X162206626Y-46946085D01*
X162210751Y-46926500D01*
X162228157Y-46787236D01*
X162197088Y-46756865D01*
X162192445Y-46759442D01*
X162120212Y-46745440D01*
X162090404Y-46698692D01*
X162055043Y-46579254D01*
X162070306Y-46553611D01*
X162115501Y-46609000D01*
X162164795Y-46668277D01*
X162177815Y-46610503D01*
X162178028Y-46596113D01*
X162154145Y-46450870D01*
X162095027Y-46311199D01*
X162023090Y-46218794D01*
X161969404Y-46208053D01*
X161936320Y-46206282D01*
X161952530Y-46171329D01*
X161951693Y-46084158D01*
X161910181Y-45933277D01*
X161845124Y-45762261D01*
X161773654Y-45614683D01*
X161712902Y-45534116D01*
X161700191Y-45529500D01*
X161699645Y-45577078D01*
X161740039Y-45672375D01*
X161782273Y-45765566D01*
X161758331Y-45762121D01*
X161733806Y-45740109D01*
X161665404Y-45619130D01*
X161644086Y-45517859D01*
X161603648Y-45405684D01*
X161541428Y-45391917D01*
X161484040Y-45387871D01*
X161494141Y-45367693D01*
X161508707Y-45284867D01*
X161461823Y-45185052D01*
X161387243Y-45121612D01*
X161340503Y-45124783D01*
X161299634Y-45129009D01*
X161310202Y-45103687D01*
X161290029Y-45028202D01*
X161195914Y-44905557D01*
X161057000Y-44762769D01*
X160902433Y-44626855D01*
X160761357Y-44524829D01*
X160662915Y-44483709D01*
X160645567Y-44487581D01*
X160601718Y-44495458D01*
X160617187Y-44459812D01*
X160611119Y-44394937D01*
X160509033Y-44373556D01*
X160443906Y-44380554D01*
X160419243Y-44350173D01*
X160429505Y-44328253D01*
X160406381Y-44265629D01*
X160303015Y-44192557D01*
X160162448Y-44129085D01*
X160027723Y-44095262D01*
X159949881Y-44104841D01*
X159903737Y-44116112D01*
X159925356Y-44068021D01*
X159939620Y-44011403D01*
X159868369Y-44025732D01*
X159794657Y-44035452D01*
X159796700Y-44007200D01*
X159766528Y-43956712D01*
X159645411Y-43898708D01*
X159468269Y-43842607D01*
X159270022Y-43797826D01*
X159085592Y-43773783D01*
X158951985Y-43779397D01*
X158847746Y-43795370D01*
X158860022Y-43767069D01*
X158871032Y-43759434D01*
X158857551Y-43732568D01*
X158749231Y-43711921D01*
X158578121Y-43698327D01*
X158376269Y-43692618D01*
X158175721Y-43695630D01*
X158008525Y-43708193D01*
X157957264Y-43719750D01*
X157861000Y-43719750D01*
X157829250Y-43688000D01*
X157797500Y-43719750D01*
X157829250Y-43751500D01*
X157861000Y-43719750D01*
X157957264Y-43719750D01*
X157906729Y-43731143D01*
X157901096Y-43734215D01*
X157789797Y-43761240D01*
X157638789Y-43762289D01*
X157518188Y-43759350D01*
X157508473Y-43786780D01*
X157543500Y-43816413D01*
X157594446Y-43863254D01*
X157537756Y-43858145D01*
X157501276Y-43848345D01*
X157351899Y-43831972D01*
X157203769Y-43851858D01*
X157098222Y-43897139D01*
X157076595Y-43956950D01*
X157078106Y-43959565D01*
X157073052Y-44000058D01*
X157013045Y-43986104D01*
X156905638Y-43984253D01*
X156758809Y-44023328D01*
X156614847Y-44085545D01*
X156516041Y-44153118D01*
X156499506Y-44202077D01*
X156483475Y-44273051D01*
X156455225Y-44296674D01*
X156410689Y-44305225D01*
X156426187Y-44269312D01*
X156438145Y-44204154D01*
X156420123Y-44196973D01*
X156299196Y-44241407D01*
X156200277Y-44336379D01*
X156176825Y-44400059D01*
X156161860Y-44418250D01*
X156146500Y-44418250D01*
X156114750Y-44386500D01*
X156083000Y-44418250D01*
X156114750Y-44450000D01*
X156146500Y-44418250D01*
X156161860Y-44418250D01*
X156125753Y-44462139D01*
X156074171Y-44465037D01*
X155957495Y-44496893D01*
X155885097Y-44560287D01*
X155830268Y-44635115D01*
X155859053Y-44624849D01*
X155924250Y-44577000D01*
X156010565Y-44515705D01*
X156007202Y-44536419D01*
X155964681Y-44592176D01*
X155874016Y-44665406D01*
X155820197Y-44666810D01*
X155745453Y-44686054D01*
X155627487Y-44773838D01*
X155499322Y-44897139D01*
X155393982Y-45022932D01*
X155344492Y-45118192D01*
X155347310Y-45139697D01*
X155332820Y-45218849D01*
X155272676Y-45284181D01*
X155199137Y-45337876D01*
X155210049Y-45308400D01*
X155257500Y-45243750D01*
X155318947Y-45157291D01*
X155297554Y-45161292D01*
X155238736Y-45206299D01*
X155161298Y-45308657D01*
X155156587Y-45378890D01*
X155144115Y-45480170D01*
X155117916Y-45505528D01*
X155078004Y-45510823D01*
X155098750Y-45466001D01*
X155115451Y-45412808D01*
X155075604Y-45428933D01*
X155005818Y-45507863D01*
X154915424Y-45653753D01*
X154823418Y-45828799D01*
X154748794Y-45995196D01*
X154710546Y-46115141D01*
X154713481Y-46149648D01*
X154745746Y-46134769D01*
X154749500Y-46101000D01*
X154768130Y-46043638D01*
X154782745Y-46049579D01*
X154797270Y-46128524D01*
X154754144Y-46216764D01*
X154687174Y-46255264D01*
X154668556Y-46248969D01*
X154628125Y-46254003D01*
X154642732Y-46316132D01*
X154652450Y-46390037D01*
X154622729Y-46386892D01*
X154588127Y-46411242D01*
X154593914Y-46539060D01*
X154597053Y-46558219D01*
X154613345Y-46688370D01*
X154593729Y-46709931D01*
X154559375Y-46672500D01*
X154510403Y-46625614D01*
X154503666Y-46681909D01*
X154513106Y-46749954D01*
X154516457Y-46862809D01*
X154486327Y-46889081D01*
X154438631Y-46789944D01*
X154438122Y-46598211D01*
X154479440Y-46336902D01*
X154557222Y-46029038D01*
X154666106Y-45697641D01*
X154800729Y-45365732D01*
X154880046Y-45198747D01*
X155234487Y-44611292D01*
X155676506Y-44068708D01*
X156184021Y-43591977D01*
X156734951Y-43202081D01*
X157257750Y-42939483D01*
X157552414Y-42821636D01*
X157784424Y-42735783D01*
X157983519Y-42676964D01*
X158179439Y-42640218D01*
X158401920Y-42620584D01*
X158680704Y-42613102D01*
X159045527Y-42612810D01*
X159211661Y-42613547D01*
X159630110Y-42617370D01*
X159947410Y-42626091D01*
X160189390Y-42642198D01*
X160381877Y-42668176D01*
X160550701Y-42706511D01*
X160718500Y-42758608D01*
X161420402Y-43061369D01*
X162064783Y-43468308D01*
X162639170Y-43966756D01*
X163131096Y-44544043D01*
X163528088Y-45187499D01*
X163817676Y-45884456D01*
X163828367Y-45918100D01*
X163892531Y-46210390D01*
X163937106Y-46593238D01*
X163962055Y-47033349D01*
X163967345Y-47497432D01*
X163952939Y-47952192D01*
X163918804Y-48364338D01*
X163864904Y-48700576D01*
X163831422Y-48827052D01*
X163550137Y-49536767D01*
X163182795Y-50160794D01*
X162717682Y-50715530D01*
X162143087Y-51217370D01*
X162101617Y-51248589D01*
X161557041Y-51615941D01*
X161029051Y-51883700D01*
X160485252Y-52062471D01*
X159893249Y-52162862D01*
X159220648Y-52195478D01*
X159209572Y-52195506D01*
X158722124Y-52183344D01*
G36*
X158686500Y-43783250D02*
X158718250Y-43751500D01*
X158750000Y-43783250D01*
X158718250Y-43815000D01*
X158686500Y-43783250D01*
X158686500Y-43783250D01*
G37*
X158686500Y-43783250D02*
X158718250Y-43751500D01*
X158750000Y-43783250D01*
X158718250Y-43815000D01*
X158686500Y-43783250D01*
G36*
X157988000Y-43783250D02*
X158019750Y-43751500D01*
X158051500Y-43783250D01*
X158019750Y-43815000D01*
X157988000Y-43783250D01*
X157988000Y-43783250D01*
G37*
X157988000Y-43783250D02*
X158019750Y-43751500D01*
X158051500Y-43783250D01*
X158019750Y-43815000D01*
X157988000Y-43783250D01*
G36*
X159152167Y-43857334D02*
X159160884Y-43819583D01*
X159194500Y-43815000D01*
X159246768Y-43838234D01*
X159236834Y-43857334D01*
X159161474Y-43864934D01*
X159152167Y-43857334D01*
X159152167Y-43857334D01*
G37*
X159152167Y-43857334D02*
X159160884Y-43819583D01*
X159194500Y-43815000D01*
X159246768Y-43838234D01*
X159236834Y-43857334D01*
X159161474Y-43864934D01*
X159152167Y-43857334D01*
G36*
X159338698Y-43916865D02*
X159357637Y-43888004D01*
X159422042Y-43883514D01*
X159489799Y-43899022D01*
X159460407Y-43921878D01*
X159361164Y-43929448D01*
X159338698Y-43916865D01*
X159338698Y-43916865D01*
G37*
X159338698Y-43916865D02*
X159357637Y-43888004D01*
X159422042Y-43883514D01*
X159489799Y-43899022D01*
X159460407Y-43921878D01*
X159361164Y-43929448D01*
X159338698Y-43916865D01*
G36*
X157289500Y-43910250D02*
X157321250Y-43878500D01*
X157353000Y-43910250D01*
X157321250Y-43942000D01*
X157289500Y-43910250D01*
X157289500Y-43910250D01*
G37*
X157289500Y-43910250D02*
X157321250Y-43878500D01*
X157353000Y-43910250D01*
X157321250Y-43942000D01*
X157289500Y-43910250D01*
G36*
X159639000Y-43973750D02*
X159670750Y-43942000D01*
X159702500Y-43973750D01*
X159670750Y-44005500D01*
X159639000Y-43973750D01*
X159639000Y-43973750D01*
G37*
X159639000Y-43973750D02*
X159670750Y-43942000D01*
X159702500Y-43973750D01*
X159670750Y-44005500D01*
X159639000Y-43973750D01*
G36*
X156748070Y-44120237D02*
X156767126Y-44073001D01*
X156826387Y-44041333D01*
X156900573Y-44022000D01*
X156870138Y-44068517D01*
X156861934Y-44076880D01*
X156778678Y-44127038D01*
X156748070Y-44120237D01*
X156748070Y-44120237D01*
G37*
X156748070Y-44120237D02*
X156767126Y-44073001D01*
X156826387Y-44041333D01*
X156900573Y-44022000D01*
X156870138Y-44068517D01*
X156861934Y-44076880D01*
X156778678Y-44127038D01*
X156748070Y-44120237D01*
G36*
X160083500Y-44164250D02*
X160115250Y-44132500D01*
X160147000Y-44164250D01*
X160115250Y-44196000D01*
X160083500Y-44164250D01*
X160083500Y-44164250D01*
G37*
X160083500Y-44164250D02*
X160115250Y-44132500D01*
X160147000Y-44164250D01*
X160115250Y-44196000D01*
X160083500Y-44164250D01*
G36*
X156591000Y-44164250D02*
X156622750Y-44132500D01*
X156654500Y-44164250D01*
X156622750Y-44196000D01*
X156591000Y-44164250D01*
X156591000Y-44164250D01*
G37*
X156591000Y-44164250D02*
X156622750Y-44132500D01*
X156654500Y-44164250D01*
X156622750Y-44196000D01*
X156591000Y-44164250D01*
G36*
X158438669Y-51225966D02*
X158481618Y-51191233D01*
X158475554Y-51162187D01*
X158362856Y-51146194D01*
X158249614Y-51144581D01*
X158063381Y-51158772D01*
X157975801Y-51191414D01*
X157974561Y-51212750D01*
X157965293Y-51230181D01*
X157904402Y-51188654D01*
X157732183Y-51129282D01*
X157558838Y-51139230D01*
X157415823Y-51155693D01*
X157384965Y-51138484D01*
X157416500Y-51110565D01*
X157456942Y-51069563D01*
X157390566Y-51071264D01*
X157331805Y-51083160D01*
X157211366Y-51095023D01*
X157189484Y-51061713D01*
X157159270Y-51014493D01*
X157050720Y-50963228D01*
X156910916Y-50923874D01*
X156786936Y-50912383D01*
X156760906Y-50916477D01*
X156735504Y-50891133D01*
X156744955Y-50871259D01*
X156720337Y-50815843D01*
X156619688Y-50758663D01*
X156492296Y-50718536D01*
X156387452Y-50714281D01*
X156363968Y-50725811D01*
X156345851Y-50722870D01*
X156362317Y-50688875D01*
X156366991Y-50614705D01*
X156340748Y-50601563D01*
X156222610Y-50586677D01*
X156215292Y-50585688D01*
X156120990Y-50536165D01*
X156104167Y-50519945D01*
X156098006Y-50493703D01*
X156146500Y-50516259D01*
X156207881Y-50543996D01*
X156181600Y-50496838D01*
X156154600Y-50462940D01*
X156064469Y-50380991D01*
X155994278Y-50357433D01*
X155978868Y-50398439D01*
X155996192Y-50434875D01*
X156004583Y-50473195D01*
X155936440Y-50427100D01*
X155847034Y-50340988D01*
X155837614Y-50303003D01*
X155908375Y-50330242D01*
X155923639Y-50320806D01*
X155863988Y-50241021D01*
X155833807Y-50206990D01*
X155718114Y-50089691D01*
X155653035Y-50041207D01*
X155653208Y-50068385D01*
X155710100Y-50149125D01*
X155765001Y-50224327D01*
X155732295Y-50208718D01*
X155686825Y-50173681D01*
X155610539Y-50087986D01*
X155604273Y-50042009D01*
X155588865Y-49969385D01*
X155517271Y-49841760D01*
X155414299Y-49692783D01*
X155304760Y-49556102D01*
X155213465Y-49465368D01*
X155167937Y-49450231D01*
X155150836Y-49439088D01*
X155169685Y-49374773D01*
X155184646Y-49291656D01*
X155145679Y-49298369D01*
X155055837Y-49294574D01*
X155029827Y-49267225D01*
X155021276Y-49222689D01*
X155057189Y-49238187D01*
X155120096Y-49247522D01*
X155121508Y-49184498D01*
X155062828Y-49087089D01*
X155051125Y-49074161D01*
X154981939Y-48970072D01*
X154970501Y-48926750D01*
X154952229Y-48763928D01*
X154911831Y-48597873D01*
X154862216Y-48469233D01*
X154816292Y-48418652D01*
X154809792Y-48420733D01*
X154758638Y-48403817D01*
X154749500Y-48355250D01*
X154772896Y-48282083D01*
X154798294Y-48282661D01*
X154822219Y-48246244D01*
X154825159Y-48119101D01*
X154819501Y-48048284D01*
X154799923Y-47893480D01*
X154780660Y-47853371D01*
X154753289Y-47915954D01*
X154745287Y-47942500D01*
X154717882Y-48006341D01*
X154701352Y-47962104D01*
X154692955Y-47800942D01*
X154692330Y-47771623D01*
X154700709Y-47577013D01*
X154729061Y-47438644D01*
X154753218Y-47400453D01*
X154790377Y-47312472D01*
X154781115Y-47158580D01*
X154765932Y-47035608D01*
X154791772Y-47031692D01*
X154800902Y-47043907D01*
X154847014Y-47068094D01*
X154885553Y-46981303D01*
X154903085Y-46899952D01*
X154920355Y-46729108D01*
X154906660Y-46608673D01*
X154901519Y-46598109D01*
X154894497Y-46556426D01*
X154940980Y-46577856D01*
X154997598Y-46592120D01*
X154983269Y-46520869D01*
X154973543Y-46446859D01*
X155004228Y-46450700D01*
X155058169Y-46431826D01*
X155083687Y-46300531D01*
X155084173Y-46181059D01*
X155120160Y-46133724D01*
X155148461Y-46143851D01*
X155188330Y-46138208D01*
X155173769Y-46076369D01*
X155163236Y-46001964D01*
X155205519Y-46012869D01*
X155252665Y-46015045D01*
X155239315Y-45954701D01*
X155239383Y-45845036D01*
X155270085Y-45807473D01*
X155311670Y-45804768D01*
X155294353Y-45853064D01*
X155291324Y-45880102D01*
X155346007Y-45821771D01*
X155406897Y-45706261D01*
X155404405Y-45637334D01*
X155405824Y-45602799D01*
X155430994Y-45614240D01*
X155516201Y-45607441D01*
X155595780Y-45531612D01*
X155622873Y-45437844D01*
X155614174Y-45414512D01*
X155631546Y-45337484D01*
X155720683Y-45224700D01*
X155735708Y-45210162D01*
X155839454Y-45124042D01*
X155891187Y-45103325D01*
X155892500Y-45107916D01*
X155938807Y-45117667D01*
X156021279Y-45084049D01*
X156106710Y-45008147D01*
X156111809Y-44953241D01*
X156109103Y-44903172D01*
X156125906Y-44903008D01*
X156230165Y-44891364D01*
X156329131Y-44837802D01*
X156369409Y-44773894D01*
X156365088Y-44761574D01*
X156382316Y-44733485D01*
X156439369Y-44747269D01*
X156513272Y-44759630D01*
X156496356Y-44704980D01*
X156478991Y-44650456D01*
X156511959Y-44662645D01*
X156610282Y-44680706D01*
X156708750Y-44650172D01*
X156752767Y-44592398D01*
X156746088Y-44571074D01*
X156763316Y-44542985D01*
X156820369Y-44556769D01*
X156894774Y-44567302D01*
X156883869Y-44525019D01*
X156881721Y-44478358D01*
X156947369Y-44493269D01*
X157021584Y-44503053D01*
X157016089Y-44469965D01*
X157033533Y-44429805D01*
X157142110Y-44436630D01*
X157255467Y-44441894D01*
X157269110Y-44404880D01*
X157288308Y-44366477D01*
X157396110Y-44373130D01*
X157512334Y-44378578D01*
X157519765Y-44335969D01*
X157535239Y-44293773D01*
X157665128Y-44297786D01*
X157692755Y-44302010D01*
X157859459Y-44307596D01*
X157951485Y-44267196D01*
X157951925Y-44266499D01*
X158034958Y-44200169D01*
X158058996Y-44196000D01*
X158093478Y-44235099D01*
X158083369Y-44259309D01*
X158097437Y-44290847D01*
X158210755Y-44259309D01*
X158362123Y-44206834D01*
X158418490Y-44206482D01*
X158400999Y-44258994D01*
X158396835Y-44265836D01*
X158392518Y-44303912D01*
X158479829Y-44268146D01*
X158484163Y-44265836D01*
X158609446Y-44210319D01*
X158675458Y-44200937D01*
X158657529Y-44237914D01*
X158623000Y-44264570D01*
X158588623Y-44305568D01*
X158658595Y-44315957D01*
X158761421Y-44308618D01*
X158906221Y-44307434D01*
X158961610Y-44335070D01*
X158958359Y-44345478D01*
X158981903Y-44379228D01*
X159087891Y-44373130D01*
X159201753Y-44367848D01*
X159214399Y-44405676D01*
X159228699Y-44444338D01*
X159311659Y-44434175D01*
X159407204Y-44427219D01*
X159406421Y-44466714D01*
X159410593Y-44507936D01*
X159473132Y-44493269D01*
X159547639Y-44483032D01*
X159537577Y-44523489D01*
X159542296Y-44568260D01*
X159653347Y-44555285D01*
X159657388Y-44554278D01*
X159792196Y-44544550D01*
X159860657Y-44576040D01*
X159848304Y-44612667D01*
X159785174Y-44601267D01*
X159758731Y-44606041D01*
X159826723Y-44662492D01*
X159878660Y-44697244D01*
X160015280Y-44777276D01*
X160115693Y-44823401D01*
X160156579Y-44828284D01*
X160114616Y-44784585D01*
X160083500Y-44761694D01*
X160020459Y-44711583D01*
X160063757Y-44715060D01*
X160083500Y-44720333D01*
X160168137Y-44782975D01*
X160178750Y-44819194D01*
X160224495Y-44907975D01*
X160328111Y-44994136D01*
X160439175Y-45043580D01*
X160498090Y-45035134D01*
X160527918Y-45032399D01*
X160521473Y-45053250D01*
X160548787Y-45127849D01*
X160564138Y-45148500D01*
X155880434Y-45148500D01*
X155819190Y-45190231D01*
X155733750Y-45275500D01*
X155660418Y-45367488D01*
X155650567Y-45402500D01*
X155711811Y-45360770D01*
X155797250Y-45275500D01*
X155870583Y-45183513D01*
X155880434Y-45148500D01*
X160564138Y-45148500D01*
X160646647Y-45259490D01*
X160777415Y-45402500D01*
X160900514Y-45522411D01*
X160959210Y-45569974D01*
X160942040Y-45536068D01*
X160936998Y-45529500D01*
X160813750Y-45370750D01*
X160952343Y-45487842D01*
X161042824Y-45598579D01*
X161059139Y-45687794D01*
X161064124Y-45720000D01*
X156348871Y-45720000D01*
X156265148Y-45755956D01*
X156120279Y-45848318D01*
X156008778Y-45929442D01*
X155853380Y-46068952D01*
X155679644Y-46256593D01*
X155510580Y-46463072D01*
X155369197Y-46659100D01*
X155278504Y-46815385D01*
X155257500Y-46885809D01*
X155289249Y-46868757D01*
X155373483Y-46765770D01*
X155493688Y-46597534D01*
X155527375Y-46547777D01*
X155730780Y-46284568D01*
X155959873Y-46049832D01*
X156105809Y-45932563D01*
X156257739Y-45821162D01*
X156343998Y-45744204D01*
X156348871Y-45720000D01*
X161064124Y-45720000D01*
X161075012Y-45790333D01*
X161104983Y-45818639D01*
X161152328Y-45830921D01*
X161131251Y-45783501D01*
X161114673Y-45730078D01*
X161150416Y-45743973D01*
X161191519Y-45831303D01*
X161181186Y-45891201D01*
X161171624Y-45960812D01*
X161225521Y-45942856D01*
X161280045Y-45925491D01*
X161267856Y-45958459D01*
X161250171Y-46055524D01*
X161279291Y-46154780D01*
X161334674Y-46200991D01*
X161355767Y-46194850D01*
X161430141Y-46208690D01*
X161454174Y-46236776D01*
X161463313Y-46280695D01*
X161416021Y-46259145D01*
X161359586Y-46244848D01*
X161374459Y-46318027D01*
X161385054Y-46354518D01*
X158618841Y-46354518D01*
X158603073Y-46321635D01*
X158567600Y-46275625D01*
X158474915Y-46176903D01*
X158433543Y-46177333D01*
X158432500Y-46188475D01*
X158475895Y-46241481D01*
X158543625Y-46299600D01*
X158618841Y-46354518D01*
X161385054Y-46354518D01*
X161411155Y-46444413D01*
X161417001Y-46490942D01*
X161456113Y-46524221D01*
X161479773Y-46514200D01*
X161514819Y-46524957D01*
X161500732Y-46584369D01*
X161488371Y-46658272D01*
X161543021Y-46641356D01*
X161597436Y-46623977D01*
X161584195Y-46658837D01*
X161566628Y-46761093D01*
X161575118Y-46931675D01*
X161583324Y-46991305D01*
X161620711Y-47152215D01*
X161662002Y-47188337D01*
X161678969Y-47169782D01*
X161719823Y-47138666D01*
X161733479Y-47226531D01*
X161733528Y-47231873D01*
X161711099Y-47334179D01*
X161661189Y-47333187D01*
X161618250Y-47325175D01*
X161638511Y-47369803D01*
X161670415Y-47481831D01*
X161687968Y-47660874D01*
X161689143Y-47720250D01*
X161688154Y-47736546D01*
X159341161Y-47736546D01*
X159317554Y-47537955D01*
X159263531Y-47304759D01*
X159190317Y-47069308D01*
X159109133Y-46863949D01*
X159031201Y-46721030D01*
X158972016Y-46672500D01*
X158963014Y-46714946D01*
X158980692Y-46751875D01*
X158989083Y-46790195D01*
X158920940Y-46744100D01*
X158835055Y-46661390D01*
X158816486Y-46618280D01*
X158876025Y-46640149D01*
X158877000Y-46640750D01*
X158935758Y-46641368D01*
X158940500Y-46622590D01*
X158897308Y-46535949D01*
X158799707Y-46440955D01*
X158695660Y-46377588D01*
X158642845Y-46374486D01*
X158566156Y-46358067D01*
X158439416Y-46277690D01*
X158400719Y-46246737D01*
X158303133Y-46159439D01*
X158282652Y-46128462D01*
X158299437Y-46135593D01*
X158357590Y-46150538D01*
X158341243Y-46107460D01*
X158255360Y-46051973D01*
X158220873Y-46055126D01*
X158120781Y-46035529D01*
X158057548Y-45989120D01*
X157910777Y-45927397D01*
X157783950Y-45935436D01*
X157660372Y-45945340D01*
X157639341Y-45909544D01*
X157608279Y-45870456D01*
X157471634Y-45849308D01*
X157384750Y-45847000D01*
X157200831Y-45859351D01*
X157128664Y-45894650D01*
X157132324Y-45913046D01*
X157117927Y-45952277D01*
X157012443Y-45938758D01*
X156784572Y-45936305D01*
X156527136Y-46016751D01*
X156289954Y-46163863D01*
X156270502Y-46180524D01*
X156189909Y-46257041D01*
X156191365Y-46269170D01*
X156207002Y-46259750D01*
X156271038Y-46224934D01*
X156246967Y-46270133D01*
X156221233Y-46303601D01*
X156121003Y-46377321D01*
X156056781Y-46380086D01*
X155958497Y-46396158D01*
X155873329Y-46479250D01*
X155847175Y-46578592D01*
X155856320Y-46601831D01*
X155847910Y-46684593D01*
X155820225Y-46709674D01*
X155776289Y-46718761D01*
X155799629Y-46666437D01*
X155825724Y-46610176D01*
X155773526Y-46642123D01*
X155752899Y-46658625D01*
X155658367Y-46777585D01*
X155558090Y-46966238D01*
X155535310Y-47021750D01*
X155257500Y-47021750D01*
X155225750Y-46990000D01*
X155194000Y-47021750D01*
X155225750Y-47053500D01*
X155257500Y-47021750D01*
X155535310Y-47021750D01*
X155482244Y-47151065D01*
X155225493Y-47151065D01*
X155186297Y-47162851D01*
X155183304Y-47165797D01*
X155138541Y-47275571D01*
X155143978Y-47316182D01*
X155176695Y-47330923D01*
X155211068Y-47249091D01*
X155225493Y-47151065D01*
X155482244Y-47151065D01*
X155470296Y-47180180D01*
X155413214Y-47375006D01*
X155405016Y-47506092D01*
X155404399Y-47529750D01*
X155194000Y-47529750D01*
X155162250Y-47498000D01*
X154813000Y-47498000D01*
X154789767Y-47445733D01*
X154770667Y-47455667D01*
X154763067Y-47531027D01*
X154770667Y-47540334D01*
X154808418Y-47531617D01*
X154813000Y-47498000D01*
X155162250Y-47498000D01*
X155130500Y-47529750D01*
X155162250Y-47561500D01*
X155194000Y-47529750D01*
X155404399Y-47529750D01*
X155401971Y-47622770D01*
X155371438Y-47664824D01*
X155338790Y-47751284D01*
X155343423Y-47921998D01*
X155351402Y-47974250D01*
X155130500Y-47974250D01*
X155098750Y-47942500D01*
X155067000Y-47974250D01*
X155098750Y-48006000D01*
X155130500Y-47974250D01*
X155351402Y-47974250D01*
X155377327Y-48144009D01*
X155432493Y-48384358D01*
X155500909Y-48610090D01*
X155574567Y-48788246D01*
X155645455Y-48885871D01*
X155670427Y-48895000D01*
X155681768Y-48854420D01*
X155670250Y-48831500D01*
X155655021Y-48772170D01*
X155664269Y-48768000D01*
X155716044Y-48816914D01*
X155769602Y-48902663D01*
X155810707Y-48995045D01*
X155779451Y-48998801D01*
X155755961Y-48985554D01*
X155737718Y-48997183D01*
X155770295Y-49053750D01*
X155511500Y-49053750D01*
X155479750Y-49022000D01*
X155448000Y-49053750D01*
X155479750Y-49085500D01*
X155511500Y-49053750D01*
X155770295Y-49053750D01*
X155788503Y-49085365D01*
X155837384Y-49152516D01*
X155962369Y-49287948D01*
X156075276Y-49365177D01*
X156104821Y-49371987D01*
X156230160Y-49416828D01*
X156286937Y-49464175D01*
X156333006Y-49520753D01*
X156293377Y-49498733D01*
X156245436Y-49463438D01*
X156165138Y-49415290D01*
X156170088Y-49451077D01*
X156277413Y-49553538D01*
X156439669Y-49640454D01*
X156600841Y-49686622D01*
X156682228Y-49681507D01*
X156766520Y-49676403D01*
X156781500Y-49700956D01*
X156836811Y-49731762D01*
X156973665Y-49735248D01*
X157012417Y-49731541D01*
X157168011Y-49727187D01*
X157205890Y-49763670D01*
X157201692Y-49771960D01*
X157212776Y-49808288D01*
X157329731Y-49790235D01*
X157367231Y-49779919D01*
X157573175Y-49733175D01*
X157718306Y-49723928D01*
X157777545Y-49752494D01*
X157771420Y-49774827D01*
X157797963Y-49804545D01*
X157899888Y-49798178D01*
X158034558Y-49744310D01*
X158095121Y-49680715D01*
X158151039Y-49620220D01*
X158177054Y-49624356D01*
X158248962Y-49603978D01*
X158374579Y-49517690D01*
X158440275Y-49462080D01*
X158602114Y-49317002D01*
X158744084Y-49189910D01*
X158775631Y-49161714D01*
X158856090Y-49098526D01*
X158860805Y-49125816D01*
X158850297Y-49149000D01*
X158844119Y-49182442D01*
X158888478Y-49140214D01*
X158960430Y-49050225D01*
X159037025Y-48940385D01*
X159078489Y-48871463D01*
X159112211Y-48789180D01*
X159073354Y-48796133D01*
X159036819Y-48794355D01*
X159068723Y-48695686D01*
X159076304Y-48678787D01*
X159144759Y-48572706D01*
X159200578Y-48549506D01*
X159246998Y-48519736D01*
X159288893Y-48390764D01*
X159321457Y-48190387D01*
X159339883Y-47946403D01*
X159341161Y-47736546D01*
X161688154Y-47736546D01*
X161677753Y-47907878D01*
X161649348Y-48046929D01*
X161638511Y-48070698D01*
X161622883Y-48122808D01*
X161661189Y-48107314D01*
X161723564Y-48113509D01*
X161734500Y-48164751D01*
X161708090Y-48235788D01*
X161678932Y-48233152D01*
X161637367Y-48264069D01*
X161599393Y-48378035D01*
X161572592Y-48531160D01*
X161564913Y-48672750D01*
X159194500Y-48672750D01*
X159162750Y-48641000D01*
X159131000Y-48672750D01*
X159162750Y-48704500D01*
X159194500Y-48672750D01*
X161564913Y-48672750D01*
X161564543Y-48679556D01*
X161582827Y-48779334D01*
X161584195Y-48781664D01*
X161588426Y-48820349D01*
X161543021Y-48799145D01*
X161486403Y-48784881D01*
X161500732Y-48856132D01*
X161510680Y-48929599D01*
X161484940Y-48929494D01*
X161439446Y-48960769D01*
X161389534Y-49070078D01*
X161350825Y-49210046D01*
X161338937Y-49333300D01*
X161342977Y-49360095D01*
X161316499Y-49383927D01*
X161291574Y-49372223D01*
X161243884Y-49362895D01*
X161217170Y-49428619D01*
X161200870Y-49593500D01*
X161180534Y-49625250D01*
X161163000Y-49625250D01*
X161131250Y-49593500D01*
X161099500Y-49625250D01*
X161131250Y-49657000D01*
X161163000Y-49625250D01*
X161180534Y-49625250D01*
X161146734Y-49678020D01*
X161104708Y-49688750D01*
X161006095Y-49739971D01*
X160985429Y-49776964D01*
X160989241Y-49833046D01*
X161043638Y-49812400D01*
X161098554Y-49786565D01*
X161068715Y-49836249D01*
X161044100Y-49867061D01*
X161032374Y-49879250D01*
X156591000Y-49879250D01*
X156559250Y-49847500D01*
X156527500Y-49879250D01*
X156559250Y-49911000D01*
X156591000Y-49879250D01*
X161032374Y-49879250D01*
X160958665Y-49955868D01*
X160920294Y-49966873D01*
X160949408Y-49895125D01*
X160933304Y-49893312D01*
X160845158Y-49964618D01*
X160799608Y-50006250D01*
X157035500Y-50006250D01*
X157003750Y-49974500D01*
X156972000Y-50006250D01*
X157003750Y-50038000D01*
X157035500Y-50006250D01*
X160799608Y-50006250D01*
X160730131Y-50069750D01*
X157353000Y-50069750D01*
X157321250Y-50038000D01*
X157289500Y-50069750D01*
X157321250Y-50101500D01*
X157353000Y-50069750D01*
X160730131Y-50069750D01*
X160703992Y-50093640D01*
X160702347Y-50095198D01*
X160552051Y-50246182D01*
X160450315Y-50365001D01*
X160420066Y-50422223D01*
X160388295Y-50474305D01*
X160384460Y-50474864D01*
X160373207Y-50478543D01*
X160401000Y-50450750D01*
X160369250Y-50419000D01*
X160337500Y-50450750D01*
X160367243Y-50480493D01*
X160264177Y-50514186D01*
X160125443Y-50592240D01*
X160013317Y-50679364D01*
X159972839Y-50745829D01*
X159936448Y-50822403D01*
X159893000Y-50844522D01*
X159830126Y-50857562D01*
X159870298Y-50816739D01*
X159893000Y-50798845D01*
X159950175Y-50746597D01*
X159896950Y-50754330D01*
X159871932Y-50762260D01*
X159760492Y-50793921D01*
X159725309Y-50800000D01*
X159722246Y-50841024D01*
X159733801Y-50862773D01*
X159723044Y-50897819D01*
X159663632Y-50883732D01*
X159589233Y-50873786D01*
X159596921Y-50910287D01*
X159587386Y-50953324D01*
X159502159Y-50942826D01*
X159406785Y-50935914D01*
X159406909Y-50974576D01*
X159396433Y-51016771D01*
X159311659Y-51006326D01*
X159216285Y-50999414D01*
X159216409Y-51038076D01*
X159205933Y-51080271D01*
X159121159Y-51069826D01*
X159028232Y-51063110D01*
X159021367Y-51094227D01*
X158994289Y-51129307D01*
X158870419Y-51132225D01*
X158848296Y-51129908D01*
X158692885Y-51132029D01*
X158598385Y-51170286D01*
X158595003Y-51174929D01*
X158503172Y-51240083D01*
X158476378Y-51243528D01*
X158438669Y-51225966D01*
X158438669Y-51225966D01*
G37*
X158438669Y-51225966D02*
X158481618Y-51191233D01*
X158475554Y-51162187D01*
X158362856Y-51146194D01*
X158249614Y-51144581D01*
X158063381Y-51158772D01*
X157975801Y-51191414D01*
X157974561Y-51212750D01*
X157965293Y-51230181D01*
X157904402Y-51188654D01*
X157732183Y-51129282D01*
X157558838Y-51139230D01*
X157415823Y-51155693D01*
X157384965Y-51138484D01*
X157416500Y-51110565D01*
X157456942Y-51069563D01*
X157390566Y-51071264D01*
X157331805Y-51083160D01*
X157211366Y-51095023D01*
X157189484Y-51061713D01*
X157159270Y-51014493D01*
X157050720Y-50963228D01*
X156910916Y-50923874D01*
X156786936Y-50912383D01*
X156760906Y-50916477D01*
X156735504Y-50891133D01*
X156744955Y-50871259D01*
X156720337Y-50815843D01*
X156619688Y-50758663D01*
X156492296Y-50718536D01*
X156387452Y-50714281D01*
X156363968Y-50725811D01*
X156345851Y-50722870D01*
X156362317Y-50688875D01*
X156366991Y-50614705D01*
X156340748Y-50601563D01*
X156222610Y-50586677D01*
X156215292Y-50585688D01*
X156120990Y-50536165D01*
X156104167Y-50519945D01*
X156098006Y-50493703D01*
X156146500Y-50516259D01*
X156207881Y-50543996D01*
X156181600Y-50496838D01*
X156154600Y-50462940D01*
X156064469Y-50380991D01*
X155994278Y-50357433D01*
X155978868Y-50398439D01*
X155996192Y-50434875D01*
X156004583Y-50473195D01*
X155936440Y-50427100D01*
X155847034Y-50340988D01*
X155837614Y-50303003D01*
X155908375Y-50330242D01*
X155923639Y-50320806D01*
X155863988Y-50241021D01*
X155833807Y-50206990D01*
X155718114Y-50089691D01*
X155653035Y-50041207D01*
X155653208Y-50068385D01*
X155710100Y-50149125D01*
X155765001Y-50224327D01*
X155732295Y-50208718D01*
X155686825Y-50173681D01*
X155610539Y-50087986D01*
X155604273Y-50042009D01*
X155588865Y-49969385D01*
X155517271Y-49841760D01*
X155414299Y-49692783D01*
X155304760Y-49556102D01*
X155213465Y-49465368D01*
X155167937Y-49450231D01*
X155150836Y-49439088D01*
X155169685Y-49374773D01*
X155184646Y-49291656D01*
X155145679Y-49298369D01*
X155055837Y-49294574D01*
X155029827Y-49267225D01*
X155021276Y-49222689D01*
X155057189Y-49238187D01*
X155120096Y-49247522D01*
X155121508Y-49184498D01*
X155062828Y-49087089D01*
X155051125Y-49074161D01*
X154981939Y-48970072D01*
X154970501Y-48926750D01*
X154952229Y-48763928D01*
X154911831Y-48597873D01*
X154862216Y-48469233D01*
X154816292Y-48418652D01*
X154809792Y-48420733D01*
X154758638Y-48403817D01*
X154749500Y-48355250D01*
X154772896Y-48282083D01*
X154798294Y-48282661D01*
X154822219Y-48246244D01*
X154825159Y-48119101D01*
X154819501Y-48048284D01*
X154799923Y-47893480D01*
X154780660Y-47853371D01*
X154753289Y-47915954D01*
X154745287Y-47942500D01*
X154717882Y-48006341D01*
X154701352Y-47962104D01*
X154692955Y-47800942D01*
X154692330Y-47771623D01*
X154700709Y-47577013D01*
X154729061Y-47438644D01*
X154753218Y-47400453D01*
X154790377Y-47312472D01*
X154781115Y-47158580D01*
X154765932Y-47035608D01*
X154791772Y-47031692D01*
X154800902Y-47043907D01*
X154847014Y-47068094D01*
X154885553Y-46981303D01*
X154903085Y-46899952D01*
X154920355Y-46729108D01*
X154906660Y-46608673D01*
X154901519Y-46598109D01*
X154894497Y-46556426D01*
X154940980Y-46577856D01*
X154997598Y-46592120D01*
X154983269Y-46520869D01*
X154973543Y-46446859D01*
X155004228Y-46450700D01*
X155058169Y-46431826D01*
X155083687Y-46300531D01*
X155084173Y-46181059D01*
X155120160Y-46133724D01*
X155148461Y-46143851D01*
X155188330Y-46138208D01*
X155173769Y-46076369D01*
X155163236Y-46001964D01*
X155205519Y-46012869D01*
X155252665Y-46015045D01*
X155239315Y-45954701D01*
X155239383Y-45845036D01*
X155270085Y-45807473D01*
X155311670Y-45804768D01*
X155294353Y-45853064D01*
X155291324Y-45880102D01*
X155346007Y-45821771D01*
X155406897Y-45706261D01*
X155404405Y-45637334D01*
X155405824Y-45602799D01*
X155430994Y-45614240D01*
X155516201Y-45607441D01*
X155595780Y-45531612D01*
X155622873Y-45437844D01*
X155614174Y-45414512D01*
X155631546Y-45337484D01*
X155720683Y-45224700D01*
X155735708Y-45210162D01*
X155839454Y-45124042D01*
X155891187Y-45103325D01*
X155892500Y-45107916D01*
X155938807Y-45117667D01*
X156021279Y-45084049D01*
X156106710Y-45008147D01*
X156111809Y-44953241D01*
X156109103Y-44903172D01*
X156125906Y-44903008D01*
X156230165Y-44891364D01*
X156329131Y-44837802D01*
X156369409Y-44773894D01*
X156365088Y-44761574D01*
X156382316Y-44733485D01*
X156439369Y-44747269D01*
X156513272Y-44759630D01*
X156496356Y-44704980D01*
X156478991Y-44650456D01*
X156511959Y-44662645D01*
X156610282Y-44680706D01*
X156708750Y-44650172D01*
X156752767Y-44592398D01*
X156746088Y-44571074D01*
X156763316Y-44542985D01*
X156820369Y-44556769D01*
X156894774Y-44567302D01*
X156883869Y-44525019D01*
X156881721Y-44478358D01*
X156947369Y-44493269D01*
X157021584Y-44503053D01*
X157016089Y-44469965D01*
X157033533Y-44429805D01*
X157142110Y-44436630D01*
X157255467Y-44441894D01*
X157269110Y-44404880D01*
X157288308Y-44366477D01*
X157396110Y-44373130D01*
X157512334Y-44378578D01*
X157519765Y-44335969D01*
X157535239Y-44293773D01*
X157665128Y-44297786D01*
X157692755Y-44302010D01*
X157859459Y-44307596D01*
X157951485Y-44267196D01*
X157951925Y-44266499D01*
X158034958Y-44200169D01*
X158058996Y-44196000D01*
X158093478Y-44235099D01*
X158083369Y-44259309D01*
X158097437Y-44290847D01*
X158210755Y-44259309D01*
X158362123Y-44206834D01*
X158418490Y-44206482D01*
X158400999Y-44258994D01*
X158396835Y-44265836D01*
X158392518Y-44303912D01*
X158479829Y-44268146D01*
X158484163Y-44265836D01*
X158609446Y-44210319D01*
X158675458Y-44200937D01*
X158657529Y-44237914D01*
X158623000Y-44264570D01*
X158588623Y-44305568D01*
X158658595Y-44315957D01*
X158761421Y-44308618D01*
X158906221Y-44307434D01*
X158961610Y-44335070D01*
X158958359Y-44345478D01*
X158981903Y-44379228D01*
X159087891Y-44373130D01*
X159201753Y-44367848D01*
X159214399Y-44405676D01*
X159228699Y-44444338D01*
X159311659Y-44434175D01*
X159407204Y-44427219D01*
X159406421Y-44466714D01*
X159410593Y-44507936D01*
X159473132Y-44493269D01*
X159547639Y-44483032D01*
X159537577Y-44523489D01*
X159542296Y-44568260D01*
X159653347Y-44555285D01*
X159657388Y-44554278D01*
X159792196Y-44544550D01*
X159860657Y-44576040D01*
X159848304Y-44612667D01*
X159785174Y-44601267D01*
X159758731Y-44606041D01*
X159826723Y-44662492D01*
X159878660Y-44697244D01*
X160015280Y-44777276D01*
X160115693Y-44823401D01*
X160156579Y-44828284D01*
X160114616Y-44784585D01*
X160083500Y-44761694D01*
X160020459Y-44711583D01*
X160063757Y-44715060D01*
X160083500Y-44720333D01*
X160168137Y-44782975D01*
X160178750Y-44819194D01*
X160224495Y-44907975D01*
X160328111Y-44994136D01*
X160439175Y-45043580D01*
X160498090Y-45035134D01*
X160527918Y-45032399D01*
X160521473Y-45053250D01*
X160548787Y-45127849D01*
X160564138Y-45148500D01*
X155880434Y-45148500D01*
X155819190Y-45190231D01*
X155733750Y-45275500D01*
X155660418Y-45367488D01*
X155650567Y-45402500D01*
X155711811Y-45360770D01*
X155797250Y-45275500D01*
X155870583Y-45183513D01*
X155880434Y-45148500D01*
X160564138Y-45148500D01*
X160646647Y-45259490D01*
X160777415Y-45402500D01*
X160900514Y-45522411D01*
X160959210Y-45569974D01*
X160942040Y-45536068D01*
X160936998Y-45529500D01*
X160813750Y-45370750D01*
X160952343Y-45487842D01*
X161042824Y-45598579D01*
X161059139Y-45687794D01*
X161064124Y-45720000D01*
X156348871Y-45720000D01*
X156265148Y-45755956D01*
X156120279Y-45848318D01*
X156008778Y-45929442D01*
X155853380Y-46068952D01*
X155679644Y-46256593D01*
X155510580Y-46463072D01*
X155369197Y-46659100D01*
X155278504Y-46815385D01*
X155257500Y-46885809D01*
X155289249Y-46868757D01*
X155373483Y-46765770D01*
X155493688Y-46597534D01*
X155527375Y-46547777D01*
X155730780Y-46284568D01*
X155959873Y-46049832D01*
X156105809Y-45932563D01*
X156257739Y-45821162D01*
X156343998Y-45744204D01*
X156348871Y-45720000D01*
X161064124Y-45720000D01*
X161075012Y-45790333D01*
X161104983Y-45818639D01*
X161152328Y-45830921D01*
X161131251Y-45783501D01*
X161114673Y-45730078D01*
X161150416Y-45743973D01*
X161191519Y-45831303D01*
X161181186Y-45891201D01*
X161171624Y-45960812D01*
X161225521Y-45942856D01*
X161280045Y-45925491D01*
X161267856Y-45958459D01*
X161250171Y-46055524D01*
X161279291Y-46154780D01*
X161334674Y-46200991D01*
X161355767Y-46194850D01*
X161430141Y-46208690D01*
X161454174Y-46236776D01*
X161463313Y-46280695D01*
X161416021Y-46259145D01*
X161359586Y-46244848D01*
X161374459Y-46318027D01*
X161385054Y-46354518D01*
X158618841Y-46354518D01*
X158603073Y-46321635D01*
X158567600Y-46275625D01*
X158474915Y-46176903D01*
X158433543Y-46177333D01*
X158432500Y-46188475D01*
X158475895Y-46241481D01*
X158543625Y-46299600D01*
X158618841Y-46354518D01*
X161385054Y-46354518D01*
X161411155Y-46444413D01*
X161417001Y-46490942D01*
X161456113Y-46524221D01*
X161479773Y-46514200D01*
X161514819Y-46524957D01*
X161500732Y-46584369D01*
X161488371Y-46658272D01*
X161543021Y-46641356D01*
X161597436Y-46623977D01*
X161584195Y-46658837D01*
X161566628Y-46761093D01*
X161575118Y-46931675D01*
X161583324Y-46991305D01*
X161620711Y-47152215D01*
X161662002Y-47188337D01*
X161678969Y-47169782D01*
X161719823Y-47138666D01*
X161733479Y-47226531D01*
X161733528Y-47231873D01*
X161711099Y-47334179D01*
X161661189Y-47333187D01*
X161618250Y-47325175D01*
X161638511Y-47369803D01*
X161670415Y-47481831D01*
X161687968Y-47660874D01*
X161689143Y-47720250D01*
X161688154Y-47736546D01*
X159341161Y-47736546D01*
X159317554Y-47537955D01*
X159263531Y-47304759D01*
X159190317Y-47069308D01*
X159109133Y-46863949D01*
X159031201Y-46721030D01*
X158972016Y-46672500D01*
X158963014Y-46714946D01*
X158980692Y-46751875D01*
X158989083Y-46790195D01*
X158920940Y-46744100D01*
X158835055Y-46661390D01*
X158816486Y-46618280D01*
X158876025Y-46640149D01*
X158877000Y-46640750D01*
X158935758Y-46641368D01*
X158940500Y-46622590D01*
X158897308Y-46535949D01*
X158799707Y-46440955D01*
X158695660Y-46377588D01*
X158642845Y-46374486D01*
X158566156Y-46358067D01*
X158439416Y-46277690D01*
X158400719Y-46246737D01*
X158303133Y-46159439D01*
X158282652Y-46128462D01*
X158299437Y-46135593D01*
X158357590Y-46150538D01*
X158341243Y-46107460D01*
X158255360Y-46051973D01*
X158220873Y-46055126D01*
X158120781Y-46035529D01*
X158057548Y-45989120D01*
X157910777Y-45927397D01*
X157783950Y-45935436D01*
X157660372Y-45945340D01*
X157639341Y-45909544D01*
X157608279Y-45870456D01*
X157471634Y-45849308D01*
X157384750Y-45847000D01*
X157200831Y-45859351D01*
X157128664Y-45894650D01*
X157132324Y-45913046D01*
X157117927Y-45952277D01*
X157012443Y-45938758D01*
X156784572Y-45936305D01*
X156527136Y-46016751D01*
X156289954Y-46163863D01*
X156270502Y-46180524D01*
X156189909Y-46257041D01*
X156191365Y-46269170D01*
X156207002Y-46259750D01*
X156271038Y-46224934D01*
X156246967Y-46270133D01*
X156221233Y-46303601D01*
X156121003Y-46377321D01*
X156056781Y-46380086D01*
X155958497Y-46396158D01*
X155873329Y-46479250D01*
X155847175Y-46578592D01*
X155856320Y-46601831D01*
X155847910Y-46684593D01*
X155820225Y-46709674D01*
X155776289Y-46718761D01*
X155799629Y-46666437D01*
X155825724Y-46610176D01*
X155773526Y-46642123D01*
X155752899Y-46658625D01*
X155658367Y-46777585D01*
X155558090Y-46966238D01*
X155535310Y-47021750D01*
X155257500Y-47021750D01*
X155225750Y-46990000D01*
X155194000Y-47021750D01*
X155225750Y-47053500D01*
X155257500Y-47021750D01*
X155535310Y-47021750D01*
X155482244Y-47151065D01*
X155225493Y-47151065D01*
X155186297Y-47162851D01*
X155183304Y-47165797D01*
X155138541Y-47275571D01*
X155143978Y-47316182D01*
X155176695Y-47330923D01*
X155211068Y-47249091D01*
X155225493Y-47151065D01*
X155482244Y-47151065D01*
X155470296Y-47180180D01*
X155413214Y-47375006D01*
X155405016Y-47506092D01*
X155404399Y-47529750D01*
X155194000Y-47529750D01*
X155162250Y-47498000D01*
X154813000Y-47498000D01*
X154789767Y-47445733D01*
X154770667Y-47455667D01*
X154763067Y-47531027D01*
X154770667Y-47540334D01*
X154808418Y-47531617D01*
X154813000Y-47498000D01*
X155162250Y-47498000D01*
X155130500Y-47529750D01*
X155162250Y-47561500D01*
X155194000Y-47529750D01*
X155404399Y-47529750D01*
X155401971Y-47622770D01*
X155371438Y-47664824D01*
X155338790Y-47751284D01*
X155343423Y-47921998D01*
X155351402Y-47974250D01*
X155130500Y-47974250D01*
X155098750Y-47942500D01*
X155067000Y-47974250D01*
X155098750Y-48006000D01*
X155130500Y-47974250D01*
X155351402Y-47974250D01*
X155377327Y-48144009D01*
X155432493Y-48384358D01*
X155500909Y-48610090D01*
X155574567Y-48788246D01*
X155645455Y-48885871D01*
X155670427Y-48895000D01*
X155681768Y-48854420D01*
X155670250Y-48831500D01*
X155655021Y-48772170D01*
X155664269Y-48768000D01*
X155716044Y-48816914D01*
X155769602Y-48902663D01*
X155810707Y-48995045D01*
X155779451Y-48998801D01*
X155755961Y-48985554D01*
X155737718Y-48997183D01*
X155770295Y-49053750D01*
X155511500Y-49053750D01*
X155479750Y-49022000D01*
X155448000Y-49053750D01*
X155479750Y-49085500D01*
X155511500Y-49053750D01*
X155770295Y-49053750D01*
X155788503Y-49085365D01*
X155837384Y-49152516D01*
X155962369Y-49287948D01*
X156075276Y-49365177D01*
X156104821Y-49371987D01*
X156230160Y-49416828D01*
X156286937Y-49464175D01*
X156333006Y-49520753D01*
X156293377Y-49498733D01*
X156245436Y-49463438D01*
X156165138Y-49415290D01*
X156170088Y-49451077D01*
X156277413Y-49553538D01*
X156439669Y-49640454D01*
X156600841Y-49686622D01*
X156682228Y-49681507D01*
X156766520Y-49676403D01*
X156781500Y-49700956D01*
X156836811Y-49731762D01*
X156973665Y-49735248D01*
X157012417Y-49731541D01*
X157168011Y-49727187D01*
X157205890Y-49763670D01*
X157201692Y-49771960D01*
X157212776Y-49808288D01*
X157329731Y-49790235D01*
X157367231Y-49779919D01*
X157573175Y-49733175D01*
X157718306Y-49723928D01*
X157777545Y-49752494D01*
X157771420Y-49774827D01*
X157797963Y-49804545D01*
X157899888Y-49798178D01*
X158034558Y-49744310D01*
X158095121Y-49680715D01*
X158151039Y-49620220D01*
X158177054Y-49624356D01*
X158248962Y-49603978D01*
X158374579Y-49517690D01*
X158440275Y-49462080D01*
X158602114Y-49317002D01*
X158744084Y-49189910D01*
X158775631Y-49161714D01*
X158856090Y-49098526D01*
X158860805Y-49125816D01*
X158850297Y-49149000D01*
X158844119Y-49182442D01*
X158888478Y-49140214D01*
X158960430Y-49050225D01*
X159037025Y-48940385D01*
X159078489Y-48871463D01*
X159112211Y-48789180D01*
X159073354Y-48796133D01*
X159036819Y-48794355D01*
X159068723Y-48695686D01*
X159076304Y-48678787D01*
X159144759Y-48572706D01*
X159200578Y-48549506D01*
X159246998Y-48519736D01*
X159288893Y-48390764D01*
X159321457Y-48190387D01*
X159339883Y-47946403D01*
X159341161Y-47736546D01*
X161688154Y-47736546D01*
X161677753Y-47907878D01*
X161649348Y-48046929D01*
X161638511Y-48070698D01*
X161622883Y-48122808D01*
X161661189Y-48107314D01*
X161723564Y-48113509D01*
X161734500Y-48164751D01*
X161708090Y-48235788D01*
X161678932Y-48233152D01*
X161637367Y-48264069D01*
X161599393Y-48378035D01*
X161572592Y-48531160D01*
X161564913Y-48672750D01*
X159194500Y-48672750D01*
X159162750Y-48641000D01*
X159131000Y-48672750D01*
X159162750Y-48704500D01*
X159194500Y-48672750D01*
X161564913Y-48672750D01*
X161564543Y-48679556D01*
X161582827Y-48779334D01*
X161584195Y-48781664D01*
X161588426Y-48820349D01*
X161543021Y-48799145D01*
X161486403Y-48784881D01*
X161500732Y-48856132D01*
X161510680Y-48929599D01*
X161484940Y-48929494D01*
X161439446Y-48960769D01*
X161389534Y-49070078D01*
X161350825Y-49210046D01*
X161338937Y-49333300D01*
X161342977Y-49360095D01*
X161316499Y-49383927D01*
X161291574Y-49372223D01*
X161243884Y-49362895D01*
X161217170Y-49428619D01*
X161200870Y-49593500D01*
X161180534Y-49625250D01*
X161163000Y-49625250D01*
X161131250Y-49593500D01*
X161099500Y-49625250D01*
X161131250Y-49657000D01*
X161163000Y-49625250D01*
X161180534Y-49625250D01*
X161146734Y-49678020D01*
X161104708Y-49688750D01*
X161006095Y-49739971D01*
X160985429Y-49776964D01*
X160989241Y-49833046D01*
X161043638Y-49812400D01*
X161098554Y-49786565D01*
X161068715Y-49836249D01*
X161044100Y-49867061D01*
X161032374Y-49879250D01*
X156591000Y-49879250D01*
X156559250Y-49847500D01*
X156527500Y-49879250D01*
X156559250Y-49911000D01*
X156591000Y-49879250D01*
X161032374Y-49879250D01*
X160958665Y-49955868D01*
X160920294Y-49966873D01*
X160949408Y-49895125D01*
X160933304Y-49893312D01*
X160845158Y-49964618D01*
X160799608Y-50006250D01*
X157035500Y-50006250D01*
X157003750Y-49974500D01*
X156972000Y-50006250D01*
X157003750Y-50038000D01*
X157035500Y-50006250D01*
X160799608Y-50006250D01*
X160730131Y-50069750D01*
X157353000Y-50069750D01*
X157321250Y-50038000D01*
X157289500Y-50069750D01*
X157321250Y-50101500D01*
X157353000Y-50069750D01*
X160730131Y-50069750D01*
X160703992Y-50093640D01*
X160702347Y-50095198D01*
X160552051Y-50246182D01*
X160450315Y-50365001D01*
X160420066Y-50422223D01*
X160388295Y-50474305D01*
X160384460Y-50474864D01*
X160373207Y-50478543D01*
X160401000Y-50450750D01*
X160369250Y-50419000D01*
X160337500Y-50450750D01*
X160367243Y-50480493D01*
X160264177Y-50514186D01*
X160125443Y-50592240D01*
X160013317Y-50679364D01*
X159972839Y-50745829D01*
X159936448Y-50822403D01*
X159893000Y-50844522D01*
X159830126Y-50857562D01*
X159870298Y-50816739D01*
X159893000Y-50798845D01*
X159950175Y-50746597D01*
X159896950Y-50754330D01*
X159871932Y-50762260D01*
X159760492Y-50793921D01*
X159725309Y-50800000D01*
X159722246Y-50841024D01*
X159733801Y-50862773D01*
X159723044Y-50897819D01*
X159663632Y-50883732D01*
X159589233Y-50873786D01*
X159596921Y-50910287D01*
X159587386Y-50953324D01*
X159502159Y-50942826D01*
X159406785Y-50935914D01*
X159406909Y-50974576D01*
X159396433Y-51016771D01*
X159311659Y-51006326D01*
X159216285Y-50999414D01*
X159216409Y-51038076D01*
X159205933Y-51080271D01*
X159121159Y-51069826D01*
X159028232Y-51063110D01*
X159021367Y-51094227D01*
X158994289Y-51129307D01*
X158870419Y-51132225D01*
X158848296Y-51129908D01*
X158692885Y-51132029D01*
X158598385Y-51170286D01*
X158595003Y-51174929D01*
X158503172Y-51240083D01*
X158476378Y-51243528D01*
X158438669Y-51225966D01*
G36*
X157755167Y-44238334D02*
X157763884Y-44200583D01*
X157797500Y-44196000D01*
X157849768Y-44219234D01*
X157839834Y-44238334D01*
X157764474Y-44245934D01*
X157755167Y-44238334D01*
X157755167Y-44238334D01*
G37*
X157755167Y-44238334D02*
X157763884Y-44200583D01*
X157797500Y-44196000D01*
X157849768Y-44219234D01*
X157839834Y-44238334D01*
X157764474Y-44245934D01*
X157755167Y-44238334D01*
G36*
X160274000Y-44291250D02*
X160305750Y-44259500D01*
X160337500Y-44291250D01*
X160305750Y-44323000D01*
X160274000Y-44291250D01*
X160274000Y-44291250D01*
G37*
X160274000Y-44291250D02*
X160305750Y-44259500D01*
X160337500Y-44291250D01*
X160305750Y-44323000D01*
X160274000Y-44291250D01*
G36*
X157099000Y-44354750D02*
X157130750Y-44323000D01*
X157162500Y-44354750D01*
X157130750Y-44386500D01*
X157099000Y-44354750D01*
X157099000Y-44354750D01*
G37*
X157099000Y-44354750D02*
X157130750Y-44323000D01*
X157162500Y-44354750D01*
X157130750Y-44386500D01*
X157099000Y-44354750D01*
G36*
X160918812Y-44741814D02*
X160850642Y-44677876D01*
X160864626Y-44641119D01*
X160873503Y-44640500D01*
X160927212Y-44685603D01*
X160946814Y-44713812D01*
X160954299Y-44757265D01*
X160918812Y-44741814D01*
X160918812Y-44741814D01*
G37*
X160918812Y-44741814D02*
X160850642Y-44677876D01*
X160864626Y-44641119D01*
X160873503Y-44640500D01*
X160927212Y-44685603D01*
X160946814Y-44713812D01*
X160954299Y-44757265D01*
X160918812Y-44741814D01*
G36*
X155702000Y-44735750D02*
X155733750Y-44704000D01*
X155765500Y-44735750D01*
X155733750Y-44767500D01*
X155702000Y-44735750D01*
X155702000Y-44735750D01*
G37*
X155702000Y-44735750D02*
X155733750Y-44704000D01*
X155765500Y-44735750D01*
X155733750Y-44767500D01*
X155702000Y-44735750D01*
G36*
X161193135Y-45001573D02*
X161147125Y-44966100D01*
X161059181Y-44887767D01*
X161036000Y-44854975D01*
X161066889Y-44835968D01*
X161151304Y-44917540D01*
X161171100Y-44942125D01*
X161226018Y-45017341D01*
X161193135Y-45001573D01*
X161193135Y-45001573D01*
G37*
X161193135Y-45001573D02*
X161147125Y-44966100D01*
X161059181Y-44887767D01*
X161036000Y-44854975D01*
X161066889Y-44835968D01*
X161151304Y-44917540D01*
X161171100Y-44942125D01*
X161226018Y-45017341D01*
X161193135Y-45001573D01*
G36*
X155384500Y-45053250D02*
X155416250Y-45021500D01*
X155448000Y-45053250D01*
X155416250Y-45085000D01*
X155384500Y-45053250D01*
X155384500Y-45053250D01*
G37*
X155384500Y-45053250D02*
X155416250Y-45021500D01*
X155448000Y-45053250D01*
X155416250Y-45085000D01*
X155384500Y-45053250D01*
G36*
X154904644Y-45804580D02*
X154915772Y-45755049D01*
X154967013Y-45665668D01*
X155000148Y-45680641D01*
X155003500Y-45716253D01*
X154957382Y-45802360D01*
X154940728Y-45814801D01*
X154904644Y-45804580D01*
X154904644Y-45804580D01*
G37*
X154904644Y-45804580D02*
X154915772Y-45755049D01*
X154967013Y-45665668D01*
X155000148Y-45680641D01*
X155003500Y-45716253D01*
X154957382Y-45802360D01*
X154940728Y-45814801D01*
X154904644Y-45804580D01*
G36*
X154813000Y-45942250D02*
X154844750Y-45910500D01*
X154876500Y-45942250D01*
X154844750Y-45974000D01*
X154813000Y-45942250D01*
X154813000Y-45942250D01*
G37*
X154813000Y-45942250D02*
X154844750Y-45910500D01*
X154876500Y-45942250D01*
X154844750Y-45974000D01*
X154813000Y-45942250D01*
G36*
X161861500Y-46069250D02*
X161893250Y-46037500D01*
X161925000Y-46069250D01*
X161893250Y-46101000D01*
X161861500Y-46069250D01*
X161861500Y-46069250D01*
G37*
X161861500Y-46069250D02*
X161893250Y-46037500D01*
X161925000Y-46069250D01*
X161893250Y-46101000D01*
X161861500Y-46069250D01*
G36*
X161290000Y-46069250D02*
X161321750Y-46037500D01*
X161353500Y-46069250D01*
X161321750Y-46101000D01*
X161290000Y-46069250D01*
X161290000Y-46069250D01*
G37*
X161290000Y-46069250D02*
X161321750Y-46037500D01*
X161353500Y-46069250D01*
X161321750Y-46101000D01*
X161290000Y-46069250D01*
G36*
X154813000Y-46704250D02*
X154844750Y-46672500D01*
X154876500Y-46704250D01*
X154844750Y-46736000D01*
X154813000Y-46704250D01*
X154813000Y-46704250D01*
G37*
X154813000Y-46704250D02*
X154844750Y-46672500D01*
X154876500Y-46704250D01*
X154844750Y-46736000D01*
X154813000Y-46704250D01*
G36*
X161607500Y-46831250D02*
X161639250Y-46799500D01*
X161671000Y-46831250D01*
X161639250Y-46863000D01*
X161607500Y-46831250D01*
X161607500Y-46831250D01*
G37*
X161607500Y-46831250D02*
X161639250Y-46799500D01*
X161671000Y-46831250D01*
X161639250Y-46863000D01*
X161607500Y-46831250D01*
G36*
X154453167Y-47222834D02*
X154445567Y-47147474D01*
X154453167Y-47138167D01*
X154490918Y-47146884D01*
X154495500Y-47180500D01*
X154472267Y-47232768D01*
X154453167Y-47222834D01*
X154453167Y-47222834D01*
G37*
X154453167Y-47222834D02*
X154445567Y-47147474D01*
X154453167Y-47138167D01*
X154490918Y-47146884D01*
X154495500Y-47180500D01*
X154472267Y-47232768D01*
X154453167Y-47222834D01*
G36*
X161628667Y-48683334D02*
X161621067Y-48607974D01*
X161628667Y-48598667D01*
X161666418Y-48607384D01*
X161671000Y-48641000D01*
X161647767Y-48693268D01*
X161628667Y-48683334D01*
X161628667Y-48683334D01*
G37*
X161628667Y-48683334D02*
X161621067Y-48607974D01*
X161628667Y-48598667D01*
X161666418Y-48607384D01*
X161671000Y-48641000D01*
X161647767Y-48693268D01*
X161628667Y-48683334D01*
G36*
X154834167Y-48746834D02*
X154826567Y-48671474D01*
X154834167Y-48662167D01*
X154871918Y-48670884D01*
X154876500Y-48704500D01*
X154853267Y-48756768D01*
X154834167Y-48746834D01*
X154834167Y-48746834D01*
G37*
X154834167Y-48746834D02*
X154826567Y-48671474D01*
X154834167Y-48662167D01*
X154871918Y-48670884D01*
X154876500Y-48704500D01*
X154853267Y-48756768D01*
X154834167Y-48746834D01*
G36*
X162072123Y-48843407D02*
X162064553Y-48744164D01*
X162077136Y-48721698D01*
X162105997Y-48740637D01*
X162110487Y-48805042D01*
X162094979Y-48872799D01*
X162072123Y-48843407D01*
X162072123Y-48843407D01*
G37*
X162072123Y-48843407D02*
X162064553Y-48744164D01*
X162077136Y-48721698D01*
X162105997Y-48740637D01*
X162110487Y-48805042D01*
X162094979Y-48872799D01*
X162072123Y-48843407D01*
G36*
X154876500Y-48863250D02*
X154908250Y-48831500D01*
X154940000Y-48863250D01*
X154908250Y-48895000D01*
X154876500Y-48863250D01*
X154876500Y-48863250D01*
G37*
X154876500Y-48863250D02*
X154908250Y-48831500D01*
X154940000Y-48863250D01*
X154908250Y-48895000D01*
X154876500Y-48863250D01*
G36*
X161881423Y-49234983D02*
X161893250Y-49212500D01*
X161953081Y-49151858D01*
X161964246Y-49149000D01*
X161968578Y-49190018D01*
X161956750Y-49212500D01*
X161896920Y-49273143D01*
X161885755Y-49276000D01*
X161881423Y-49234983D01*
X161881423Y-49234983D01*
G37*
X161881423Y-49234983D02*
X161893250Y-49212500D01*
X161953081Y-49151858D01*
X161964246Y-49149000D01*
X161968578Y-49190018D01*
X161956750Y-49212500D01*
X161896920Y-49273143D01*
X161885755Y-49276000D01*
X161881423Y-49234983D01*
G36*
X161417000Y-49180750D02*
X161448750Y-49149000D01*
X161480500Y-49180750D01*
X161448750Y-49212500D01*
X161417000Y-49180750D01*
X161417000Y-49180750D01*
G37*
X161417000Y-49180750D02*
X161448750Y-49149000D01*
X161480500Y-49180750D01*
X161448750Y-49212500D01*
X161417000Y-49180750D01*
G36*
X161798000Y-49434750D02*
X161829750Y-49403000D01*
X161861500Y-49434750D01*
X161829750Y-49466500D01*
X161798000Y-49434750D01*
X161798000Y-49434750D01*
G37*
X161798000Y-49434750D02*
X161829750Y-49403000D01*
X161861500Y-49434750D01*
X161829750Y-49466500D01*
X161798000Y-49434750D01*
G36*
X161690387Y-49623257D02*
X161726621Y-49576567D01*
X161780012Y-49536439D01*
X161766688Y-49600067D01*
X161762168Y-49612114D01*
X161711864Y-49689873D01*
X161683264Y-49690431D01*
X161690387Y-49623257D01*
X161690387Y-49623257D01*
G37*
X161690387Y-49623257D02*
X161726621Y-49576567D01*
X161780012Y-49536439D01*
X161766688Y-49600067D01*
X161762168Y-49612114D01*
X161711864Y-49689873D01*
X161683264Y-49690431D01*
X161690387Y-49623257D01*
G36*
X155495627Y-50381511D02*
X155355439Y-50263549D01*
X155269863Y-50173828D01*
X155257502Y-50149125D01*
X155266893Y-50109770D01*
X155307962Y-50126627D01*
X155400042Y-50213576D01*
X155514919Y-50333886D01*
X155733750Y-50566271D01*
X155495627Y-50381511D01*
X155495627Y-50381511D01*
G37*
X155495627Y-50381511D02*
X155355439Y-50263549D01*
X155269863Y-50173828D01*
X155257502Y-50149125D01*
X155266893Y-50109770D01*
X155307962Y-50126627D01*
X155400042Y-50213576D01*
X155514919Y-50333886D01*
X155733750Y-50566271D01*
X155495627Y-50381511D01*
G36*
X160655000Y-50260250D02*
X160686750Y-50228500D01*
X160718500Y-50260250D01*
X160686750Y-50292000D01*
X160655000Y-50260250D01*
X160655000Y-50260250D01*
G37*
X160655000Y-50260250D02*
X160686750Y-50228500D01*
X160718500Y-50260250D01*
X160686750Y-50292000D01*
X160655000Y-50260250D01*
G36*
X161119423Y-50377983D02*
X161131250Y-50355500D01*
X161191081Y-50294858D01*
X161202246Y-50292000D01*
X161206578Y-50333018D01*
X161194750Y-50355500D01*
X161134920Y-50416143D01*
X161123755Y-50419000D01*
X161119423Y-50377983D01*
X161119423Y-50377983D01*
G37*
X161119423Y-50377983D02*
X161131250Y-50355500D01*
X161191081Y-50294858D01*
X161202246Y-50292000D01*
X161206578Y-50333018D01*
X161194750Y-50355500D01*
X161134920Y-50416143D01*
X161123755Y-50419000D01*
X161119423Y-50377983D01*
G36*
X160840694Y-50657125D02*
X160958005Y-50541928D01*
X161047757Y-50484092D01*
X161057653Y-50482500D01*
X161099060Y-50493985D01*
X161094209Y-50498375D01*
X161032866Y-50545544D01*
X160913550Y-50642861D01*
X160877250Y-50673000D01*
X160686750Y-50831750D01*
X160840694Y-50657125D01*
X160840694Y-50657125D01*
G37*
X160840694Y-50657125D02*
X160958005Y-50541928D01*
X161047757Y-50484092D01*
X161057653Y-50482500D01*
X161099060Y-50493985D01*
X161094209Y-50498375D01*
X161032866Y-50545544D01*
X160913550Y-50642861D01*
X160877250Y-50673000D01*
X160686750Y-50831750D01*
X160840694Y-50657125D01*
G36*
X160168167Y-50651834D02*
X160176884Y-50614083D01*
X160210500Y-50609500D01*
X160262768Y-50632734D01*
X160252834Y-50651834D01*
X160177474Y-50659434D01*
X160168167Y-50651834D01*
X160168167Y-50651834D01*
G37*
X160168167Y-50651834D02*
X160176884Y-50614083D01*
X160210500Y-50609500D01*
X160262768Y-50632734D01*
X160252834Y-50651834D01*
X160177474Y-50659434D01*
X160168167Y-50651834D01*
G36*
X156527500Y-50831750D02*
X156559250Y-50800000D01*
X156591000Y-50831750D01*
X156559250Y-50863500D01*
X156527500Y-50831750D01*
X156527500Y-50831750D01*
G37*
X156527500Y-50831750D02*
X156559250Y-50800000D01*
X156591000Y-50831750D01*
X156559250Y-50863500D01*
X156527500Y-50831750D01*
G36*
X160528000Y-50895250D02*
X160559750Y-50863500D01*
X160591500Y-50895250D01*
X160559750Y-50927000D01*
X160528000Y-50895250D01*
X160528000Y-50895250D01*
G37*
X160528000Y-50895250D02*
X160559750Y-50863500D01*
X160591500Y-50895250D01*
X160559750Y-50927000D01*
X160528000Y-50895250D01*
G36*
X156908500Y-51022250D02*
X156940250Y-50990500D01*
X156972000Y-51022250D01*
X156940250Y-51054000D01*
X156908500Y-51022250D01*
X156908500Y-51022250D01*
G37*
X156908500Y-51022250D02*
X156940250Y-50990500D01*
X156972000Y-51022250D01*
X156940250Y-51054000D01*
X156908500Y-51022250D01*
G36*
X156421667Y-51096334D02*
X156430384Y-51058583D01*
X156464000Y-51054000D01*
X156516268Y-51077234D01*
X156506334Y-51096334D01*
X156430974Y-51103934D01*
X156421667Y-51096334D01*
X156421667Y-51096334D01*
G37*
X156421667Y-51096334D02*
X156430384Y-51058583D01*
X156464000Y-51054000D01*
X156516268Y-51077234D01*
X156506334Y-51096334D01*
X156430974Y-51103934D01*
X156421667Y-51096334D01*
G36*
X158771167Y-51223334D02*
X158779884Y-51185583D01*
X158813500Y-51181000D01*
X158865768Y-51204234D01*
X158855834Y-51223334D01*
X158780474Y-51230934D01*
X158771167Y-51223334D01*
X158771167Y-51223334D01*
G37*
X158771167Y-51223334D02*
X158779884Y-51185583D01*
X158813500Y-51181000D01*
X158865768Y-51204234D01*
X158855834Y-51223334D01*
X158780474Y-51230934D01*
X158771167Y-51223334D01*
G36*
X157734000Y-51212750D02*
X157765750Y-51181000D01*
X157797500Y-51212750D01*
X157765750Y-51244500D01*
X157734000Y-51212750D01*
X157734000Y-51212750D01*
G37*
X157734000Y-51212750D02*
X157765750Y-51181000D01*
X157797500Y-51212750D01*
X157765750Y-51244500D01*
X157734000Y-51212750D01*
G36*
X157607000Y-51212750D02*
X157638750Y-51181000D01*
X157670500Y-51212750D01*
X157638750Y-51244500D01*
X157607000Y-51212750D01*
X157607000Y-51212750D01*
G37*
X157607000Y-51212750D02*
X157638750Y-51181000D01*
X157670500Y-51212750D01*
X157638750Y-51244500D01*
X157607000Y-51212750D01*
G36*
X159787167Y-51286834D02*
X159795884Y-51249083D01*
X159829500Y-51244500D01*
X159881768Y-51267734D01*
X159871834Y-51286834D01*
X159796474Y-51294434D01*
X159787167Y-51286834D01*
X159787167Y-51286834D01*
G37*
X159787167Y-51286834D02*
X159795884Y-51249083D01*
X159829500Y-51244500D01*
X159881768Y-51267734D01*
X159871834Y-51286834D01*
X159796474Y-51294434D01*
X159787167Y-51286834D01*
G36*
X159639000Y-51339750D02*
X159670750Y-51308000D01*
X159702500Y-51339750D01*
X159670750Y-51371500D01*
X159639000Y-51339750D01*
X159639000Y-51339750D01*
G37*
X159639000Y-51339750D02*
X159670750Y-51308000D01*
X159702500Y-51339750D01*
X159670750Y-51371500D01*
X159639000Y-51339750D01*
G36*
X159131000Y-51466750D02*
X159162750Y-51435000D01*
X159194500Y-51466750D01*
X159162750Y-51498500D01*
X159131000Y-51466750D01*
X159131000Y-51466750D01*
G37*
X159131000Y-51466750D02*
X159162750Y-51435000D01*
X159194500Y-51466750D01*
X159162750Y-51498500D01*
X159131000Y-51466750D01*
G36*
X157882167Y-46016334D02*
X157890884Y-45978583D01*
X157924500Y-45974000D01*
X157976768Y-45997234D01*
X157966834Y-46016334D01*
X157891474Y-46023934D01*
X157882167Y-46016334D01*
X157882167Y-46016334D01*
G37*
X157882167Y-46016334D02*
X157890884Y-45978583D01*
X157924500Y-45974000D01*
X157976768Y-45997234D01*
X157966834Y-46016334D01*
X157891474Y-46023934D01*
X157882167Y-46016334D01*
G36*
X156527500Y-46069250D02*
X156559250Y-46037500D01*
X156591000Y-46069250D01*
X156559250Y-46101000D01*
X156527500Y-46069250D01*
X156527500Y-46069250D01*
G37*
X156527500Y-46069250D02*
X156559250Y-46037500D01*
X156591000Y-46069250D01*
X156559250Y-46101000D01*
X156527500Y-46069250D01*
G36*
X156356923Y-46186983D02*
X156368750Y-46164500D01*
X156428581Y-46103858D01*
X156439746Y-46101000D01*
X156444078Y-46142018D01*
X156432250Y-46164500D01*
X156372420Y-46225143D01*
X156361255Y-46228000D01*
X156356923Y-46186983D01*
X156356923Y-46186983D01*
G37*
X156356923Y-46186983D02*
X156368750Y-46164500D01*
X156428581Y-46103858D01*
X156439746Y-46101000D01*
X156444078Y-46142018D01*
X156432250Y-46164500D01*
X156372420Y-46225143D01*
X156361255Y-46228000D01*
X156356923Y-46186983D01*
G36*
X155658423Y-46885483D02*
X155670250Y-46863000D01*
X155730081Y-46802358D01*
X155741246Y-46799500D01*
X155745578Y-46840518D01*
X155733750Y-46863000D01*
X155673920Y-46923643D01*
X155662755Y-46926500D01*
X155658423Y-46885483D01*
X155658423Y-46885483D01*
G37*
X155658423Y-46885483D02*
X155670250Y-46863000D01*
X155730081Y-46802358D01*
X155741246Y-46799500D01*
X155745578Y-46840518D01*
X155733750Y-46863000D01*
X155673920Y-46923643D01*
X155662755Y-46926500D01*
X155658423Y-46885483D01*
G36*
X159004000Y-46894750D02*
X159035750Y-46863000D01*
X159067500Y-46894750D01*
X159035750Y-46926500D01*
X159004000Y-46894750D01*
X159004000Y-46894750D01*
G37*
X159004000Y-46894750D02*
X159035750Y-46863000D01*
X159067500Y-46894750D01*
X159035750Y-46926500D01*
X159004000Y-46894750D01*
G36*
X159067500Y-47021750D02*
X159099250Y-46990000D01*
X159131000Y-47021750D01*
X159099250Y-47053500D01*
X159067500Y-47021750D01*
X159067500Y-47021750D01*
G37*
X159067500Y-47021750D02*
X159099250Y-46990000D01*
X159131000Y-47021750D01*
X159099250Y-47053500D01*
X159067500Y-47021750D01*
G36*
X155575000Y-47021750D02*
X155606750Y-46990000D01*
X155638500Y-47021750D01*
X155606750Y-47053500D01*
X155575000Y-47021750D01*
X155575000Y-47021750D01*
G37*
X155575000Y-47021750D02*
X155606750Y-46990000D01*
X155638500Y-47021750D01*
X155606750Y-47053500D01*
X155575000Y-47021750D01*
G36*
X159131000Y-47148750D02*
X159162750Y-47117000D01*
X159194500Y-47148750D01*
X159162750Y-47180500D01*
X159131000Y-47148750D01*
X159131000Y-47148750D01*
G37*
X159131000Y-47148750D02*
X159162750Y-47117000D01*
X159194500Y-47148750D01*
X159162750Y-47180500D01*
X159131000Y-47148750D01*
G36*
X155511500Y-47212250D02*
X155543250Y-47180500D01*
X155575000Y-47212250D01*
X155543250Y-47244000D01*
X155511500Y-47212250D01*
X155511500Y-47212250D01*
G37*
X155511500Y-47212250D02*
X155543250Y-47180500D01*
X155575000Y-47212250D01*
X155543250Y-47244000D01*
X155511500Y-47212250D01*
G36*
X155469167Y-47413334D02*
X155461567Y-47337974D01*
X155469167Y-47328667D01*
X155506918Y-47337384D01*
X155511500Y-47371000D01*
X155488267Y-47423268D01*
X155469167Y-47413334D01*
X155469167Y-47413334D01*
G37*
X155469167Y-47413334D02*
X155461567Y-47337974D01*
X155469167Y-47328667D01*
X155506918Y-47337384D01*
X155511500Y-47371000D01*
X155488267Y-47423268D01*
X155469167Y-47413334D01*
G36*
X159215667Y-47476834D02*
X159208067Y-47401474D01*
X159215667Y-47392167D01*
X159253418Y-47400884D01*
X159258000Y-47434500D01*
X159234767Y-47486768D01*
X159215667Y-47476834D01*
X159215667Y-47476834D01*
G37*
X159215667Y-47476834D02*
X159208067Y-47401474D01*
X159215667Y-47392167D01*
X159253418Y-47400884D01*
X159258000Y-47434500D01*
X159234767Y-47486768D01*
X159215667Y-47476834D01*
G36*
X159280638Y-47936335D02*
X159277496Y-47925417D01*
X159268199Y-47787094D01*
X159279849Y-47734917D01*
X159300695Y-47732806D01*
X159309208Y-47832213D01*
X159309121Y-47847250D01*
X159299965Y-47945736D01*
X159280638Y-47936335D01*
X159280638Y-47936335D01*
G37*
X159280638Y-47936335D02*
X159277496Y-47925417D01*
X159268199Y-47787094D01*
X159279849Y-47734917D01*
X159300695Y-47732806D01*
X159309208Y-47832213D01*
X159309121Y-47847250D01*
X159299965Y-47945736D01*
X159280638Y-47936335D01*
G36*
X155404228Y-47990125D02*
X155394353Y-47829075D01*
X155404228Y-47767875D01*
X155422634Y-47748113D01*
X155432654Y-47835917D01*
X155433268Y-47879000D01*
X155426648Y-47994527D01*
X155410165Y-48008142D01*
X155404228Y-47990125D01*
X155404228Y-47990125D01*
G37*
X155404228Y-47990125D02*
X155394353Y-47829075D01*
X155404228Y-47767875D01*
X155422634Y-47748113D01*
X155432654Y-47835917D01*
X155433268Y-47879000D01*
X155426648Y-47994527D01*
X155410165Y-48008142D01*
X155404228Y-47990125D01*
G36*
X159215667Y-48302334D02*
X159208067Y-48226974D01*
X159215667Y-48217667D01*
X159253418Y-48226384D01*
X159258000Y-48260000D01*
X159234767Y-48312268D01*
X159215667Y-48302334D01*
X159215667Y-48302334D01*
G37*
X159215667Y-48302334D02*
X159208067Y-48226974D01*
X159215667Y-48217667D01*
X159253418Y-48226384D01*
X159258000Y-48260000D01*
X159234767Y-48312268D01*
X159215667Y-48302334D01*
G36*
X155469167Y-48365834D02*
X155461567Y-48290474D01*
X155469167Y-48281167D01*
X155506918Y-48289884D01*
X155511500Y-48323500D01*
X155488267Y-48375768D01*
X155469167Y-48365834D01*
X155469167Y-48365834D01*
G37*
X155469167Y-48365834D02*
X155461567Y-48290474D01*
X155469167Y-48281167D01*
X155506918Y-48289884D01*
X155511500Y-48323500D01*
X155488267Y-48375768D01*
X155469167Y-48365834D01*
G36*
X155532667Y-48556334D02*
X155525067Y-48480974D01*
X155532667Y-48471667D01*
X155570418Y-48480384D01*
X155575000Y-48514000D01*
X155551767Y-48566268D01*
X155532667Y-48556334D01*
X155532667Y-48556334D01*
G37*
X155532667Y-48556334D02*
X155525067Y-48480974D01*
X155532667Y-48471667D01*
X155570418Y-48480384D01*
X155575000Y-48514000D01*
X155551767Y-48566268D01*
X155532667Y-48556334D01*
G36*
X155575000Y-48672750D02*
X155606750Y-48641000D01*
X155638500Y-48672750D01*
X155606750Y-48704500D01*
X155575000Y-48672750D01*
X155575000Y-48672750D01*
G37*
X155575000Y-48672750D02*
X155606750Y-48641000D01*
X155638500Y-48672750D01*
X155606750Y-48704500D01*
X155575000Y-48672750D01*
G36*
X158896923Y-48980983D02*
X158908750Y-48958500D01*
X158968581Y-48897858D01*
X158979746Y-48895000D01*
X158984078Y-48936018D01*
X158972250Y-48958500D01*
X158912420Y-49019143D01*
X158901255Y-49022000D01*
X158896923Y-48980983D01*
X158896923Y-48980983D01*
G37*
X158896923Y-48980983D02*
X158908750Y-48958500D01*
X158968581Y-48897858D01*
X158979746Y-48895000D01*
X158984078Y-48936018D01*
X158972250Y-48958500D01*
X158912420Y-49019143D01*
X158901255Y-49022000D01*
X158896923Y-48980983D01*
G36*
X156400500Y-49561750D02*
X156432250Y-49530000D01*
X156464000Y-49561750D01*
X156432250Y-49593500D01*
X156400500Y-49561750D01*
X156400500Y-49561750D01*
G37*
X156400500Y-49561750D02*
X156432250Y-49530000D01*
X156464000Y-49561750D01*
X156432250Y-49593500D01*
X156400500Y-49561750D01*
G36*
X156527500Y-49625250D02*
X156559250Y-49593500D01*
X156591000Y-49625250D01*
X156559250Y-49657000D01*
X156527500Y-49625250D01*
X156527500Y-49625250D01*
G37*
X156527500Y-49625250D02*
X156559250Y-49593500D01*
X156591000Y-49625250D01*
X156559250Y-49657000D01*
X156527500Y-49625250D01*
G36*
X157988000Y-49688750D02*
X158019750Y-49657000D01*
X158051500Y-49688750D01*
X158019750Y-49720500D01*
X157988000Y-49688750D01*
X157988000Y-49688750D01*
G37*
X157988000Y-49688750D02*
X158019750Y-49657000D01*
X158051500Y-49688750D01*
X158019750Y-49720500D01*
X157988000Y-49688750D01*
M02*
