G04 #@! TF.FileFunction,Legend,Bot*
%FSLAX46Y46*%
G04 Gerber Fmt 4.6, Leading zero omitted, Abs format (unit mm)*
G04 Created by KiCad (PCBNEW 4.0.6) date Mon Aug 21 13:09:47 2017*
%MOMM*%
%LPD*%
G01*
G04 APERTURE LIST*
%ADD10C,0.100000*%
%ADD11C,0.250000*%
%ADD12C,0.300000*%
%ADD13C,0.500000*%
%ADD14C,0.120000*%
%ADD15C,0.150000*%
G04 APERTURE END LIST*
D10*
D11*
X203628096Y-48994381D02*
X203628096Y-47994381D01*
X203247143Y-47994381D01*
X203151905Y-48042000D01*
X203104286Y-48089619D01*
X203056667Y-48184857D01*
X203056667Y-48327714D01*
X203104286Y-48422952D01*
X203151905Y-48470571D01*
X203247143Y-48518190D01*
X203628096Y-48518190D01*
X202199524Y-48327714D02*
X202199524Y-48994381D01*
X202628096Y-48327714D02*
X202628096Y-48851524D01*
X202580477Y-48946762D01*
X202485239Y-48994381D01*
X202342381Y-48994381D01*
X202247143Y-48946762D01*
X202199524Y-48899143D01*
X201580477Y-48994381D02*
X201675715Y-48946762D01*
X201723334Y-48851524D01*
X201723334Y-47994381D01*
X201056667Y-48994381D02*
X201151905Y-48946762D01*
X201199524Y-48851524D01*
X201199524Y-47994381D01*
X199389999Y-48042000D02*
X199485237Y-47994381D01*
X199628094Y-47994381D01*
X199770952Y-48042000D01*
X199866190Y-48137238D01*
X199913809Y-48232476D01*
X199961428Y-48422952D01*
X199961428Y-48565810D01*
X199913809Y-48756286D01*
X199866190Y-48851524D01*
X199770952Y-48946762D01*
X199628094Y-48994381D01*
X199532856Y-48994381D01*
X199389999Y-48946762D01*
X199342380Y-48899143D01*
X199342380Y-48565810D01*
X199532856Y-48565810D01*
X198913809Y-48994381D02*
X198913809Y-47994381D01*
X198532856Y-47994381D01*
X198437618Y-48042000D01*
X198389999Y-48089619D01*
X198342380Y-48184857D01*
X198342380Y-48327714D01*
X198389999Y-48422952D01*
X198437618Y-48470571D01*
X198532856Y-48518190D01*
X198913809Y-48518190D01*
X197913809Y-48994381D02*
X197913809Y-47994381D01*
X197247143Y-47994381D02*
X197056666Y-47994381D01*
X196961428Y-48042000D01*
X196866190Y-48137238D01*
X196818571Y-48327714D01*
X196818571Y-48661048D01*
X196866190Y-48851524D01*
X196961428Y-48946762D01*
X197056666Y-48994381D01*
X197247143Y-48994381D01*
X197342381Y-48946762D01*
X197437619Y-48851524D01*
X197485238Y-48661048D01*
X197485238Y-48327714D01*
X197437619Y-48137238D01*
X197342381Y-48042000D01*
X197247143Y-47994381D01*
X196199524Y-47994381D02*
X196104285Y-47994381D01*
X196009047Y-48042000D01*
X195961428Y-48089619D01*
X195913809Y-48184857D01*
X195866190Y-48375333D01*
X195866190Y-48613429D01*
X195913809Y-48803905D01*
X195961428Y-48899143D01*
X196009047Y-48946762D01*
X196104285Y-48994381D01*
X196199524Y-48994381D01*
X196294762Y-48946762D01*
X196342381Y-48899143D01*
X196390000Y-48803905D01*
X196437619Y-48613429D01*
X196437619Y-48375333D01*
X196390000Y-48184857D01*
X196342381Y-48089619D01*
X196294762Y-48042000D01*
X196199524Y-47994381D01*
X201747144Y-50744381D02*
X201842382Y-50696762D01*
X201890001Y-50601524D01*
X201890001Y-49744381D01*
X201223334Y-50744381D02*
X201318572Y-50696762D01*
X201366191Y-50649143D01*
X201413810Y-50553905D01*
X201413810Y-50268190D01*
X201366191Y-50172952D01*
X201318572Y-50125333D01*
X201223334Y-50077714D01*
X201080476Y-50077714D01*
X200985238Y-50125333D01*
X200937619Y-50172952D01*
X200890000Y-50268190D01*
X200890000Y-50553905D01*
X200937619Y-50649143D01*
X200985238Y-50696762D01*
X201080476Y-50744381D01*
X201223334Y-50744381D01*
X200556667Y-50077714D02*
X200366191Y-50744381D01*
X200175714Y-50268190D01*
X199985238Y-50744381D01*
X199794762Y-50077714D01*
X198794762Y-50077714D02*
X198413810Y-50077714D01*
X198651905Y-49744381D02*
X198651905Y-50601524D01*
X198604286Y-50696762D01*
X198509048Y-50744381D01*
X198413810Y-50744381D01*
X197937619Y-50744381D02*
X198032857Y-50696762D01*
X198080476Y-50649143D01*
X198128095Y-50553905D01*
X198128095Y-50268190D01*
X198080476Y-50172952D01*
X198032857Y-50125333D01*
X197937619Y-50077714D01*
X197794761Y-50077714D01*
X197699523Y-50125333D01*
X197651904Y-50172952D01*
X197604285Y-50268190D01*
X197604285Y-50553905D01*
X197651904Y-50649143D01*
X197699523Y-50696762D01*
X197794761Y-50744381D01*
X197937619Y-50744381D01*
X202413810Y-52494381D02*
X202413810Y-51494381D01*
X202413810Y-51875333D02*
X202318572Y-51827714D01*
X202128095Y-51827714D01*
X202032857Y-51875333D01*
X201985238Y-51922952D01*
X201937619Y-52018190D01*
X201937619Y-52303905D01*
X201985238Y-52399143D01*
X202032857Y-52446762D01*
X202128095Y-52494381D01*
X202318572Y-52494381D01*
X202413810Y-52446762D01*
X201366191Y-52494381D02*
X201461429Y-52446762D01*
X201509048Y-52399143D01*
X201556667Y-52303905D01*
X201556667Y-52018190D01*
X201509048Y-51922952D01*
X201461429Y-51875333D01*
X201366191Y-51827714D01*
X201223333Y-51827714D01*
X201128095Y-51875333D01*
X201080476Y-51922952D01*
X201032857Y-52018190D01*
X201032857Y-52303905D01*
X201080476Y-52399143D01*
X201128095Y-52446762D01*
X201223333Y-52494381D01*
X201366191Y-52494381D01*
X200461429Y-52494381D02*
X200556667Y-52446762D01*
X200604286Y-52399143D01*
X200651905Y-52303905D01*
X200651905Y-52018190D01*
X200604286Y-51922952D01*
X200556667Y-51875333D01*
X200461429Y-51827714D01*
X200318571Y-51827714D01*
X200223333Y-51875333D01*
X200175714Y-51922952D01*
X200128095Y-52018190D01*
X200128095Y-52303905D01*
X200175714Y-52399143D01*
X200223333Y-52446762D01*
X200318571Y-52494381D01*
X200461429Y-52494381D01*
X199842381Y-51827714D02*
X199461429Y-51827714D01*
X199699524Y-51494381D02*
X199699524Y-52351524D01*
X199651905Y-52446762D01*
X199556667Y-52494381D01*
X199461429Y-52494381D01*
X198985238Y-52494381D02*
X199080476Y-52446762D01*
X199128095Y-52351524D01*
X199128095Y-51494381D01*
X198461428Y-52494381D02*
X198556666Y-52446762D01*
X198604285Y-52399143D01*
X198651904Y-52303905D01*
X198651904Y-52018190D01*
X198604285Y-51922952D01*
X198556666Y-51875333D01*
X198461428Y-51827714D01*
X198318570Y-51827714D01*
X198223332Y-51875333D01*
X198175713Y-51922952D01*
X198128094Y-52018190D01*
X198128094Y-52303905D01*
X198175713Y-52399143D01*
X198223332Y-52446762D01*
X198318570Y-52494381D01*
X198461428Y-52494381D01*
X197270951Y-52494381D02*
X197270951Y-51970571D01*
X197318570Y-51875333D01*
X197413808Y-51827714D01*
X197604285Y-51827714D01*
X197699523Y-51875333D01*
X197270951Y-52446762D02*
X197366189Y-52494381D01*
X197604285Y-52494381D01*
X197699523Y-52446762D01*
X197747142Y-52351524D01*
X197747142Y-52256286D01*
X197699523Y-52161048D01*
X197604285Y-52113429D01*
X197366189Y-52113429D01*
X197270951Y-52065810D01*
X196366189Y-52494381D02*
X196366189Y-51494381D01*
X196366189Y-52446762D02*
X196461427Y-52494381D01*
X196651904Y-52494381D01*
X196747142Y-52446762D01*
X196794761Y-52399143D01*
X196842380Y-52303905D01*
X196842380Y-52018190D01*
X196794761Y-51922952D01*
X196747142Y-51875333D01*
X196651904Y-51827714D01*
X196461427Y-51827714D01*
X196366189Y-51875333D01*
D12*
X202226285Y-28688000D02*
X201511999Y-28688000D01*
X202369142Y-29116571D02*
X201869142Y-27616571D01*
X201369142Y-29116571D01*
X200869142Y-29116571D02*
X200869142Y-27616571D01*
X200011999Y-29116571D01*
X200011999Y-27616571D01*
X199369142Y-28688000D02*
X198654856Y-28688000D01*
X199511999Y-29116571D02*
X199011999Y-27616571D01*
X198511999Y-29116571D01*
X197297713Y-29116571D02*
X198011999Y-29116571D01*
X198011999Y-27616571D01*
X196511999Y-27616571D02*
X196226285Y-27616571D01*
X196083427Y-27688000D01*
X195940570Y-27830857D01*
X195869142Y-28116571D01*
X195869142Y-28616571D01*
X195940570Y-28902286D01*
X196083427Y-29045143D01*
X196226285Y-29116571D01*
X196511999Y-29116571D01*
X196654856Y-29045143D01*
X196797713Y-28902286D01*
X196869142Y-28616571D01*
X196869142Y-28116571D01*
X196797713Y-27830857D01*
X196654856Y-27688000D01*
X196511999Y-27616571D01*
X194440570Y-27688000D02*
X194583427Y-27616571D01*
X194797713Y-27616571D01*
X195011998Y-27688000D01*
X195154856Y-27830857D01*
X195226284Y-27973714D01*
X195297713Y-28259429D01*
X195297713Y-28473714D01*
X195226284Y-28759429D01*
X195154856Y-28902286D01*
X195011998Y-29045143D01*
X194797713Y-29116571D01*
X194654856Y-29116571D01*
X194440570Y-29045143D01*
X194369141Y-28973714D01*
X194369141Y-28473714D01*
X194654856Y-28473714D01*
X192726284Y-27616571D02*
X191797713Y-27616571D01*
X192297713Y-28188000D01*
X192083427Y-28188000D01*
X191940570Y-28259429D01*
X191869141Y-28330857D01*
X191797713Y-28473714D01*
X191797713Y-28830857D01*
X191869141Y-28973714D01*
X191940570Y-29045143D01*
X192083427Y-29116571D01*
X192511999Y-29116571D01*
X192654856Y-29045143D01*
X192726284Y-28973714D01*
X191154856Y-28973714D02*
X191083428Y-29045143D01*
X191154856Y-29116571D01*
X191226285Y-29045143D01*
X191154856Y-28973714D01*
X191154856Y-29116571D01*
X190583427Y-27616571D02*
X189654856Y-27616571D01*
X190154856Y-28188000D01*
X189940570Y-28188000D01*
X189797713Y-28259429D01*
X189726284Y-28330857D01*
X189654856Y-28473714D01*
X189654856Y-28830857D01*
X189726284Y-28973714D01*
X189797713Y-29045143D01*
X189940570Y-29116571D01*
X190369142Y-29116571D01*
X190511999Y-29045143D01*
X190583427Y-28973714D01*
X189154856Y-28116571D02*
X188797713Y-29116571D01*
X188440571Y-28116571D01*
X186940571Y-28116571D02*
X186369142Y-28116571D01*
X186726285Y-27616571D02*
X186726285Y-28902286D01*
X186654857Y-29045143D01*
X186511999Y-29116571D01*
X186369142Y-29116571D01*
X185654856Y-29116571D02*
X185797714Y-29045143D01*
X185869142Y-28973714D01*
X185940571Y-28830857D01*
X185940571Y-28402286D01*
X185869142Y-28259429D01*
X185797714Y-28188000D01*
X185654856Y-28116571D01*
X185440571Y-28116571D01*
X185297714Y-28188000D01*
X185226285Y-28259429D01*
X185154856Y-28402286D01*
X185154856Y-28830857D01*
X185226285Y-28973714D01*
X185297714Y-29045143D01*
X185440571Y-29116571D01*
X185654856Y-29116571D01*
X182583428Y-29116571D02*
X183440571Y-29116571D01*
X183011999Y-29116571D02*
X183011999Y-27616571D01*
X183154856Y-27830857D01*
X183297714Y-27973714D01*
X183440571Y-28045143D01*
X182083428Y-28116571D02*
X181726285Y-29116571D01*
X181369143Y-28116571D01*
X195619142Y-31666571D02*
X196119142Y-30952286D01*
X196476285Y-31666571D02*
X196476285Y-30166571D01*
X195904857Y-30166571D01*
X195761999Y-30238000D01*
X195690571Y-30309429D01*
X195619142Y-30452286D01*
X195619142Y-30666571D01*
X195690571Y-30809429D01*
X195761999Y-30880857D01*
X195904857Y-30952286D01*
X196476285Y-30952286D01*
X195047714Y-30309429D02*
X194976285Y-30238000D01*
X194833428Y-30166571D01*
X194476285Y-30166571D01*
X194333428Y-30238000D01*
X194261999Y-30309429D01*
X194190571Y-30452286D01*
X194190571Y-30595143D01*
X194261999Y-30809429D01*
X195119142Y-31666571D01*
X194190571Y-31666571D01*
X192404857Y-30880857D02*
X191262000Y-30880857D01*
X191262000Y-31309429D02*
X192404857Y-31309429D01*
X188619143Y-31666571D02*
X189476286Y-31666571D01*
X189047714Y-31666571D02*
X189047714Y-30166571D01*
X189190571Y-30380857D01*
X189333429Y-30523714D01*
X189476286Y-30595143D01*
X187690572Y-30166571D02*
X187547715Y-30166571D01*
X187404858Y-30238000D01*
X187333429Y-30309429D01*
X187262000Y-30452286D01*
X187190572Y-30738000D01*
X187190572Y-31095143D01*
X187262000Y-31380857D01*
X187333429Y-31523714D01*
X187404858Y-31595143D01*
X187547715Y-31666571D01*
X187690572Y-31666571D01*
X187833429Y-31595143D01*
X187904858Y-31523714D01*
X187976286Y-31380857D01*
X188047715Y-31095143D01*
X188047715Y-30738000D01*
X187976286Y-30452286D01*
X187904858Y-30309429D01*
X187833429Y-30238000D01*
X187690572Y-30166571D01*
X186547715Y-31666571D02*
X186547715Y-30166571D01*
X186404858Y-31095143D02*
X185976287Y-31666571D01*
X185976287Y-30666571D02*
X186547715Y-31238000D01*
X195619142Y-34216571D02*
X196119142Y-33502286D01*
X196476285Y-34216571D02*
X196476285Y-32716571D01*
X195904857Y-32716571D01*
X195761999Y-32788000D01*
X195690571Y-32859429D01*
X195619142Y-33002286D01*
X195619142Y-33216571D01*
X195690571Y-33359429D01*
X195761999Y-33430857D01*
X195904857Y-33502286D01*
X196476285Y-33502286D01*
X194190571Y-34216571D02*
X195047714Y-34216571D01*
X194619142Y-34216571D02*
X194619142Y-32716571D01*
X194761999Y-32930857D01*
X194904857Y-33073714D01*
X195047714Y-33145143D01*
X192404857Y-33430857D02*
X191262000Y-33430857D01*
X191262000Y-33859429D02*
X192404857Y-33859429D01*
X189476286Y-32859429D02*
X189404857Y-32788000D01*
X189262000Y-32716571D01*
X188904857Y-32716571D01*
X188762000Y-32788000D01*
X188690571Y-32859429D01*
X188619143Y-33002286D01*
X188619143Y-33145143D01*
X188690571Y-33359429D01*
X189547714Y-34216571D01*
X188619143Y-34216571D01*
X187262000Y-32716571D02*
X187976286Y-32716571D01*
X188047715Y-33430857D01*
X187976286Y-33359429D01*
X187833429Y-33288000D01*
X187476286Y-33288000D01*
X187333429Y-33359429D01*
X187262000Y-33430857D01*
X187190572Y-33573714D01*
X187190572Y-33930857D01*
X187262000Y-34073714D01*
X187333429Y-34145143D01*
X187476286Y-34216571D01*
X187833429Y-34216571D01*
X187976286Y-34145143D01*
X188047715Y-34073714D01*
X186547715Y-34216571D02*
X186547715Y-32716571D01*
X186404858Y-33645143D02*
X185976287Y-34216571D01*
X185976287Y-33216571D02*
X186547715Y-33788000D01*
D13*
X167513143Y-39584286D02*
X169798857Y-39584286D01*
X168656000Y-40727143D02*
X168656000Y-38441429D01*
X205867143Y-39584286D02*
X208152857Y-39584286D01*
D11*
X222249904Y-30488000D02*
X222345142Y-30440381D01*
X222487999Y-30440381D01*
X222630857Y-30488000D01*
X222726095Y-30583238D01*
X222773714Y-30678476D01*
X222821333Y-30868952D01*
X222821333Y-31011810D01*
X222773714Y-31202286D01*
X222726095Y-31297524D01*
X222630857Y-31392762D01*
X222487999Y-31440381D01*
X222392761Y-31440381D01*
X222249904Y-31392762D01*
X222202285Y-31345143D01*
X222202285Y-31011810D01*
X222392761Y-31011810D01*
X221773714Y-31440381D02*
X221773714Y-30440381D01*
X221202285Y-31440381D01*
X221202285Y-30440381D01*
X220726095Y-31440381D02*
X220726095Y-30440381D01*
X220488000Y-30440381D01*
X220345142Y-30488000D01*
X220249904Y-30583238D01*
X220202285Y-30678476D01*
X220154666Y-30868952D01*
X220154666Y-31011810D01*
X220202285Y-31202286D01*
X220249904Y-31297524D01*
X220345142Y-31392762D01*
X220488000Y-31440381D01*
X220726095Y-31440381D01*
D14*
X220218000Y-29838000D02*
X207398000Y-29838000D01*
X207398000Y-29838000D02*
X207398000Y-27058000D01*
X207398000Y-27058000D02*
X220218000Y-27058000D01*
X220218000Y-27058000D02*
X220218000Y-29838000D01*
X221488000Y-29838000D02*
X222878000Y-29838000D01*
X222878000Y-29838000D02*
X222878000Y-28448000D01*
D15*
X209960000Y-44370000D02*
X221960000Y-44370000D01*
X221960000Y-44370000D02*
X221960000Y-34370000D01*
X221960000Y-34370000D02*
X209960000Y-34370000D01*
X209960000Y-44370000D02*
X209960000Y-34370000D01*
X165960000Y-34420000D02*
X153960000Y-34420000D01*
X153960000Y-34420000D02*
X153960000Y-44420000D01*
X153960000Y-44420000D02*
X165960000Y-44420000D01*
X165960000Y-34420000D02*
X165960000Y-44420000D01*
X221312857Y-46236000D02*
X221408095Y-46188381D01*
X221550952Y-46188381D01*
X221693810Y-46236000D01*
X221789048Y-46331238D01*
X221836667Y-46426476D01*
X221884286Y-46616952D01*
X221884286Y-46759810D01*
X221836667Y-46950286D01*
X221789048Y-47045524D01*
X221693810Y-47140762D01*
X221550952Y-47188381D01*
X221455714Y-47188381D01*
X221312857Y-47140762D01*
X221265238Y-47093143D01*
X221265238Y-46759810D01*
X221455714Y-46759810D01*
X220836667Y-47188381D02*
X220836667Y-46188381D01*
X220265238Y-47188381D01*
X220265238Y-46188381D01*
X219789048Y-47188381D02*
X219789048Y-46188381D01*
X219550953Y-46188381D01*
X219408095Y-46236000D01*
X219312857Y-46331238D01*
X219265238Y-46426476D01*
X219217619Y-46616952D01*
X219217619Y-46759810D01*
X219265238Y-46950286D01*
X219312857Y-47045524D01*
X219408095Y-47140762D01*
X219550953Y-47188381D01*
X219789048Y-47188381D01*
X215979523Y-46236000D02*
X216074761Y-46188381D01*
X216217618Y-46188381D01*
X216360476Y-46236000D01*
X216455714Y-46331238D01*
X216503333Y-46426476D01*
X216550952Y-46616952D01*
X216550952Y-46759810D01*
X216503333Y-46950286D01*
X216455714Y-47045524D01*
X216360476Y-47140762D01*
X216217618Y-47188381D01*
X216122380Y-47188381D01*
X215979523Y-47140762D01*
X215931904Y-47093143D01*
X215931904Y-46759810D01*
X216122380Y-46759810D01*
X215503333Y-47188381D02*
X215503333Y-46188381D01*
X215122380Y-46188381D01*
X215027142Y-46236000D01*
X214979523Y-46283619D01*
X214931904Y-46378857D01*
X214931904Y-46521714D01*
X214979523Y-46616952D01*
X215027142Y-46664571D01*
X215122380Y-46712190D01*
X215503333Y-46712190D01*
X214503333Y-47188381D02*
X214503333Y-46188381D01*
X213836667Y-46188381D02*
X213646190Y-46188381D01*
X213550952Y-46236000D01*
X213455714Y-46331238D01*
X213408095Y-46521714D01*
X213408095Y-46855048D01*
X213455714Y-47045524D01*
X213550952Y-47140762D01*
X213646190Y-47188381D01*
X213836667Y-47188381D01*
X213931905Y-47140762D01*
X214027143Y-47045524D01*
X214074762Y-46855048D01*
X214074762Y-46521714D01*
X214027143Y-46331238D01*
X213931905Y-46236000D01*
X213836667Y-46188381D01*
X212789048Y-46188381D02*
X212693809Y-46188381D01*
X212598571Y-46236000D01*
X212550952Y-46283619D01*
X212503333Y-46378857D01*
X212455714Y-46569333D01*
X212455714Y-46807429D01*
X212503333Y-46997905D01*
X212550952Y-47093143D01*
X212598571Y-47140762D01*
X212693809Y-47188381D01*
X212789048Y-47188381D01*
X212884286Y-47140762D01*
X212931905Y-47093143D01*
X212979524Y-46997905D01*
X213027143Y-46807429D01*
X213027143Y-46569333D01*
X212979524Y-46378857D01*
X212931905Y-46283619D01*
X212884286Y-46236000D01*
X212789048Y-46188381D01*
X169727048Y-33472381D02*
X170060382Y-32996190D01*
X170298477Y-33472381D02*
X170298477Y-32472381D01*
X169917524Y-32472381D01*
X169822286Y-32520000D01*
X169774667Y-32567619D01*
X169727048Y-32662857D01*
X169727048Y-32805714D01*
X169774667Y-32900952D01*
X169822286Y-32948571D01*
X169917524Y-32996190D01*
X170298477Y-32996190D01*
X169298477Y-32948571D02*
X168965143Y-32948571D01*
X168822286Y-33472381D02*
X169298477Y-33472381D01*
X169298477Y-32472381D01*
X168822286Y-32472381D01*
X168441334Y-33424762D02*
X168298477Y-33472381D01*
X168060381Y-33472381D01*
X167965143Y-33424762D01*
X167917524Y-33377143D01*
X167869905Y-33281905D01*
X167869905Y-33186667D01*
X167917524Y-33091429D01*
X167965143Y-33043810D01*
X168060381Y-32996190D01*
X168250858Y-32948571D01*
X168346096Y-32900952D01*
X168393715Y-32853333D01*
X168441334Y-32758095D01*
X168441334Y-32662857D01*
X168393715Y-32567619D01*
X168346096Y-32520000D01*
X168250858Y-32472381D01*
X168012762Y-32472381D01*
X167869905Y-32520000D01*
X167441334Y-32948571D02*
X167108000Y-32948571D01*
X166965143Y-33472381D02*
X167441334Y-33472381D01*
X167441334Y-32472381D01*
X166965143Y-32472381D01*
X166679429Y-32472381D02*
X166108000Y-32472381D01*
X166393715Y-33472381D02*
X166393715Y-32472381D01*
X162965142Y-32520000D02*
X163060380Y-32472381D01*
X163203237Y-32472381D01*
X163346095Y-32520000D01*
X163441333Y-32615238D01*
X163488952Y-32710476D01*
X163536571Y-32900952D01*
X163536571Y-33043810D01*
X163488952Y-33234286D01*
X163441333Y-33329524D01*
X163346095Y-33424762D01*
X163203237Y-33472381D01*
X163107999Y-33472381D01*
X162965142Y-33424762D01*
X162917523Y-33377143D01*
X162917523Y-33043810D01*
X163107999Y-33043810D01*
X162488952Y-33472381D02*
X162488952Y-32472381D01*
X161917523Y-33472381D01*
X161917523Y-32472381D01*
X161441333Y-33472381D02*
X161441333Y-32472381D01*
X161203238Y-32472381D01*
X161060380Y-32520000D01*
X160965142Y-32615238D01*
X160917523Y-32710476D01*
X160869904Y-32900952D01*
X160869904Y-33043810D01*
X160917523Y-33234286D01*
X160965142Y-33329524D01*
X161060380Y-33424762D01*
X161203238Y-33472381D01*
X161441333Y-33472381D01*
X158575048Y-33186667D02*
X158098857Y-33186667D01*
X158670286Y-33472381D02*
X158336953Y-32472381D01*
X158003619Y-33472381D01*
X157670286Y-33472381D02*
X157670286Y-32472381D01*
X157098857Y-33472381D01*
X157098857Y-32472381D01*
X156670286Y-33186667D02*
X156194095Y-33186667D01*
X156765524Y-33472381D02*
X156432191Y-32472381D01*
X156098857Y-33472381D01*
X155289333Y-33472381D02*
X155765524Y-33472381D01*
X155765524Y-32472381D01*
X154765524Y-32472381D02*
X154575047Y-32472381D01*
X154479809Y-32520000D01*
X154384571Y-32615238D01*
X154336952Y-32805714D01*
X154336952Y-33139048D01*
X154384571Y-33329524D01*
X154479809Y-33424762D01*
X154575047Y-33472381D01*
X154765524Y-33472381D01*
X154860762Y-33424762D01*
X154956000Y-33329524D01*
X155003619Y-33139048D01*
X155003619Y-32805714D01*
X154956000Y-32615238D01*
X154860762Y-32520000D01*
X154765524Y-32472381D01*
X153384571Y-32520000D02*
X153479809Y-32472381D01*
X153622666Y-32472381D01*
X153765524Y-32520000D01*
X153860762Y-32615238D01*
X153908381Y-32710476D01*
X153956000Y-32900952D01*
X153956000Y-33043810D01*
X153908381Y-33234286D01*
X153860762Y-33329524D01*
X153765524Y-33424762D01*
X153622666Y-33472381D01*
X153527428Y-33472381D01*
X153384571Y-33424762D01*
X153336952Y-33377143D01*
X153336952Y-33043810D01*
X153527428Y-33043810D01*
X218368190Y-30916571D02*
X218701524Y-30916571D01*
X218701524Y-31440381D02*
X218701524Y-30440381D01*
X218225333Y-30440381D01*
X217987238Y-30440381D02*
X217415809Y-30440381D01*
X217701524Y-31440381D02*
X217701524Y-30440381D01*
X217082476Y-31440381D02*
X217082476Y-30440381D01*
X216844381Y-30440381D01*
X216701523Y-30488000D01*
X216606285Y-30583238D01*
X216558666Y-30678476D01*
X216511047Y-30868952D01*
X216511047Y-31011810D01*
X216558666Y-31202286D01*
X216606285Y-31297524D01*
X216701523Y-31392762D01*
X216844381Y-31440381D01*
X217082476Y-31440381D01*
X216082476Y-31440381D02*
X216082476Y-30440381D01*
X214939619Y-30440381D02*
X214320571Y-30440381D01*
X214653905Y-30821333D01*
X214511047Y-30821333D01*
X214415809Y-30868952D01*
X214368190Y-30916571D01*
X214320571Y-31011810D01*
X214320571Y-31249905D01*
X214368190Y-31345143D01*
X214415809Y-31392762D01*
X214511047Y-31440381D01*
X214796762Y-31440381D01*
X214892000Y-31392762D01*
X214939619Y-31345143D01*
X213892000Y-31345143D02*
X213844381Y-31392762D01*
X213892000Y-31440381D01*
X213939619Y-31392762D01*
X213892000Y-31345143D01*
X213892000Y-31440381D01*
X213511048Y-30440381D02*
X212892000Y-30440381D01*
X213225334Y-30821333D01*
X213082476Y-30821333D01*
X212987238Y-30868952D01*
X212939619Y-30916571D01*
X212892000Y-31011810D01*
X212892000Y-31249905D01*
X212939619Y-31345143D01*
X212987238Y-31392762D01*
X213082476Y-31440381D01*
X213368191Y-31440381D01*
X213463429Y-31392762D01*
X213511048Y-31345143D01*
X212606286Y-30440381D02*
X212272953Y-31440381D01*
X211939619Y-30440381D01*
X192826190Y-46494000D02*
X192921428Y-46446381D01*
X193064285Y-46446381D01*
X193207143Y-46494000D01*
X193302381Y-46589238D01*
X193350000Y-46684476D01*
X193397619Y-46874952D01*
X193397619Y-47017810D01*
X193350000Y-47208286D01*
X193302381Y-47303524D01*
X193207143Y-47398762D01*
X193064285Y-47446381D01*
X192969047Y-47446381D01*
X192826190Y-47398762D01*
X192778571Y-47351143D01*
X192778571Y-47017810D01*
X192969047Y-47017810D01*
X192350000Y-47446381D02*
X192350000Y-46446381D01*
X191969047Y-46446381D01*
X191873809Y-46494000D01*
X191826190Y-46541619D01*
X191778571Y-46636857D01*
X191778571Y-46779714D01*
X191826190Y-46874952D01*
X191873809Y-46922571D01*
X191969047Y-46970190D01*
X192350000Y-46970190D01*
X191350000Y-47446381D02*
X191350000Y-46446381D01*
X190683334Y-46446381D02*
X190492857Y-46446381D01*
X190397619Y-46494000D01*
X190302381Y-46589238D01*
X190254762Y-46779714D01*
X190254762Y-47113048D01*
X190302381Y-47303524D01*
X190397619Y-47398762D01*
X190492857Y-47446381D01*
X190683334Y-47446381D01*
X190778572Y-47398762D01*
X190873810Y-47303524D01*
X190921429Y-47113048D01*
X190921429Y-46779714D01*
X190873810Y-46589238D01*
X190778572Y-46494000D01*
X190683334Y-46446381D01*
X189350000Y-46446381D02*
X189826191Y-46446381D01*
X189873810Y-46922571D01*
X189826191Y-46874952D01*
X189730953Y-46827333D01*
X189492857Y-46827333D01*
X189397619Y-46874952D01*
X189350000Y-46922571D01*
X189302381Y-47017810D01*
X189302381Y-47255905D01*
X189350000Y-47351143D01*
X189397619Y-47398762D01*
X189492857Y-47446381D01*
X189730953Y-47446381D01*
X189826191Y-47398762D01*
X189873810Y-47351143D01*
X208994190Y-46236000D02*
X209089428Y-46188381D01*
X209232285Y-46188381D01*
X209375143Y-46236000D01*
X209470381Y-46331238D01*
X209518000Y-46426476D01*
X209565619Y-46616952D01*
X209565619Y-46759810D01*
X209518000Y-46950286D01*
X209470381Y-47045524D01*
X209375143Y-47140762D01*
X209232285Y-47188381D01*
X209137047Y-47188381D01*
X208994190Y-47140762D01*
X208946571Y-47093143D01*
X208946571Y-46759810D01*
X209137047Y-46759810D01*
X208518000Y-47188381D02*
X208518000Y-46188381D01*
X208137047Y-46188381D01*
X208041809Y-46236000D01*
X207994190Y-46283619D01*
X207946571Y-46378857D01*
X207946571Y-46521714D01*
X207994190Y-46616952D01*
X208041809Y-46664571D01*
X208137047Y-46712190D01*
X208518000Y-46712190D01*
X207518000Y-47188381D02*
X207518000Y-46188381D01*
X206851334Y-46188381D02*
X206660857Y-46188381D01*
X206565619Y-46236000D01*
X206470381Y-46331238D01*
X206422762Y-46521714D01*
X206422762Y-46855048D01*
X206470381Y-47045524D01*
X206565619Y-47140762D01*
X206660857Y-47188381D01*
X206851334Y-47188381D01*
X206946572Y-47140762D01*
X207041810Y-47045524D01*
X207089429Y-46855048D01*
X207089429Y-46521714D01*
X207041810Y-46331238D01*
X206946572Y-46236000D01*
X206851334Y-46188381D01*
X205565619Y-46521714D02*
X205565619Y-47188381D01*
X205803715Y-46140762D02*
X206041810Y-46855048D01*
X205422762Y-46855048D01*
X185840666Y-47442381D02*
X186174000Y-46966190D01*
X186412095Y-47442381D02*
X186412095Y-46442381D01*
X186031142Y-46442381D01*
X185935904Y-46490000D01*
X185888285Y-46537619D01*
X185840666Y-46632857D01*
X185840666Y-46775714D01*
X185888285Y-46870952D01*
X185935904Y-46918571D01*
X186031142Y-46966190D01*
X186412095Y-46966190D01*
X185507333Y-46442381D02*
X184840666Y-47442381D01*
X184840666Y-46442381D02*
X185507333Y-47442381D01*
X175259905Y-32472381D02*
X174688476Y-32472381D01*
X174974191Y-33472381D02*
X174974191Y-32472381D01*
X174450381Y-32472381D02*
X173783714Y-33472381D01*
X173783714Y-32472381D02*
X174450381Y-33472381D01*
M02*
