M48
;DRILL file {KiCad 4.0.6} date Fri Aug 18 15:25:41 2017
;FORMAT={-:-/ absolute / inch / decimal}
FMAT,2
INCH,TZ
T1C0.013
T2C0.039
T3C0.072
%
G90
G05
M72
T1
X6.3Y-1.93
X6.39Y-1.16
X6.63Y-1.37
X6.64Y-1.93
X7.Y-1.93
X7.68Y-1.76
X7.83Y-1.93
X8.04Y-1.76
X8.21Y-1.55
X8.52Y-1.27
X8.52Y-1.34
X8.68Y-1.98
T2
X8.22Y-1.12
X8.32Y-1.12
X8.42Y-1.12
X8.52Y-1.12
X8.62Y-1.12
X8.72Y-1.12
T3
X6.1551Y-1.55
X6.4551Y-1.46
X6.4551Y-1.65
X8.3402Y-1.45
X8.3402Y-1.65
X8.6402Y-1.55
T0
M30
