G04 #@! TF.FileFunction,Legend,Top*
%FSLAX46Y46*%
G04 Gerber Fmt 4.6, Leading zero omitted, Abs format (unit mm)*
G04 Created by KiCad (PCBNEW 4.0.6) date Mon Aug 21 13:20:44 2017*
%MOMM*%
%LPD*%
G01*
G04 APERTURE LIST*
%ADD10C,0.100000*%
%ADD11C,0.300000*%
%ADD12C,0.177800*%
%ADD13C,0.127000*%
%ADD14C,0.152400*%
%ADD15C,0.120000*%
%ADD16C,0.010000*%
%ADD17C,0.150000*%
G04 APERTURE END LIST*
D10*
D11*
X216154001Y-44200838D02*
X216238667Y-44094400D01*
X216408001Y-43987962D01*
X216831334Y-43987962D01*
X217000667Y-44094400D01*
X217085334Y-44200838D01*
X217170001Y-44413714D01*
X217170001Y-44626590D01*
X217085334Y-44945905D01*
X216069334Y-46223162D01*
X217170001Y-46223162D01*
X218270667Y-43987962D02*
X218440000Y-43987962D01*
X218609334Y-44094400D01*
X218694000Y-44200838D01*
X218778667Y-44413714D01*
X218863334Y-44839467D01*
X218863334Y-45371657D01*
X218778667Y-45797410D01*
X218694000Y-46010286D01*
X218609334Y-46116724D01*
X218440000Y-46223162D01*
X218270667Y-46223162D01*
X218101334Y-46116724D01*
X218016667Y-46010286D01*
X217932000Y-45797410D01*
X217847334Y-45371657D01*
X217847334Y-44839467D01*
X217932000Y-44413714D01*
X218016667Y-44200838D01*
X218101334Y-44094400D01*
X218270667Y-43987962D01*
X220556667Y-46223162D02*
X219540667Y-46223162D01*
X220048667Y-46223162D02*
X220048667Y-43987962D01*
X219879333Y-44307276D01*
X219710000Y-44520152D01*
X219540667Y-44626590D01*
X221149333Y-43987962D02*
X222334666Y-43987962D01*
X221572666Y-46223162D01*
D12*
X166531472Y-41285886D02*
X166672986Y-41346362D01*
X166720158Y-41406838D01*
X166767329Y-41527790D01*
X166767329Y-41709219D01*
X166720158Y-41830171D01*
X166672986Y-41890648D01*
X166578644Y-41951124D01*
X166201272Y-41951124D01*
X166201272Y-40681124D01*
X166531472Y-40681124D01*
X166625815Y-40741600D01*
X166672986Y-40802076D01*
X166720158Y-40923029D01*
X166720158Y-41043981D01*
X166672986Y-41164933D01*
X166625815Y-41225410D01*
X166531472Y-41285886D01*
X166201272Y-41285886D01*
X167097529Y-41104457D02*
X167333386Y-41951124D01*
X167569244Y-41104457D02*
X167333386Y-41951124D01*
X167239044Y-42253505D01*
X167191872Y-42313981D01*
X167097529Y-42374457D01*
X167946615Y-41830171D02*
X167993787Y-41890648D01*
X167946615Y-41951124D01*
X167899444Y-41890648D01*
X167946615Y-41830171D01*
X167946615Y-41951124D01*
X167946615Y-41164933D02*
X167993787Y-41225410D01*
X167946615Y-41285886D01*
X167899444Y-41225410D01*
X167946615Y-41164933D01*
X167946615Y-41285886D01*
X169173072Y-41285886D02*
X169503272Y-41285886D01*
X169644786Y-41951124D02*
X169173072Y-41951124D01*
X169173072Y-40681124D01*
X169644786Y-40681124D01*
X169927815Y-41104457D02*
X170305186Y-41104457D01*
X170069329Y-40681124D02*
X170069329Y-41769695D01*
X170116501Y-41890648D01*
X170210843Y-41951124D01*
X170305186Y-41951124D01*
X170635386Y-41951124D02*
X170635386Y-40681124D01*
X171059929Y-41951124D02*
X171059929Y-41285886D01*
X171012758Y-41164933D01*
X170918415Y-41104457D01*
X170776900Y-41104457D01*
X170682558Y-41164933D01*
X170635386Y-41225410D01*
X171956186Y-41951124D02*
X171956186Y-41285886D01*
X171909015Y-41164933D01*
X171814672Y-41104457D01*
X171625986Y-41104457D01*
X171531643Y-41164933D01*
X171956186Y-41890648D02*
X171861843Y-41951124D01*
X171625986Y-41951124D01*
X171531643Y-41890648D01*
X171484472Y-41769695D01*
X171484472Y-41648743D01*
X171531643Y-41527790D01*
X171625986Y-41467314D01*
X171861843Y-41467314D01*
X171956186Y-41406838D01*
X172427900Y-41104457D02*
X172427900Y-41951124D01*
X172427900Y-41225410D02*
X172475072Y-41164933D01*
X172569414Y-41104457D01*
X172710929Y-41104457D01*
X172805272Y-41164933D01*
X172852443Y-41285886D01*
X172852443Y-41951124D01*
X174644957Y-41830171D02*
X174597786Y-41890648D01*
X174456272Y-41951124D01*
X174361929Y-41951124D01*
X174220414Y-41890648D01*
X174126072Y-41769695D01*
X174078900Y-41648743D01*
X174031729Y-41406838D01*
X174031729Y-41225410D01*
X174078900Y-40983505D01*
X174126072Y-40862552D01*
X174220414Y-40741600D01*
X174361929Y-40681124D01*
X174456272Y-40681124D01*
X174597786Y-40741600D01*
X174644957Y-40802076D01*
X175069500Y-41951124D02*
X175069500Y-40681124D01*
X175494043Y-41951124D02*
X175494043Y-41285886D01*
X175446872Y-41164933D01*
X175352529Y-41104457D01*
X175211014Y-41104457D01*
X175116672Y-41164933D01*
X175069500Y-41225410D01*
X175965757Y-41951124D02*
X175965757Y-41104457D01*
X175965757Y-40681124D02*
X175918586Y-40741600D01*
X175965757Y-40802076D01*
X176012929Y-40741600D01*
X175965757Y-40681124D01*
X175965757Y-40802076D01*
X176578985Y-41951124D02*
X176484643Y-41890648D01*
X176437471Y-41769695D01*
X176437471Y-40681124D01*
X177380900Y-41951124D02*
X177380900Y-40681124D01*
X177380900Y-41890648D02*
X177286557Y-41951124D01*
X177097871Y-41951124D01*
X177003529Y-41890648D01*
X176956357Y-41830171D01*
X176909186Y-41709219D01*
X176909186Y-41346362D01*
X176956357Y-41225410D01*
X177003529Y-41164933D01*
X177097871Y-41104457D01*
X177286557Y-41104457D01*
X177380900Y-41164933D01*
X178229986Y-41890648D02*
X178135643Y-41951124D01*
X177946957Y-41951124D01*
X177852614Y-41890648D01*
X177805443Y-41769695D01*
X177805443Y-41285886D01*
X177852614Y-41164933D01*
X177946957Y-41104457D01*
X178135643Y-41104457D01*
X178229986Y-41164933D01*
X178277157Y-41285886D01*
X178277157Y-41406838D01*
X177805443Y-41527790D01*
X178701700Y-41951124D02*
X178701700Y-41104457D01*
X178701700Y-41346362D02*
X178748872Y-41225410D01*
X178796043Y-41164933D01*
X178890386Y-41104457D01*
X178984729Y-41104457D01*
X179314929Y-41951124D02*
X179314929Y-40681124D01*
X179739472Y-41951124D02*
X179739472Y-41285886D01*
X179692301Y-41164933D01*
X179597958Y-41104457D01*
X179456443Y-41104457D01*
X179362101Y-41164933D01*
X179314929Y-41225410D01*
X180352700Y-41951124D02*
X180258358Y-41890648D01*
X180211186Y-41830171D01*
X180164015Y-41709219D01*
X180164015Y-41346362D01*
X180211186Y-41225410D01*
X180258358Y-41164933D01*
X180352700Y-41104457D01*
X180494215Y-41104457D01*
X180588558Y-41164933D01*
X180635729Y-41225410D01*
X180682900Y-41346362D01*
X180682900Y-41709219D01*
X180635729Y-41830171D01*
X180588558Y-41890648D01*
X180494215Y-41951124D01*
X180352700Y-41951124D01*
X181060272Y-41890648D02*
X181154615Y-41951124D01*
X181343300Y-41951124D01*
X181437643Y-41890648D01*
X181484815Y-41769695D01*
X181484815Y-41709219D01*
X181437643Y-41588267D01*
X181343300Y-41527790D01*
X181201786Y-41527790D01*
X181107443Y-41467314D01*
X181060272Y-41346362D01*
X181060272Y-41285886D01*
X181107443Y-41164933D01*
X181201786Y-41104457D01*
X181343300Y-41104457D01*
X181437643Y-41164933D01*
X182286729Y-41890648D02*
X182192386Y-41951124D01*
X182003700Y-41951124D01*
X181909357Y-41890648D01*
X181862186Y-41769695D01*
X181862186Y-41285886D01*
X181909357Y-41164933D01*
X182003700Y-41104457D01*
X182192386Y-41104457D01*
X182286729Y-41164933D01*
X182333900Y-41285886D01*
X182333900Y-41406838D01*
X181862186Y-41527790D01*
X167828686Y-44033924D02*
X167828686Y-43368686D01*
X167781515Y-43247733D01*
X167687172Y-43187257D01*
X167498486Y-43187257D01*
X167404143Y-43247733D01*
X167828686Y-43973448D02*
X167734343Y-44033924D01*
X167498486Y-44033924D01*
X167404143Y-43973448D01*
X167356972Y-43852495D01*
X167356972Y-43731543D01*
X167404143Y-43610590D01*
X167498486Y-43550114D01*
X167734343Y-43550114D01*
X167828686Y-43489638D01*
X168300400Y-43187257D02*
X168300400Y-44033924D01*
X168300400Y-43308210D02*
X168347572Y-43247733D01*
X168441914Y-43187257D01*
X168583429Y-43187257D01*
X168677772Y-43247733D01*
X168724943Y-43368686D01*
X168724943Y-44033924D01*
X169621200Y-44033924D02*
X169621200Y-42763924D01*
X169621200Y-43973448D02*
X169526857Y-44033924D01*
X169338171Y-44033924D01*
X169243829Y-43973448D01*
X169196657Y-43912971D01*
X169149486Y-43792019D01*
X169149486Y-43429162D01*
X169196657Y-43308210D01*
X169243829Y-43247733D01*
X169338171Y-43187257D01*
X169526857Y-43187257D01*
X169621200Y-43247733D01*
X170800486Y-43973448D02*
X170942000Y-44033924D01*
X171177857Y-44033924D01*
X171272200Y-43973448D01*
X171319371Y-43912971D01*
X171366543Y-43792019D01*
X171366543Y-43671067D01*
X171319371Y-43550114D01*
X171272200Y-43489638D01*
X171177857Y-43429162D01*
X170989171Y-43368686D01*
X170894829Y-43308210D01*
X170847657Y-43247733D01*
X170800486Y-43126781D01*
X170800486Y-43005829D01*
X170847657Y-42884876D01*
X170894829Y-42824400D01*
X170989171Y-42763924D01*
X171225029Y-42763924D01*
X171366543Y-42824400D01*
X172215629Y-44033924D02*
X172215629Y-43368686D01*
X172168458Y-43247733D01*
X172074115Y-43187257D01*
X171885429Y-43187257D01*
X171791086Y-43247733D01*
X172215629Y-43973448D02*
X172121286Y-44033924D01*
X171885429Y-44033924D01*
X171791086Y-43973448D01*
X171743915Y-43852495D01*
X171743915Y-43731543D01*
X171791086Y-43610590D01*
X171885429Y-43550114D01*
X172121286Y-43550114D01*
X172215629Y-43489638D01*
X172687343Y-44033924D02*
X172687343Y-43187257D01*
X172687343Y-43308210D02*
X172734515Y-43247733D01*
X172828857Y-43187257D01*
X172970372Y-43187257D01*
X173064715Y-43247733D01*
X173111886Y-43368686D01*
X173111886Y-44033924D01*
X173111886Y-43368686D02*
X173159057Y-43247733D01*
X173253400Y-43187257D01*
X173394915Y-43187257D01*
X173489257Y-43247733D01*
X173536429Y-43368686D01*
X173536429Y-44033924D01*
X174432686Y-44033924D02*
X174432686Y-43368686D01*
X174385515Y-43247733D01*
X174291172Y-43187257D01*
X174102486Y-43187257D01*
X174008143Y-43247733D01*
X174432686Y-43973448D02*
X174338343Y-44033924D01*
X174102486Y-44033924D01*
X174008143Y-43973448D01*
X173960972Y-43852495D01*
X173960972Y-43731543D01*
X174008143Y-43610590D01*
X174102486Y-43550114D01*
X174338343Y-43550114D01*
X174432686Y-43489638D01*
X174904400Y-43187257D02*
X174904400Y-44033924D01*
X174904400Y-43308210D02*
X174951572Y-43247733D01*
X175045914Y-43187257D01*
X175187429Y-43187257D01*
X175281772Y-43247733D01*
X175328943Y-43368686D01*
X175328943Y-44033924D01*
X175659143Y-43187257D02*
X176036514Y-43187257D01*
X175800657Y-42763924D02*
X175800657Y-43852495D01*
X175847829Y-43973448D01*
X175942171Y-44033924D01*
X176036514Y-44033924D01*
X176366714Y-44033924D02*
X176366714Y-42763924D01*
X176791257Y-44033924D02*
X176791257Y-43368686D01*
X176744086Y-43247733D01*
X176649743Y-43187257D01*
X176508228Y-43187257D01*
X176413886Y-43247733D01*
X176366714Y-43308210D01*
X177687514Y-44033924D02*
X177687514Y-43368686D01*
X177640343Y-43247733D01*
X177546000Y-43187257D01*
X177357314Y-43187257D01*
X177262971Y-43247733D01*
X177687514Y-43973448D02*
X177593171Y-44033924D01*
X177357314Y-44033924D01*
X177262971Y-43973448D01*
X177215800Y-43852495D01*
X177215800Y-43731543D01*
X177262971Y-43610590D01*
X177357314Y-43550114D01*
X177593171Y-43550114D01*
X177687514Y-43489638D01*
X179102657Y-43429162D02*
X179102657Y-44033924D01*
X178772457Y-42763924D02*
X179102657Y-43429162D01*
X179432857Y-42763924D01*
X180187600Y-44033924D02*
X180187600Y-43368686D01*
X180140429Y-43247733D01*
X180046086Y-43187257D01*
X179857400Y-43187257D01*
X179763057Y-43247733D01*
X180187600Y-43973448D02*
X180093257Y-44033924D01*
X179857400Y-44033924D01*
X179763057Y-43973448D01*
X179715886Y-43852495D01*
X179715886Y-43731543D01*
X179763057Y-43610590D01*
X179857400Y-43550114D01*
X180093257Y-43550114D01*
X180187600Y-43489638D01*
X180800828Y-44033924D02*
X180706486Y-43973448D01*
X180659314Y-43912971D01*
X180612143Y-43792019D01*
X180612143Y-43429162D01*
X180659314Y-43308210D01*
X180706486Y-43247733D01*
X180800828Y-43187257D01*
X180942343Y-43187257D01*
X181036686Y-43247733D01*
X181083857Y-43308210D01*
X181131028Y-43429162D01*
X181131028Y-43792019D01*
X181083857Y-43912971D01*
X181036686Y-43973448D01*
X180942343Y-44033924D01*
X180800828Y-44033924D01*
D11*
X154531715Y-34992571D02*
X155031715Y-36492571D01*
X155531715Y-34992571D01*
X156603143Y-36421143D02*
X156460286Y-36492571D01*
X156174572Y-36492571D01*
X156031715Y-36421143D01*
X155960286Y-36278286D01*
X155960286Y-35706857D01*
X156031715Y-35564000D01*
X156174572Y-35492571D01*
X156460286Y-35492571D01*
X156603143Y-35564000D01*
X156674572Y-35706857D01*
X156674572Y-35849714D01*
X155960286Y-35992571D01*
X157317429Y-36492571D02*
X157317429Y-35492571D01*
X157317429Y-35778286D02*
X157388857Y-35635429D01*
X157460286Y-35564000D01*
X157603143Y-35492571D01*
X157746000Y-35492571D01*
X160174571Y-36492571D02*
X159317428Y-36492571D01*
X159746000Y-36492571D02*
X159746000Y-34992571D01*
X159603143Y-35206857D01*
X159460285Y-35349714D01*
X159317428Y-35421143D01*
X160817428Y-36349714D02*
X160888856Y-36421143D01*
X160817428Y-36492571D01*
X160745999Y-36421143D01*
X160817428Y-36349714D01*
X160817428Y-36492571D01*
X161817428Y-34992571D02*
X161960285Y-34992571D01*
X162103142Y-35064000D01*
X162174571Y-35135429D01*
X162246000Y-35278286D01*
X162317428Y-35564000D01*
X162317428Y-35921143D01*
X162246000Y-36206857D01*
X162174571Y-36349714D01*
X162103142Y-36421143D01*
X161960285Y-36492571D01*
X161817428Y-36492571D01*
X161674571Y-36421143D01*
X161603142Y-36349714D01*
X161531714Y-36206857D01*
X161460285Y-35921143D01*
X161460285Y-35564000D01*
X161531714Y-35278286D01*
X161603142Y-35135429D01*
X161674571Y-35064000D01*
X161817428Y-34992571D01*
D13*
X204482096Y-48028071D02*
X204820763Y-49528071D01*
X205159429Y-48028071D01*
X205498096Y-49528071D02*
X205498096Y-48528071D01*
X205498096Y-48028071D02*
X205449715Y-48099500D01*
X205498096Y-48170929D01*
X205546477Y-48099500D01*
X205498096Y-48028071D01*
X205498096Y-48170929D01*
X205933525Y-49456643D02*
X206030287Y-49528071D01*
X206223811Y-49528071D01*
X206320572Y-49456643D01*
X206368953Y-49313786D01*
X206368953Y-49242357D01*
X206320572Y-49099500D01*
X206223811Y-49028071D01*
X206078668Y-49028071D01*
X205981906Y-48956643D01*
X205933525Y-48813786D01*
X205933525Y-48742357D01*
X205981906Y-48599500D01*
X206078668Y-48528071D01*
X206223811Y-48528071D01*
X206320572Y-48599500D01*
X206804382Y-49528071D02*
X206804382Y-48528071D01*
X206804382Y-48028071D02*
X206756001Y-48099500D01*
X206804382Y-48170929D01*
X206852763Y-48099500D01*
X206804382Y-48028071D01*
X206804382Y-48170929D01*
X207143049Y-48528071D02*
X207530097Y-48528071D01*
X207288192Y-48028071D02*
X207288192Y-49313786D01*
X207336573Y-49456643D01*
X207433335Y-49528071D01*
X207530097Y-49528071D01*
X208642858Y-49528071D02*
X208642858Y-48028071D01*
X208642858Y-48599500D02*
X208739620Y-48528071D01*
X208933143Y-48528071D01*
X209029905Y-48599500D01*
X209078286Y-48670929D01*
X209126667Y-48813786D01*
X209126667Y-49242357D01*
X209078286Y-49385214D01*
X209029905Y-49456643D01*
X208933143Y-49528071D01*
X208739620Y-49528071D01*
X208642858Y-49456643D01*
X209562096Y-49528071D02*
X209562096Y-48528071D01*
X209562096Y-48028071D02*
X209513715Y-48099500D01*
X209562096Y-48170929D01*
X209610477Y-48099500D01*
X209562096Y-48028071D01*
X209562096Y-48170929D01*
X209900763Y-48528071D02*
X210287811Y-48528071D01*
X210045906Y-48028071D02*
X210045906Y-49313786D01*
X210094287Y-49456643D01*
X210191049Y-49528071D01*
X210287811Y-49528071D01*
X210626477Y-49385214D02*
X210674858Y-49456643D01*
X210626477Y-49528071D01*
X210578096Y-49456643D01*
X210626477Y-49385214D01*
X210626477Y-49528071D01*
X211255430Y-49528071D02*
X211158668Y-49456643D01*
X211110287Y-49313786D01*
X211110287Y-48028071D01*
X211545715Y-48528071D02*
X211787620Y-49528071D01*
X212029524Y-48528071D02*
X211787620Y-49528071D01*
X211690858Y-49885214D01*
X211642477Y-49956643D01*
X211545715Y-50028071D01*
X213142286Y-47956643D02*
X212271429Y-49885214D01*
X213480953Y-48528071D02*
X213480953Y-50028071D01*
X213480953Y-48599500D02*
X213577715Y-48528071D01*
X213771238Y-48528071D01*
X213868000Y-48599500D01*
X213916381Y-48670929D01*
X213964762Y-48813786D01*
X213964762Y-49242357D01*
X213916381Y-49385214D01*
X213868000Y-49456643D01*
X213771238Y-49528071D01*
X213577715Y-49528071D01*
X213480953Y-49456643D01*
X214787238Y-49456643D02*
X214690476Y-49528071D01*
X214496953Y-49528071D01*
X214400191Y-49456643D01*
X214351810Y-49313786D01*
X214351810Y-48742357D01*
X214400191Y-48599500D01*
X214496953Y-48528071D01*
X214690476Y-48528071D01*
X214787238Y-48599500D01*
X214835619Y-48742357D01*
X214835619Y-48885214D01*
X214351810Y-49028071D01*
X215706476Y-49528071D02*
X215706476Y-48742357D01*
X215658095Y-48599500D01*
X215561333Y-48528071D01*
X215367810Y-48528071D01*
X215271048Y-48599500D01*
X215706476Y-49456643D02*
X215609714Y-49528071D01*
X215367810Y-49528071D01*
X215271048Y-49456643D01*
X215222667Y-49313786D01*
X215222667Y-49170929D01*
X215271048Y-49028071D01*
X215367810Y-48956643D01*
X215609714Y-48956643D01*
X215706476Y-48885214D01*
X216190286Y-48528071D02*
X216190286Y-50028071D01*
X216190286Y-48599500D02*
X216287048Y-48528071D01*
X216480571Y-48528071D01*
X216577333Y-48599500D01*
X216625714Y-48670929D01*
X216674095Y-48813786D01*
X216674095Y-49242357D01*
X216625714Y-49385214D01*
X216577333Y-49456643D01*
X216480571Y-49528071D01*
X216287048Y-49528071D01*
X216190286Y-49456643D01*
X217254667Y-49528071D02*
X217157905Y-49456643D01*
X217109524Y-49385214D01*
X217061143Y-49242357D01*
X217061143Y-48813786D01*
X217109524Y-48670929D01*
X217157905Y-48599500D01*
X217254667Y-48528071D01*
X217399809Y-48528071D01*
X217496571Y-48599500D01*
X217544952Y-48670929D01*
X217593333Y-48813786D01*
X217593333Y-49242357D01*
X217544952Y-49385214D01*
X217496571Y-49456643D01*
X217399809Y-49528071D01*
X217254667Y-49528071D01*
X218464190Y-49528071D02*
X218464190Y-48028071D01*
X218464190Y-49456643D02*
X218367428Y-49528071D01*
X218173905Y-49528071D01*
X218077143Y-49456643D01*
X218028762Y-49385214D01*
X217980381Y-49242357D01*
X217980381Y-48813786D01*
X218028762Y-48670929D01*
X218077143Y-48599500D01*
X218173905Y-48528071D01*
X218367428Y-48528071D01*
X218464190Y-48599500D01*
X218899619Y-48170929D02*
X218948000Y-48099500D01*
X219044762Y-48028071D01*
X219286666Y-48028071D01*
X219383428Y-48099500D01*
X219431809Y-48170929D01*
X219480190Y-48313786D01*
X219480190Y-48456643D01*
X219431809Y-48670929D01*
X218851238Y-49528071D01*
X219480190Y-49528071D01*
X220109143Y-48028071D02*
X220205904Y-48028071D01*
X220302666Y-48099500D01*
X220351047Y-48170929D01*
X220399428Y-48313786D01*
X220447809Y-48599500D01*
X220447809Y-48956643D01*
X220399428Y-49242357D01*
X220351047Y-49385214D01*
X220302666Y-49456643D01*
X220205904Y-49528071D01*
X220109143Y-49528071D01*
X220012381Y-49456643D01*
X219964000Y-49385214D01*
X219915619Y-49242357D01*
X219867238Y-48956643D01*
X219867238Y-48599500D01*
X219915619Y-48313786D01*
X219964000Y-48170929D01*
X220012381Y-48099500D01*
X220109143Y-48028071D01*
X221415428Y-49528071D02*
X220834857Y-49528071D01*
X221125143Y-49528071D02*
X221125143Y-48028071D01*
X221028381Y-48242357D01*
X220931619Y-48385214D01*
X220834857Y-48456643D01*
X221754095Y-48028071D02*
X222431428Y-48028071D01*
X221996000Y-49528071D01*
X208788001Y-50905071D02*
X209175049Y-50905071D01*
X208933144Y-51905071D02*
X208933144Y-50619357D01*
X208981525Y-50476500D01*
X209078287Y-50405071D01*
X209175049Y-50405071D01*
X209658858Y-51905071D02*
X209562096Y-51833643D01*
X209513715Y-51762214D01*
X209465334Y-51619357D01*
X209465334Y-51190786D01*
X209513715Y-51047929D01*
X209562096Y-50976500D01*
X209658858Y-50905071D01*
X209804000Y-50905071D01*
X209900762Y-50976500D01*
X209949143Y-51047929D01*
X209997524Y-51190786D01*
X209997524Y-51619357D01*
X209949143Y-51762214D01*
X209900762Y-51833643D01*
X209804000Y-51905071D01*
X209658858Y-51905071D01*
X210432953Y-51905071D02*
X210432953Y-50905071D01*
X210432953Y-51190786D02*
X210481334Y-51047929D01*
X210529715Y-50976500D01*
X210626477Y-50905071D01*
X210723238Y-50905071D01*
X211836000Y-51905071D02*
X211836000Y-50905071D01*
X211836000Y-51047929D02*
X211884381Y-50976500D01*
X211981143Y-50905071D01*
X212126285Y-50905071D01*
X212223047Y-50976500D01*
X212271428Y-51119357D01*
X212271428Y-51905071D01*
X212271428Y-51119357D02*
X212319809Y-50976500D01*
X212416571Y-50905071D01*
X212561714Y-50905071D01*
X212658476Y-50976500D01*
X212706857Y-51119357D01*
X212706857Y-51905071D01*
X213335810Y-51905071D02*
X213239048Y-51833643D01*
X213190667Y-51762214D01*
X213142286Y-51619357D01*
X213142286Y-51190786D01*
X213190667Y-51047929D01*
X213239048Y-50976500D01*
X213335810Y-50905071D01*
X213480952Y-50905071D01*
X213577714Y-50976500D01*
X213626095Y-51047929D01*
X213674476Y-51190786D01*
X213674476Y-51619357D01*
X213626095Y-51762214D01*
X213577714Y-51833643D01*
X213480952Y-51905071D01*
X213335810Y-51905071D01*
X214109905Y-51905071D02*
X214109905Y-50905071D01*
X214109905Y-51190786D02*
X214158286Y-51047929D01*
X214206667Y-50976500D01*
X214303429Y-50905071D01*
X214400190Y-50905071D01*
X215125904Y-51833643D02*
X215029142Y-51905071D01*
X214835619Y-51905071D01*
X214738857Y-51833643D01*
X214690476Y-51690786D01*
X214690476Y-51119357D01*
X214738857Y-50976500D01*
X214835619Y-50905071D01*
X215029142Y-50905071D01*
X215125904Y-50976500D01*
X215174285Y-51119357D01*
X215174285Y-51262214D01*
X214690476Y-51405071D01*
X216383809Y-51905071D02*
X216383809Y-50905071D01*
X216383809Y-50405071D02*
X216335428Y-50476500D01*
X216383809Y-50547929D01*
X216432190Y-50476500D01*
X216383809Y-50405071D01*
X216383809Y-50547929D01*
X216867619Y-50905071D02*
X216867619Y-51905071D01*
X216867619Y-51047929D02*
X216916000Y-50976500D01*
X217012762Y-50905071D01*
X217157904Y-50905071D01*
X217254666Y-50976500D01*
X217303047Y-51119357D01*
X217303047Y-51905071D01*
X217641714Y-50905071D02*
X218028762Y-50905071D01*
X217786857Y-51905071D02*
X217786857Y-50619357D01*
X217835238Y-50476500D01*
X217932000Y-50405071D01*
X218028762Y-50405071D01*
X218512571Y-51905071D02*
X218415809Y-51833643D01*
X218367428Y-51762214D01*
X218319047Y-51619357D01*
X218319047Y-51190786D01*
X218367428Y-51047929D01*
X218415809Y-50976500D01*
X218512571Y-50905071D01*
X218657713Y-50905071D01*
X218754475Y-50976500D01*
X218802856Y-51047929D01*
X218851237Y-51190786D01*
X218851237Y-51619357D01*
X218802856Y-51762214D01*
X218754475Y-51833643D01*
X218657713Y-51905071D01*
X218512571Y-51905071D01*
D14*
X183896000Y-49911000D02*
X183896000Y-50673000D01*
X183896000Y-50673000D02*
X199898000Y-50673000D01*
X199898000Y-50673000D02*
X199898000Y-49911000D01*
D15*
X169326000Y-37220000D02*
X170526000Y-37220000D01*
X170526000Y-38980000D02*
X169326000Y-38980000D01*
X169326000Y-33918000D02*
X170526000Y-33918000D01*
X170526000Y-35678000D02*
X169326000Y-35678000D01*
X205114000Y-41494000D02*
X205114000Y-40294000D01*
X206874000Y-40294000D02*
X206874000Y-41494000D01*
X205324000Y-35424000D02*
X204124000Y-35424000D01*
X204124000Y-33664000D02*
X205324000Y-33664000D01*
X209414000Y-40294000D02*
X209414000Y-41494000D01*
X207654000Y-41494000D02*
X207654000Y-40294000D01*
D16*
G36*
X161889429Y-27759830D02*
X162191266Y-27797496D01*
X162431565Y-27872508D01*
X162642461Y-27994877D01*
X162854820Y-28173420D01*
X162976838Y-28277244D01*
X163083875Y-28321749D01*
X163227603Y-28319085D01*
X163375989Y-28295958D01*
X163568895Y-28271110D01*
X163706828Y-28268813D01*
X163746650Y-28279983D01*
X163761004Y-28354738D01*
X163773091Y-28533050D01*
X163781943Y-28791481D01*
X163786591Y-29106595D01*
X163787054Y-29257525D01*
X163785028Y-29634773D01*
X163776764Y-29916420D01*
X163758404Y-30133840D01*
X163726090Y-30318411D01*
X163675968Y-30501506D01*
X163609983Y-30697982D01*
X163315276Y-31358432D01*
X162923868Y-31936738D01*
X162437371Y-32431155D01*
X161857395Y-32839937D01*
X161431640Y-33058629D01*
X161165758Y-33178857D01*
X160909812Y-33295680D01*
X160712412Y-33386893D01*
X160686750Y-33398924D01*
X160178967Y-33636042D01*
X159764272Y-33823067D01*
X159421742Y-33965851D01*
X159130451Y-34070248D01*
X158869476Y-34142111D01*
X158617891Y-34187292D01*
X158354772Y-34211645D01*
X158059195Y-34221023D01*
X157746090Y-34221486D01*
X157411798Y-34218412D01*
X157121621Y-34213339D01*
X156899800Y-34206875D01*
X156770572Y-34199627D01*
X156749750Y-34196499D01*
X156662785Y-34172430D01*
X156485137Y-34125320D01*
X156249129Y-34063708D01*
X156146500Y-34037142D01*
X155863792Y-33961840D01*
X155595276Y-33886406D01*
X155389325Y-33824524D01*
X155352750Y-33812597D01*
X155140398Y-33750507D01*
X154878553Y-33685968D01*
X154733625Y-33654966D01*
X154502747Y-33594228D01*
X154383225Y-33527464D01*
X154368500Y-33494308D01*
X154411920Y-33414407D01*
X154454424Y-33362708D01*
X155064837Y-33362708D01*
X155367543Y-33440815D01*
X155602320Y-33491213D01*
X155888574Y-33538832D01*
X156083000Y-33563986D01*
X156347852Y-33603328D01*
X156603487Y-33658184D01*
X156749750Y-33701508D01*
X157231391Y-33831075D01*
X157745261Y-33890449D01*
X158244471Y-33876933D01*
X158613226Y-33808669D01*
X158865541Y-33735818D01*
X159113603Y-33660516D01*
X159226250Y-33624509D01*
X159466918Y-33549419D01*
X159716676Y-33477586D01*
X159740984Y-33471029D01*
X159972523Y-33385796D01*
X160196200Y-33268800D01*
X160220831Y-33252685D01*
X160377607Y-33163671D01*
X160613789Y-33049938D01*
X160889441Y-32930205D01*
X161025229Y-32875637D01*
X161649512Y-32577491D01*
X162182186Y-32208707D01*
X162616126Y-31776225D01*
X162944211Y-31286985D01*
X163139410Y-30815971D01*
X163214040Y-30590022D01*
X163283703Y-30408126D01*
X163333612Y-30308808D01*
X163334512Y-30307674D01*
X163364313Y-30214586D01*
X163394251Y-30025645D01*
X163420096Y-29771925D01*
X163432760Y-29585855D01*
X163468287Y-28941111D01*
X162744268Y-29668409D01*
X162397883Y-30006617D01*
X162095836Y-30276035D01*
X161801829Y-30505990D01*
X161479564Y-30725809D01*
X161281040Y-30850603D01*
X161007094Y-31016859D01*
X160770806Y-31155891D01*
X160593584Y-31255426D01*
X160496838Y-31303192D01*
X160487290Y-31305621D01*
X160412043Y-31336354D01*
X160255638Y-31418663D01*
X160045273Y-31537884D01*
X159924750Y-31608906D01*
X159630859Y-31774092D01*
X159310537Y-31938228D01*
X159023914Y-32070795D01*
X158972250Y-32092328D01*
X158709925Y-32200122D01*
X158454002Y-32307606D01*
X158264882Y-32389324D01*
X158057017Y-32472140D01*
X157863291Y-32534525D01*
X157820382Y-32545016D01*
X157481207Y-32625366D01*
X157063375Y-32735907D01*
X156608121Y-32864948D01*
X156156684Y-33000800D01*
X155750301Y-33131770D01*
X155748543Y-33132362D01*
X155064837Y-33362708D01*
X154454424Y-33362708D01*
X154528491Y-33272621D01*
X154697680Y-33092808D01*
X154805432Y-32986624D01*
X155242365Y-32567128D01*
X155264410Y-32110425D01*
X155663927Y-32110425D01*
X155695774Y-32425330D01*
X155696908Y-32429591D01*
X155746243Y-32589882D01*
X155805134Y-32655774D01*
X155915192Y-32655753D01*
X156003769Y-32639667D01*
X156175944Y-32599773D01*
X156423579Y-32534085D01*
X156700971Y-32454877D01*
X156781500Y-32430814D01*
X157054402Y-32350737D01*
X157306451Y-32280947D01*
X157494234Y-32233342D01*
X157532871Y-32224896D01*
X157744492Y-32182104D01*
X157621908Y-32045427D01*
X157439237Y-31750621D01*
X157327829Y-31355987D01*
X157291172Y-30889204D01*
X157735561Y-30889204D01*
X157757673Y-31089279D01*
X157813435Y-31341816D01*
X157889883Y-31602787D01*
X157974051Y-31828166D01*
X158052973Y-31973924D01*
X158056151Y-31977854D01*
X158099886Y-32015308D01*
X158162427Y-32026143D01*
X158262060Y-32004204D01*
X158417072Y-31943338D01*
X158645749Y-31837391D01*
X158966379Y-31680209D01*
X159020640Y-31653270D01*
X159269284Y-31532948D01*
X159478575Y-31437647D01*
X159620618Y-31379745D01*
X159663491Y-31368027D01*
X159776566Y-31335581D01*
X159824791Y-31309753D01*
X159865740Y-31256619D01*
X159834011Y-31172289D01*
X159720306Y-31030329D01*
X159572102Y-30784841D01*
X159465723Y-30450832D01*
X159407931Y-30061845D01*
X159405491Y-29651421D01*
X159408516Y-29618245D01*
X159835119Y-29618245D01*
X159855547Y-29863017D01*
X159871088Y-30008208D01*
X159910035Y-30314735D01*
X159953148Y-30523730D01*
X160008579Y-30664598D01*
X160080120Y-30762153D01*
X160232841Y-30869758D01*
X160391874Y-30856595D01*
X160496250Y-30795414D01*
X160604528Y-30741159D01*
X160704526Y-30705138D01*
X160936471Y-30602585D01*
X161233235Y-30423362D01*
X161572645Y-30183333D01*
X161932530Y-29898357D01*
X162290719Y-29584294D01*
X162354296Y-29524961D01*
X162991444Y-28924250D01*
X162836694Y-28683592D01*
X162705875Y-28520502D01*
X162565905Y-28403758D01*
X162525518Y-28383461D01*
X162371783Y-28320597D01*
X162168851Y-28232330D01*
X162087029Y-28195493D01*
X161686697Y-28080708D01*
X161268657Y-28088495D01*
X160847002Y-28218472D01*
X160822843Y-28229700D01*
X160509429Y-28406518D01*
X160277946Y-28614174D01*
X160083685Y-28893014D01*
X160079223Y-28900719D01*
X159954011Y-29122348D01*
X159876694Y-29288651D01*
X159839616Y-29440370D01*
X159835119Y-29618245D01*
X159408516Y-29618245D01*
X159416952Y-29525752D01*
X159432428Y-29315911D01*
X159424317Y-29181215D01*
X159402760Y-29146500D01*
X159212377Y-29178774D01*
X158959413Y-29263652D01*
X158686904Y-29383213D01*
X158437891Y-29519538D01*
X158328267Y-29593874D01*
X158131340Y-29757087D01*
X158003876Y-29915808D01*
X157907325Y-30123736D01*
X157867892Y-30235183D01*
X157796161Y-30488971D01*
X157748196Y-30738160D01*
X157735561Y-30889204D01*
X157291172Y-30889204D01*
X157289509Y-30868030D01*
X157289500Y-30859714D01*
X157287420Y-30607991D01*
X157276324Y-30457622D01*
X157248922Y-30382972D01*
X157197925Y-30358407D01*
X157146625Y-30357214D01*
X157019598Y-30386562D01*
X156822358Y-30459588D01*
X156596990Y-30560662D01*
X156591000Y-30563589D01*
X156315923Y-30718059D01*
X156120113Y-30882981D01*
X155980008Y-31062373D01*
X155815579Y-31382900D01*
X155707040Y-31747599D01*
X155663927Y-32110425D01*
X155264410Y-32110425D01*
X155268983Y-32015689D01*
X155318421Y-31569246D01*
X155429499Y-31202997D01*
X155618676Y-30878442D01*
X155885323Y-30574071D01*
X156256566Y-30269818D01*
X156658403Y-30059870D01*
X157064450Y-29956989D01*
X157177618Y-29949043D01*
X157378168Y-29936985D01*
X157501770Y-29896057D01*
X157598468Y-29798943D01*
X157683320Y-29672985D01*
X157945449Y-29367362D01*
X158295762Y-29104868D01*
X158697625Y-28905198D01*
X159114403Y-28788046D01*
X159371507Y-28765468D01*
X159542366Y-28757759D01*
X159665215Y-28719357D01*
X159782083Y-28627291D01*
X159935002Y-28458586D01*
X159936825Y-28456469D01*
X160137865Y-28248934D01*
X160367763Y-28048492D01*
X160503337Y-27948500D01*
X160642177Y-27860572D01*
X160762087Y-27803287D01*
X160895688Y-27770093D01*
X161075599Y-27754436D01*
X161334438Y-27749764D01*
X161493916Y-27749500D01*
X161889429Y-27759830D01*
X161889429Y-27759830D01*
G37*
X161889429Y-27759830D02*
X162191266Y-27797496D01*
X162431565Y-27872508D01*
X162642461Y-27994877D01*
X162854820Y-28173420D01*
X162976838Y-28277244D01*
X163083875Y-28321749D01*
X163227603Y-28319085D01*
X163375989Y-28295958D01*
X163568895Y-28271110D01*
X163706828Y-28268813D01*
X163746650Y-28279983D01*
X163761004Y-28354738D01*
X163773091Y-28533050D01*
X163781943Y-28791481D01*
X163786591Y-29106595D01*
X163787054Y-29257525D01*
X163785028Y-29634773D01*
X163776764Y-29916420D01*
X163758404Y-30133840D01*
X163726090Y-30318411D01*
X163675968Y-30501506D01*
X163609983Y-30697982D01*
X163315276Y-31358432D01*
X162923868Y-31936738D01*
X162437371Y-32431155D01*
X161857395Y-32839937D01*
X161431640Y-33058629D01*
X161165758Y-33178857D01*
X160909812Y-33295680D01*
X160712412Y-33386893D01*
X160686750Y-33398924D01*
X160178967Y-33636042D01*
X159764272Y-33823067D01*
X159421742Y-33965851D01*
X159130451Y-34070248D01*
X158869476Y-34142111D01*
X158617891Y-34187292D01*
X158354772Y-34211645D01*
X158059195Y-34221023D01*
X157746090Y-34221486D01*
X157411798Y-34218412D01*
X157121621Y-34213339D01*
X156899800Y-34206875D01*
X156770572Y-34199627D01*
X156749750Y-34196499D01*
X156662785Y-34172430D01*
X156485137Y-34125320D01*
X156249129Y-34063708D01*
X156146500Y-34037142D01*
X155863792Y-33961840D01*
X155595276Y-33886406D01*
X155389325Y-33824524D01*
X155352750Y-33812597D01*
X155140398Y-33750507D01*
X154878553Y-33685968D01*
X154733625Y-33654966D01*
X154502747Y-33594228D01*
X154383225Y-33527464D01*
X154368500Y-33494308D01*
X154411920Y-33414407D01*
X154454424Y-33362708D01*
X155064837Y-33362708D01*
X155367543Y-33440815D01*
X155602320Y-33491213D01*
X155888574Y-33538832D01*
X156083000Y-33563986D01*
X156347852Y-33603328D01*
X156603487Y-33658184D01*
X156749750Y-33701508D01*
X157231391Y-33831075D01*
X157745261Y-33890449D01*
X158244471Y-33876933D01*
X158613226Y-33808669D01*
X158865541Y-33735818D01*
X159113603Y-33660516D01*
X159226250Y-33624509D01*
X159466918Y-33549419D01*
X159716676Y-33477586D01*
X159740984Y-33471029D01*
X159972523Y-33385796D01*
X160196200Y-33268800D01*
X160220831Y-33252685D01*
X160377607Y-33163671D01*
X160613789Y-33049938D01*
X160889441Y-32930205D01*
X161025229Y-32875637D01*
X161649512Y-32577491D01*
X162182186Y-32208707D01*
X162616126Y-31776225D01*
X162944211Y-31286985D01*
X163139410Y-30815971D01*
X163214040Y-30590022D01*
X163283703Y-30408126D01*
X163333612Y-30308808D01*
X163334512Y-30307674D01*
X163364313Y-30214586D01*
X163394251Y-30025645D01*
X163420096Y-29771925D01*
X163432760Y-29585855D01*
X163468287Y-28941111D01*
X162744268Y-29668409D01*
X162397883Y-30006617D01*
X162095836Y-30276035D01*
X161801829Y-30505990D01*
X161479564Y-30725809D01*
X161281040Y-30850603D01*
X161007094Y-31016859D01*
X160770806Y-31155891D01*
X160593584Y-31255426D01*
X160496838Y-31303192D01*
X160487290Y-31305621D01*
X160412043Y-31336354D01*
X160255638Y-31418663D01*
X160045273Y-31537884D01*
X159924750Y-31608906D01*
X159630859Y-31774092D01*
X159310537Y-31938228D01*
X159023914Y-32070795D01*
X158972250Y-32092328D01*
X158709925Y-32200122D01*
X158454002Y-32307606D01*
X158264882Y-32389324D01*
X158057017Y-32472140D01*
X157863291Y-32534525D01*
X157820382Y-32545016D01*
X157481207Y-32625366D01*
X157063375Y-32735907D01*
X156608121Y-32864948D01*
X156156684Y-33000800D01*
X155750301Y-33131770D01*
X155748543Y-33132362D01*
X155064837Y-33362708D01*
X154454424Y-33362708D01*
X154528491Y-33272621D01*
X154697680Y-33092808D01*
X154805432Y-32986624D01*
X155242365Y-32567128D01*
X155264410Y-32110425D01*
X155663927Y-32110425D01*
X155695774Y-32425330D01*
X155696908Y-32429591D01*
X155746243Y-32589882D01*
X155805134Y-32655774D01*
X155915192Y-32655753D01*
X156003769Y-32639667D01*
X156175944Y-32599773D01*
X156423579Y-32534085D01*
X156700971Y-32454877D01*
X156781500Y-32430814D01*
X157054402Y-32350737D01*
X157306451Y-32280947D01*
X157494234Y-32233342D01*
X157532871Y-32224896D01*
X157744492Y-32182104D01*
X157621908Y-32045427D01*
X157439237Y-31750621D01*
X157327829Y-31355987D01*
X157291172Y-30889204D01*
X157735561Y-30889204D01*
X157757673Y-31089279D01*
X157813435Y-31341816D01*
X157889883Y-31602787D01*
X157974051Y-31828166D01*
X158052973Y-31973924D01*
X158056151Y-31977854D01*
X158099886Y-32015308D01*
X158162427Y-32026143D01*
X158262060Y-32004204D01*
X158417072Y-31943338D01*
X158645749Y-31837391D01*
X158966379Y-31680209D01*
X159020640Y-31653270D01*
X159269284Y-31532948D01*
X159478575Y-31437647D01*
X159620618Y-31379745D01*
X159663491Y-31368027D01*
X159776566Y-31335581D01*
X159824791Y-31309753D01*
X159865740Y-31256619D01*
X159834011Y-31172289D01*
X159720306Y-31030329D01*
X159572102Y-30784841D01*
X159465723Y-30450832D01*
X159407931Y-30061845D01*
X159405491Y-29651421D01*
X159408516Y-29618245D01*
X159835119Y-29618245D01*
X159855547Y-29863017D01*
X159871088Y-30008208D01*
X159910035Y-30314735D01*
X159953148Y-30523730D01*
X160008579Y-30664598D01*
X160080120Y-30762153D01*
X160232841Y-30869758D01*
X160391874Y-30856595D01*
X160496250Y-30795414D01*
X160604528Y-30741159D01*
X160704526Y-30705138D01*
X160936471Y-30602585D01*
X161233235Y-30423362D01*
X161572645Y-30183333D01*
X161932530Y-29898357D01*
X162290719Y-29584294D01*
X162354296Y-29524961D01*
X162991444Y-28924250D01*
X162836694Y-28683592D01*
X162705875Y-28520502D01*
X162565905Y-28403758D01*
X162525518Y-28383461D01*
X162371783Y-28320597D01*
X162168851Y-28232330D01*
X162087029Y-28195493D01*
X161686697Y-28080708D01*
X161268657Y-28088495D01*
X160847002Y-28218472D01*
X160822843Y-28229700D01*
X160509429Y-28406518D01*
X160277946Y-28614174D01*
X160083685Y-28893014D01*
X160079223Y-28900719D01*
X159954011Y-29122348D01*
X159876694Y-29288651D01*
X159839616Y-29440370D01*
X159835119Y-29618245D01*
X159408516Y-29618245D01*
X159416952Y-29525752D01*
X159432428Y-29315911D01*
X159424317Y-29181215D01*
X159402760Y-29146500D01*
X159212377Y-29178774D01*
X158959413Y-29263652D01*
X158686904Y-29383213D01*
X158437891Y-29519538D01*
X158328267Y-29593874D01*
X158131340Y-29757087D01*
X158003876Y-29915808D01*
X157907325Y-30123736D01*
X157867892Y-30235183D01*
X157796161Y-30488971D01*
X157748196Y-30738160D01*
X157735561Y-30889204D01*
X157291172Y-30889204D01*
X157289509Y-30868030D01*
X157289500Y-30859714D01*
X157287420Y-30607991D01*
X157276324Y-30457622D01*
X157248922Y-30382972D01*
X157197925Y-30358407D01*
X157146625Y-30357214D01*
X157019598Y-30386562D01*
X156822358Y-30459588D01*
X156596990Y-30560662D01*
X156591000Y-30563589D01*
X156315923Y-30718059D01*
X156120113Y-30882981D01*
X155980008Y-31062373D01*
X155815579Y-31382900D01*
X155707040Y-31747599D01*
X155663927Y-32110425D01*
X155264410Y-32110425D01*
X155268983Y-32015689D01*
X155318421Y-31569246D01*
X155429499Y-31202997D01*
X155618676Y-30878442D01*
X155885323Y-30574071D01*
X156256566Y-30269818D01*
X156658403Y-30059870D01*
X157064450Y-29956989D01*
X157177618Y-29949043D01*
X157378168Y-29936985D01*
X157501770Y-29896057D01*
X157598468Y-29798943D01*
X157683320Y-29672985D01*
X157945449Y-29367362D01*
X158295762Y-29104868D01*
X158697625Y-28905198D01*
X159114403Y-28788046D01*
X159371507Y-28765468D01*
X159542366Y-28757759D01*
X159665215Y-28719357D01*
X159782083Y-28627291D01*
X159935002Y-28458586D01*
X159936825Y-28456469D01*
X160137865Y-28248934D01*
X160367763Y-28048492D01*
X160503337Y-27948500D01*
X160642177Y-27860572D01*
X160762087Y-27803287D01*
X160895688Y-27770093D01*
X161075599Y-27754436D01*
X161334438Y-27749764D01*
X161493916Y-27749500D01*
X161889429Y-27759830D01*
G36*
X159306503Y-32367447D02*
X159442181Y-32477212D01*
X159510590Y-32608677D01*
X159512000Y-32627942D01*
X159459386Y-32700305D01*
X159330274Y-32781078D01*
X159305625Y-32792387D01*
X159182752Y-32851784D01*
X159170539Y-32879741D01*
X159238377Y-32887820D01*
X159366207Y-32866133D01*
X159416750Y-32829500D01*
X159499037Y-32767735D01*
X159564764Y-32811886D01*
X159575500Y-32870124D01*
X159521222Y-33009706D01*
X159385149Y-33102785D01*
X159207425Y-33138361D01*
X159028192Y-33105433D01*
X158934041Y-33045905D01*
X158853617Y-32981190D01*
X158841762Y-33013364D01*
X158856135Y-33074072D01*
X158832225Y-33229710D01*
X158731179Y-33362093D01*
X158626113Y-33499548D01*
X158581605Y-33623066D01*
X158581834Y-33633118D01*
X158545059Y-33736637D01*
X158496000Y-33763365D01*
X158411427Y-33715571D01*
X158296641Y-33548676D01*
X158194375Y-33351817D01*
X158094931Y-33139437D01*
X158038516Y-33011004D01*
X158313694Y-33011004D01*
X158371234Y-33151174D01*
X158468891Y-33261803D01*
X158560746Y-33266859D01*
X158611565Y-33173944D01*
X158611342Y-33099375D01*
X158558727Y-32955786D01*
X158448375Y-32904458D01*
X158332755Y-32918780D01*
X158313694Y-33011004D01*
X158038516Y-33011004D01*
X158021753Y-32972843D01*
X157988654Y-32883696D01*
X157988000Y-32878873D01*
X158005478Y-32861250D01*
X158750000Y-32861250D01*
X158781750Y-32893000D01*
X158813500Y-32861250D01*
X158781750Y-32829500D01*
X158750000Y-32861250D01*
X158005478Y-32861250D01*
X158039683Y-32826763D01*
X158168272Y-32750794D01*
X158213429Y-32728485D01*
X158392896Y-32662265D01*
X158531440Y-32668375D01*
X158594429Y-32692394D01*
X158708641Y-32731716D01*
X158747937Y-32698413D01*
X158750000Y-32669388D01*
X158762781Y-32637007D01*
X159004000Y-32637007D01*
X159050545Y-32671945D01*
X159099250Y-32661963D01*
X159182801Y-32616891D01*
X159194500Y-32600456D01*
X159142647Y-32578258D01*
X159099250Y-32575500D01*
X159014730Y-32608731D01*
X159004000Y-32637007D01*
X158762781Y-32637007D01*
X158803712Y-32533309D01*
X158933546Y-32406443D01*
X159092548Y-32329333D01*
X159152908Y-32321500D01*
X159306503Y-32367447D01*
X159306503Y-32367447D01*
G37*
X159306503Y-32367447D02*
X159442181Y-32477212D01*
X159510590Y-32608677D01*
X159512000Y-32627942D01*
X159459386Y-32700305D01*
X159330274Y-32781078D01*
X159305625Y-32792387D01*
X159182752Y-32851784D01*
X159170539Y-32879741D01*
X159238377Y-32887820D01*
X159366207Y-32866133D01*
X159416750Y-32829500D01*
X159499037Y-32767735D01*
X159564764Y-32811886D01*
X159575500Y-32870124D01*
X159521222Y-33009706D01*
X159385149Y-33102785D01*
X159207425Y-33138361D01*
X159028192Y-33105433D01*
X158934041Y-33045905D01*
X158853617Y-32981190D01*
X158841762Y-33013364D01*
X158856135Y-33074072D01*
X158832225Y-33229710D01*
X158731179Y-33362093D01*
X158626113Y-33499548D01*
X158581605Y-33623066D01*
X158581834Y-33633118D01*
X158545059Y-33736637D01*
X158496000Y-33763365D01*
X158411427Y-33715571D01*
X158296641Y-33548676D01*
X158194375Y-33351817D01*
X158094931Y-33139437D01*
X158038516Y-33011004D01*
X158313694Y-33011004D01*
X158371234Y-33151174D01*
X158468891Y-33261803D01*
X158560746Y-33266859D01*
X158611565Y-33173944D01*
X158611342Y-33099375D01*
X158558727Y-32955786D01*
X158448375Y-32904458D01*
X158332755Y-32918780D01*
X158313694Y-33011004D01*
X158038516Y-33011004D01*
X158021753Y-32972843D01*
X157988654Y-32883696D01*
X157988000Y-32878873D01*
X158005478Y-32861250D01*
X158750000Y-32861250D01*
X158781750Y-32893000D01*
X158813500Y-32861250D01*
X158781750Y-32829500D01*
X158750000Y-32861250D01*
X158005478Y-32861250D01*
X158039683Y-32826763D01*
X158168272Y-32750794D01*
X158213429Y-32728485D01*
X158392896Y-32662265D01*
X158531440Y-32668375D01*
X158594429Y-32692394D01*
X158708641Y-32731716D01*
X158747937Y-32698413D01*
X158750000Y-32669388D01*
X158762781Y-32637007D01*
X159004000Y-32637007D01*
X159050545Y-32671945D01*
X159099250Y-32661963D01*
X159182801Y-32616891D01*
X159194500Y-32600456D01*
X159142647Y-32578258D01*
X159099250Y-32575500D01*
X159014730Y-32608731D01*
X159004000Y-32637007D01*
X158762781Y-32637007D01*
X158803712Y-32533309D01*
X158933546Y-32406443D01*
X159092548Y-32329333D01*
X159152908Y-32321500D01*
X159306503Y-32367447D01*
G36*
X159923900Y-32029862D02*
X160050878Y-32115329D01*
X160169747Y-32279475D01*
X160252494Y-32475550D01*
X160274000Y-32614152D01*
X160223506Y-32676668D01*
X160103293Y-32761731D01*
X159960256Y-32841600D01*
X159841295Y-32888532D01*
X159805870Y-32891069D01*
X159752402Y-32862206D01*
X159686625Y-32824413D01*
X159590716Y-32706775D01*
X159589898Y-32571531D01*
X159841406Y-32571531D01*
X159858740Y-32630571D01*
X159896968Y-32627093D01*
X159993202Y-32546697D01*
X160008093Y-32515968D01*
X159990759Y-32456928D01*
X159952531Y-32460406D01*
X159856297Y-32540802D01*
X159841406Y-32571531D01*
X159589898Y-32571531D01*
X159589754Y-32547890D01*
X159679453Y-32385770D01*
X159742813Y-32326108D01*
X159836166Y-32239455D01*
X159850331Y-32195763D01*
X159842599Y-32194500D01*
X159746436Y-32235326D01*
X159679821Y-32289750D01*
X159557847Y-32373936D01*
X159472315Y-32364230D01*
X159448500Y-32291213D01*
X159504101Y-32174460D01*
X159639631Y-32077098D01*
X159808181Y-32024916D01*
X159923900Y-32029862D01*
X159923900Y-32029862D01*
G37*
X159923900Y-32029862D02*
X160050878Y-32115329D01*
X160169747Y-32279475D01*
X160252494Y-32475550D01*
X160274000Y-32614152D01*
X160223506Y-32676668D01*
X160103293Y-32761731D01*
X159960256Y-32841600D01*
X159841295Y-32888532D01*
X159805870Y-32891069D01*
X159752402Y-32862206D01*
X159686625Y-32824413D01*
X159590716Y-32706775D01*
X159589898Y-32571531D01*
X159841406Y-32571531D01*
X159858740Y-32630571D01*
X159896968Y-32627093D01*
X159993202Y-32546697D01*
X160008093Y-32515968D01*
X159990759Y-32456928D01*
X159952531Y-32460406D01*
X159856297Y-32540802D01*
X159841406Y-32571531D01*
X159589898Y-32571531D01*
X159589754Y-32547890D01*
X159679453Y-32385770D01*
X159742813Y-32326108D01*
X159836166Y-32239455D01*
X159850331Y-32195763D01*
X159842599Y-32194500D01*
X159746436Y-32235326D01*
X159679821Y-32289750D01*
X159557847Y-32373936D01*
X159472315Y-32364230D01*
X159448500Y-32291213D01*
X159504101Y-32174460D01*
X159639631Y-32077098D01*
X159808181Y-32024916D01*
X159923900Y-32029862D01*
G36*
X162045841Y-30763872D02*
X162147050Y-30923477D01*
X162258866Y-31166499D01*
X162261046Y-31171911D01*
X162449743Y-31641573D01*
X162298496Y-31757874D01*
X162096810Y-31859485D01*
X161911360Y-31855857D01*
X161789900Y-31771822D01*
X161726326Y-31711490D01*
X161691829Y-31749668D01*
X161670776Y-31848888D01*
X161580077Y-32034133D01*
X161467678Y-32127180D01*
X161342035Y-32184561D01*
X161243288Y-32172555D01*
X161114800Y-32088853D01*
X160933046Y-31954476D01*
X160958829Y-32130145D01*
X160943259Y-32295827D01*
X160837463Y-32408881D01*
X160727338Y-32531465D01*
X160688532Y-32649279D01*
X160664355Y-32779333D01*
X160600426Y-32794142D01*
X160502291Y-32697107D01*
X160375500Y-32491630D01*
X160348871Y-32441081D01*
X160222904Y-32180768D01*
X160196269Y-32100817D01*
X160460092Y-32100817D01*
X160503757Y-32212499D01*
X160506833Y-32215666D01*
X160598189Y-32253444D01*
X160710686Y-32251095D01*
X160779265Y-32212397D01*
X160782000Y-32199693D01*
X160739561Y-32037782D01*
X160632033Y-31947790D01*
X160584706Y-31940500D01*
X160492655Y-31990436D01*
X160460092Y-32100817D01*
X160196269Y-32100817D01*
X160164030Y-32004046D01*
X160171204Y-31887333D01*
X160243379Y-31807048D01*
X160318905Y-31765875D01*
X160552376Y-31694473D01*
X160737227Y-31711247D01*
X160840413Y-31797625D01*
X160885042Y-31855251D01*
X160903681Y-31808624D01*
X160906614Y-31727635D01*
X161164034Y-31727635D01*
X161191504Y-31858660D01*
X161234237Y-31922837D01*
X161336842Y-31964581D01*
X161439903Y-31937224D01*
X161480500Y-31866031D01*
X161441982Y-31731023D01*
X161353251Y-31610539D01*
X161316503Y-31591250D01*
X161607500Y-31591250D01*
X161639250Y-31623000D01*
X161671000Y-31591250D01*
X161639250Y-31559500D01*
X161607500Y-31591250D01*
X161316503Y-31591250D01*
X161256015Y-31559500D01*
X161186592Y-31610327D01*
X161164034Y-31727635D01*
X160906614Y-31727635D01*
X160907069Y-31715075D01*
X160932101Y-31551540D01*
X160985199Y-31445200D01*
X161116031Y-31385632D01*
X161298813Y-31372460D01*
X161467272Y-31405685D01*
X161531300Y-31445200D01*
X161586333Y-31474284D01*
X161601897Y-31415392D01*
X161825651Y-31415392D01*
X161858589Y-31490561D01*
X161960172Y-31598979D01*
X162075177Y-31616935D01*
X162146438Y-31560812D01*
X162151751Y-31452670D01*
X162087762Y-31335931D01*
X161991333Y-31268500D01*
X161959304Y-31266842D01*
X161837096Y-31314328D01*
X161825651Y-31415392D01*
X161601897Y-31415392D01*
X161606450Y-31398167D01*
X161607500Y-31348588D01*
X161653910Y-31185784D01*
X161761246Y-31105725D01*
X161882196Y-31005113D01*
X161904121Y-30868962D01*
X161914549Y-30728273D01*
X161965065Y-30696024D01*
X162045841Y-30763872D01*
X162045841Y-30763872D01*
G37*
X162045841Y-30763872D02*
X162147050Y-30923477D01*
X162258866Y-31166499D01*
X162261046Y-31171911D01*
X162449743Y-31641573D01*
X162298496Y-31757874D01*
X162096810Y-31859485D01*
X161911360Y-31855857D01*
X161789900Y-31771822D01*
X161726326Y-31711490D01*
X161691829Y-31749668D01*
X161670776Y-31848888D01*
X161580077Y-32034133D01*
X161467678Y-32127180D01*
X161342035Y-32184561D01*
X161243288Y-32172555D01*
X161114800Y-32088853D01*
X160933046Y-31954476D01*
X160958829Y-32130145D01*
X160943259Y-32295827D01*
X160837463Y-32408881D01*
X160727338Y-32531465D01*
X160688532Y-32649279D01*
X160664355Y-32779333D01*
X160600426Y-32794142D01*
X160502291Y-32697107D01*
X160375500Y-32491630D01*
X160348871Y-32441081D01*
X160222904Y-32180768D01*
X160196269Y-32100817D01*
X160460092Y-32100817D01*
X160503757Y-32212499D01*
X160506833Y-32215666D01*
X160598189Y-32253444D01*
X160710686Y-32251095D01*
X160779265Y-32212397D01*
X160782000Y-32199693D01*
X160739561Y-32037782D01*
X160632033Y-31947790D01*
X160584706Y-31940500D01*
X160492655Y-31990436D01*
X160460092Y-32100817D01*
X160196269Y-32100817D01*
X160164030Y-32004046D01*
X160171204Y-31887333D01*
X160243379Y-31807048D01*
X160318905Y-31765875D01*
X160552376Y-31694473D01*
X160737227Y-31711247D01*
X160840413Y-31797625D01*
X160885042Y-31855251D01*
X160903681Y-31808624D01*
X160906614Y-31727635D01*
X161164034Y-31727635D01*
X161191504Y-31858660D01*
X161234237Y-31922837D01*
X161336842Y-31964581D01*
X161439903Y-31937224D01*
X161480500Y-31866031D01*
X161441982Y-31731023D01*
X161353251Y-31610539D01*
X161316503Y-31591250D01*
X161607500Y-31591250D01*
X161639250Y-31623000D01*
X161671000Y-31591250D01*
X161639250Y-31559500D01*
X161607500Y-31591250D01*
X161316503Y-31591250D01*
X161256015Y-31559500D01*
X161186592Y-31610327D01*
X161164034Y-31727635D01*
X160906614Y-31727635D01*
X160907069Y-31715075D01*
X160932101Y-31551540D01*
X160985199Y-31445200D01*
X161116031Y-31385632D01*
X161298813Y-31372460D01*
X161467272Y-31405685D01*
X161531300Y-31445200D01*
X161586333Y-31474284D01*
X161601897Y-31415392D01*
X161825651Y-31415392D01*
X161858589Y-31490561D01*
X161960172Y-31598979D01*
X162075177Y-31616935D01*
X162146438Y-31560812D01*
X162151751Y-31452670D01*
X162087762Y-31335931D01*
X161991333Y-31268500D01*
X161959304Y-31266842D01*
X161837096Y-31314328D01*
X161825651Y-31415392D01*
X161601897Y-31415392D01*
X161606450Y-31398167D01*
X161607500Y-31348588D01*
X161653910Y-31185784D01*
X161761246Y-31105725D01*
X161882196Y-31005113D01*
X161904121Y-30868962D01*
X161914549Y-30728273D01*
X161965065Y-30696024D01*
X162045841Y-30763872D01*
G36*
X159109172Y-30391902D02*
X159099250Y-30416500D01*
X159042188Y-30477077D01*
X159032002Y-30480000D01*
X159004728Y-30430870D01*
X159004000Y-30416500D01*
X159052815Y-30355440D01*
X159071247Y-30353000D01*
X159109172Y-30391902D01*
X159109172Y-30391902D01*
G37*
X159109172Y-30391902D02*
X159099250Y-30416500D01*
X159042188Y-30477077D01*
X159032002Y-30480000D01*
X159004728Y-30430870D01*
X159004000Y-30416500D01*
X159052815Y-30355440D01*
X159071247Y-30353000D01*
X159109172Y-30391902D01*
G36*
X205232000Y-46577250D02*
X205200250Y-46609000D01*
X205168500Y-46577250D01*
X205200250Y-46545500D01*
X205232000Y-46577250D01*
X205232000Y-46577250D01*
G37*
X205232000Y-46577250D02*
X205200250Y-46609000D01*
X205168500Y-46577250D01*
X205200250Y-46545500D01*
X205232000Y-46577250D01*
G36*
X211163779Y-43738245D02*
X211248260Y-43769079D01*
X211367728Y-43805145D01*
X211484463Y-43799895D01*
X211589016Y-43795367D01*
X211608080Y-43824173D01*
X211638422Y-43861492D01*
X211757644Y-43878410D01*
X211768752Y-43878499D01*
X211887411Y-43886232D01*
X211944124Y-43932226D01*
X211961720Y-44050673D01*
X211963000Y-44169430D01*
X211963000Y-44460360D01*
X211756625Y-44428187D01*
X211540475Y-44386265D01*
X211359750Y-44341475D01*
X211065683Y-44299725D01*
X210779297Y-44330810D01*
X210627557Y-44387539D01*
X210535433Y-44452824D01*
X210553043Y-44505175D01*
X210573296Y-44519353D01*
X210626745Y-44565440D01*
X210566000Y-44578140D01*
X210526326Y-44604159D01*
X210592668Y-44682122D01*
X210620659Y-44706112D01*
X210841381Y-44809422D01*
X211049284Y-44831000D01*
X211217243Y-44843910D01*
X211316515Y-44876491D01*
X211328000Y-44894499D01*
X211363503Y-44948258D01*
X211375625Y-44947745D01*
X211489877Y-44966824D01*
X211645874Y-45037157D01*
X211786408Y-45130386D01*
X211829929Y-45172935D01*
X211924936Y-45237789D01*
X211980006Y-45233239D01*
X212020978Y-45229046D01*
X212013348Y-45249813D01*
X212002264Y-45340195D01*
X212007963Y-45513339D01*
X212022286Y-45668087D01*
X212036698Y-45855689D01*
X212031512Y-45974037D01*
X212013499Y-45997715D01*
X211966004Y-46019862D01*
X211955062Y-46065502D01*
X211942859Y-46201376D01*
X211939187Y-46236954D01*
X211881314Y-46324412D01*
X211836000Y-46353251D01*
X211712571Y-46410936D01*
X211550250Y-46487742D01*
X211413551Y-46533392D01*
X211234963Y-46550857D01*
X210981160Y-46542004D01*
X210820000Y-46528695D01*
X210476092Y-46497635D01*
X210238322Y-46472934D01*
X210086733Y-46445827D01*
X210001366Y-46407547D01*
X209963296Y-46350865D01*
X211788068Y-46350865D01*
X211796754Y-46355000D01*
X211854703Y-46310297D01*
X211867750Y-46291500D01*
X211883931Y-46232134D01*
X211875245Y-46228000D01*
X211817296Y-46272702D01*
X211804250Y-46291500D01*
X211788068Y-46350865D01*
X209963296Y-46350865D01*
X209962263Y-46349328D01*
X209949467Y-46262403D01*
X209943395Y-46143658D01*
X209938693Y-45961273D01*
X209962869Y-45873025D01*
X210026381Y-45847396D01*
X210041820Y-45847000D01*
X210177275Y-45880315D01*
X210225755Y-45913155D01*
X210317674Y-45948684D01*
X210499882Y-45981890D01*
X210735733Y-46006384D01*
X210775629Y-46009045D01*
X211023818Y-46021234D01*
X211176147Y-46016257D01*
X211263248Y-45988285D01*
X211315754Y-45931488D01*
X211331905Y-45903202D01*
X211365611Y-45726768D01*
X211291309Y-45567704D01*
X211127436Y-45455256D01*
X211032512Y-45428233D01*
X210859197Y-45410816D01*
X210730743Y-45423240D01*
X210727261Y-45424499D01*
X210624556Y-45423574D01*
X210595441Y-45398764D01*
X210515767Y-45335393D01*
X210368575Y-45258672D01*
X210337122Y-45245073D01*
X210138395Y-45099445D01*
X210000054Y-44877240D01*
X209946109Y-44623560D01*
X209953396Y-44524230D01*
X210022332Y-44255386D01*
X210120883Y-44058411D01*
X210231671Y-43962470D01*
X210376673Y-43886547D01*
X210444657Y-43836503D01*
X210572637Y-43778921D01*
X210768882Y-43740521D01*
X210982794Y-43725547D01*
X211163779Y-43738245D01*
X211163779Y-43738245D01*
G37*
X211163779Y-43738245D02*
X211248260Y-43769079D01*
X211367728Y-43805145D01*
X211484463Y-43799895D01*
X211589016Y-43795367D01*
X211608080Y-43824173D01*
X211638422Y-43861492D01*
X211757644Y-43878410D01*
X211768752Y-43878499D01*
X211887411Y-43886232D01*
X211944124Y-43932226D01*
X211961720Y-44050673D01*
X211963000Y-44169430D01*
X211963000Y-44460360D01*
X211756625Y-44428187D01*
X211540475Y-44386265D01*
X211359750Y-44341475D01*
X211065683Y-44299725D01*
X210779297Y-44330810D01*
X210627557Y-44387539D01*
X210535433Y-44452824D01*
X210553043Y-44505175D01*
X210573296Y-44519353D01*
X210626745Y-44565440D01*
X210566000Y-44578140D01*
X210526326Y-44604159D01*
X210592668Y-44682122D01*
X210620659Y-44706112D01*
X210841381Y-44809422D01*
X211049284Y-44831000D01*
X211217243Y-44843910D01*
X211316515Y-44876491D01*
X211328000Y-44894499D01*
X211363503Y-44948258D01*
X211375625Y-44947745D01*
X211489877Y-44966824D01*
X211645874Y-45037157D01*
X211786408Y-45130386D01*
X211829929Y-45172935D01*
X211924936Y-45237789D01*
X211980006Y-45233239D01*
X212020978Y-45229046D01*
X212013348Y-45249813D01*
X212002264Y-45340195D01*
X212007963Y-45513339D01*
X212022286Y-45668087D01*
X212036698Y-45855689D01*
X212031512Y-45974037D01*
X212013499Y-45997715D01*
X211966004Y-46019862D01*
X211955062Y-46065502D01*
X211942859Y-46201376D01*
X211939187Y-46236954D01*
X211881314Y-46324412D01*
X211836000Y-46353251D01*
X211712571Y-46410936D01*
X211550250Y-46487742D01*
X211413551Y-46533392D01*
X211234963Y-46550857D01*
X210981160Y-46542004D01*
X210820000Y-46528695D01*
X210476092Y-46497635D01*
X210238322Y-46472934D01*
X210086733Y-46445827D01*
X210001366Y-46407547D01*
X209963296Y-46350865D01*
X211788068Y-46350865D01*
X211796754Y-46355000D01*
X211854703Y-46310297D01*
X211867750Y-46291500D01*
X211883931Y-46232134D01*
X211875245Y-46228000D01*
X211817296Y-46272702D01*
X211804250Y-46291500D01*
X211788068Y-46350865D01*
X209963296Y-46350865D01*
X209962263Y-46349328D01*
X209949467Y-46262403D01*
X209943395Y-46143658D01*
X209938693Y-45961273D01*
X209962869Y-45873025D01*
X210026381Y-45847396D01*
X210041820Y-45847000D01*
X210177275Y-45880315D01*
X210225755Y-45913155D01*
X210317674Y-45948684D01*
X210499882Y-45981890D01*
X210735733Y-46006384D01*
X210775629Y-46009045D01*
X211023818Y-46021234D01*
X211176147Y-46016257D01*
X211263248Y-45988285D01*
X211315754Y-45931488D01*
X211331905Y-45903202D01*
X211365611Y-45726768D01*
X211291309Y-45567704D01*
X211127436Y-45455256D01*
X211032512Y-45428233D01*
X210859197Y-45410816D01*
X210730743Y-45423240D01*
X210727261Y-45424499D01*
X210624556Y-45423574D01*
X210595441Y-45398764D01*
X210515767Y-45335393D01*
X210368575Y-45258672D01*
X210337122Y-45245073D01*
X210138395Y-45099445D01*
X210000054Y-44877240D01*
X209946109Y-44623560D01*
X209953396Y-44524230D01*
X210022332Y-44255386D01*
X210120883Y-44058411D01*
X210231671Y-43962470D01*
X210376673Y-43886547D01*
X210444657Y-43836503D01*
X210572637Y-43778921D01*
X210768882Y-43740521D01*
X210982794Y-43725547D01*
X211163779Y-43738245D01*
G36*
X213704856Y-43752599D02*
X213923496Y-43773706D01*
X214092797Y-43805094D01*
X214164691Y-43836525D01*
X214257719Y-43872576D01*
X214323083Y-43878500D01*
X214393679Y-43899022D01*
X214428721Y-43980676D01*
X214439327Y-44153589D01*
X214439500Y-44194007D01*
X214434521Y-44374372D01*
X214403045Y-44461632D01*
X214320260Y-44465467D01*
X214161353Y-44395560D01*
X214058500Y-44342675D01*
X213874171Y-44287346D01*
X213630700Y-44263155D01*
X213384682Y-44271208D01*
X213192712Y-44312609D01*
X213165325Y-44325234D01*
X213050447Y-44429056D01*
X213057269Y-44545868D01*
X213182225Y-44667732D01*
X213361543Y-44762109D01*
X213553354Y-44836176D01*
X213703553Y-44879095D01*
X213758418Y-44883764D01*
X213884846Y-44903251D01*
X214061988Y-44979272D01*
X214243250Y-45086750D01*
X214382038Y-45200610D01*
X214409947Y-45234407D01*
X214485132Y-45429524D01*
X214497229Y-45676326D01*
X214454741Y-45936266D01*
X214366176Y-46170799D01*
X214240037Y-46341376D01*
X214153751Y-46395536D01*
X214089319Y-46454973D01*
X214093912Y-46487926D01*
X214079517Y-46518839D01*
X214036471Y-46508693D01*
X213936072Y-46507882D01*
X213909219Y-46530177D01*
X213831369Y-46555341D01*
X213671228Y-46556990D01*
X213556405Y-46546257D01*
X213350035Y-46533789D01*
X213183932Y-46548076D01*
X213131898Y-46565280D01*
X213058577Y-46593370D01*
X213069287Y-46553529D01*
X213063246Y-46489644D01*
X213030372Y-46481645D01*
X212917894Y-46465256D01*
X212746446Y-46425259D01*
X212709125Y-46415161D01*
X212553878Y-46360964D01*
X212486704Y-46284129D01*
X212471137Y-46137129D01*
X212471000Y-46104809D01*
X212495009Y-45916047D01*
X212561914Y-45825701D01*
X212562147Y-45825611D01*
X212652915Y-45826674D01*
X212673482Y-45851196D01*
X212760890Y-45919810D01*
X212966489Y-45970048D01*
X213282562Y-46000183D01*
X213354341Y-46003488D01*
X213587328Y-45999378D01*
X213736485Y-45958213D01*
X213816171Y-45898828D01*
X213895020Y-45758719D01*
X213859642Y-45625789D01*
X213722766Y-45510517D01*
X213497123Y-45423380D01*
X213195442Y-45374857D01*
X213178077Y-45373598D01*
X212997315Y-45345058D01*
X212873385Y-45295979D01*
X212851801Y-45275179D01*
X212764599Y-45230868D01*
X212722288Y-45245425D01*
X212671405Y-45259646D01*
X212684774Y-45225714D01*
X212677794Y-45139269D01*
X212640355Y-45104777D01*
X212498260Y-44957513D01*
X212413440Y-44744110D01*
X212390682Y-44507717D01*
X212434772Y-44291479D01*
X212534500Y-44150624D01*
X212588501Y-44087515D01*
X212574349Y-44071019D01*
X212561868Y-44030613D01*
X212597419Y-43974449D01*
X212683691Y-43909665D01*
X212725000Y-43910249D01*
X212800286Y-43894436D01*
X212849447Y-43849825D01*
X212954123Y-43788784D01*
X213012351Y-43792651D01*
X213142362Y-43793242D01*
X213179864Y-43776844D01*
X213290342Y-43751581D01*
X213479572Y-43744362D01*
X213704856Y-43752599D01*
X213704856Y-43752599D01*
G37*
X213704856Y-43752599D02*
X213923496Y-43773706D01*
X214092797Y-43805094D01*
X214164691Y-43836525D01*
X214257719Y-43872576D01*
X214323083Y-43878500D01*
X214393679Y-43899022D01*
X214428721Y-43980676D01*
X214439327Y-44153589D01*
X214439500Y-44194007D01*
X214434521Y-44374372D01*
X214403045Y-44461632D01*
X214320260Y-44465467D01*
X214161353Y-44395560D01*
X214058500Y-44342675D01*
X213874171Y-44287346D01*
X213630700Y-44263155D01*
X213384682Y-44271208D01*
X213192712Y-44312609D01*
X213165325Y-44325234D01*
X213050447Y-44429056D01*
X213057269Y-44545868D01*
X213182225Y-44667732D01*
X213361543Y-44762109D01*
X213553354Y-44836176D01*
X213703553Y-44879095D01*
X213758418Y-44883764D01*
X213884846Y-44903251D01*
X214061988Y-44979272D01*
X214243250Y-45086750D01*
X214382038Y-45200610D01*
X214409947Y-45234407D01*
X214485132Y-45429524D01*
X214497229Y-45676326D01*
X214454741Y-45936266D01*
X214366176Y-46170799D01*
X214240037Y-46341376D01*
X214153751Y-46395536D01*
X214089319Y-46454973D01*
X214093912Y-46487926D01*
X214079517Y-46518839D01*
X214036471Y-46508693D01*
X213936072Y-46507882D01*
X213909219Y-46530177D01*
X213831369Y-46555341D01*
X213671228Y-46556990D01*
X213556405Y-46546257D01*
X213350035Y-46533789D01*
X213183932Y-46548076D01*
X213131898Y-46565280D01*
X213058577Y-46593370D01*
X213069287Y-46553529D01*
X213063246Y-46489644D01*
X213030372Y-46481645D01*
X212917894Y-46465256D01*
X212746446Y-46425259D01*
X212709125Y-46415161D01*
X212553878Y-46360964D01*
X212486704Y-46284129D01*
X212471137Y-46137129D01*
X212471000Y-46104809D01*
X212495009Y-45916047D01*
X212561914Y-45825701D01*
X212562147Y-45825611D01*
X212652915Y-45826674D01*
X212673482Y-45851196D01*
X212760890Y-45919810D01*
X212966489Y-45970048D01*
X213282562Y-46000183D01*
X213354341Y-46003488D01*
X213587328Y-45999378D01*
X213736485Y-45958213D01*
X213816171Y-45898828D01*
X213895020Y-45758719D01*
X213859642Y-45625789D01*
X213722766Y-45510517D01*
X213497123Y-45423380D01*
X213195442Y-45374857D01*
X213178077Y-45373598D01*
X212997315Y-45345058D01*
X212873385Y-45295979D01*
X212851801Y-45275179D01*
X212764599Y-45230868D01*
X212722288Y-45245425D01*
X212671405Y-45259646D01*
X212684774Y-45225714D01*
X212677794Y-45139269D01*
X212640355Y-45104777D01*
X212498260Y-44957513D01*
X212413440Y-44744110D01*
X212390682Y-44507717D01*
X212434772Y-44291479D01*
X212534500Y-44150624D01*
X212588501Y-44087515D01*
X212574349Y-44071019D01*
X212561868Y-44030613D01*
X212597419Y-43974449D01*
X212683691Y-43909665D01*
X212725000Y-43910249D01*
X212800286Y-43894436D01*
X212849447Y-43849825D01*
X212954123Y-43788784D01*
X213012351Y-43792651D01*
X213142362Y-43793242D01*
X213179864Y-43776844D01*
X213290342Y-43751581D01*
X213479572Y-43744362D01*
X213704856Y-43752599D01*
G36*
X202150342Y-43832322D02*
X202281893Y-43855745D01*
X202506768Y-43870452D01*
X202838029Y-43877502D01*
X203078291Y-43878500D01*
X204025500Y-43878500D01*
X204025500Y-44323000D01*
X202755500Y-44323000D01*
X202755500Y-44831000D01*
X203898500Y-44831000D01*
X203898500Y-45334055D01*
X203342875Y-45352402D01*
X202787250Y-45370750D01*
X202768986Y-45920636D01*
X202750722Y-46470523D01*
X202403774Y-46492136D01*
X202056826Y-46513750D01*
X202061926Y-45116750D01*
X202064768Y-44716726D01*
X202069912Y-44368476D01*
X202076883Y-44088775D01*
X202085210Y-43894400D01*
X202094420Y-43802127D01*
X202099054Y-43799125D01*
X202150342Y-43832322D01*
X202150342Y-43832322D01*
G37*
X202150342Y-43832322D02*
X202281893Y-43855745D01*
X202506768Y-43870452D01*
X202838029Y-43877502D01*
X203078291Y-43878500D01*
X204025500Y-43878500D01*
X204025500Y-44323000D01*
X202755500Y-44323000D01*
X202755500Y-44831000D01*
X203898500Y-44831000D01*
X203898500Y-45334055D01*
X203342875Y-45352402D01*
X202787250Y-45370750D01*
X202768986Y-45920636D01*
X202750722Y-46470523D01*
X202403774Y-46492136D01*
X202056826Y-46513750D01*
X202061926Y-45116750D01*
X202064768Y-44716726D01*
X202069912Y-44368476D01*
X202076883Y-44088775D01*
X202085210Y-43894400D01*
X202094420Y-43802127D01*
X202099054Y-43799125D01*
X202150342Y-43832322D01*
G36*
X202882500Y-46513750D02*
X202850750Y-46545500D01*
X202819000Y-46513750D01*
X202850750Y-46482000D01*
X202882500Y-46513750D01*
X202882500Y-46513750D01*
G37*
X202882500Y-46513750D02*
X202850750Y-46545500D01*
X202819000Y-46513750D01*
X202850750Y-46482000D01*
X202882500Y-46513750D01*
G36*
X205853213Y-43843601D02*
X206094853Y-43853834D01*
X206289181Y-43869765D01*
X206407177Y-43891160D01*
X206422625Y-43898122D01*
X206475810Y-43991120D01*
X206501554Y-44151195D01*
X206502000Y-44175403D01*
X206493606Y-44323064D01*
X206452917Y-44373790D01*
X206359125Y-44358071D01*
X206221765Y-44330087D01*
X206007741Y-44300662D01*
X205799820Y-44279505D01*
X205557620Y-44265904D01*
X205405299Y-44279042D01*
X205307635Y-44323766D01*
X205275945Y-44351625D01*
X205178784Y-44500837D01*
X205200854Y-44652228D01*
X205224688Y-44694344D01*
X205306695Y-44744887D01*
X205475736Y-44807539D01*
X205694849Y-44872717D01*
X205927074Y-44930839D01*
X206135451Y-44972323D01*
X206283018Y-44987587D01*
X206327056Y-44980135D01*
X206363547Y-44988116D01*
X206360698Y-45002131D01*
X206387353Y-45081312D01*
X206475861Y-45198282D01*
X206479067Y-45201749D01*
X206618963Y-45438199D01*
X206659077Y-45713376D01*
X206602681Y-45991789D01*
X206453049Y-46237947D01*
X206376663Y-46312106D01*
X206263739Y-46416876D01*
X206213356Y-46483500D01*
X206214270Y-46490812D01*
X206176173Y-46507307D01*
X206042501Y-46516556D01*
X205844447Y-46519015D01*
X205613204Y-46515141D01*
X205379963Y-46505392D01*
X205175917Y-46490225D01*
X205050603Y-46473761D01*
X204806116Y-46409895D01*
X204665145Y-46316216D01*
X204604508Y-46171655D01*
X204597000Y-46061474D01*
X204603180Y-45917586D01*
X204618306Y-45848149D01*
X204620766Y-45847000D01*
X204689966Y-45865896D01*
X204834090Y-45913126D01*
X204890641Y-45932572D01*
X205158444Y-46019056D01*
X205351947Y-46067902D01*
X205455124Y-46075727D01*
X205464232Y-46053652D01*
X205487856Y-46010780D01*
X205549500Y-46001214D01*
X205630684Y-46025244D01*
X205632135Y-46057910D01*
X205651146Y-46084028D01*
X205742484Y-46068890D01*
X205863328Y-46024805D01*
X205970853Y-45964081D01*
X205978125Y-45958453D01*
X206049028Y-45868908D01*
X206057500Y-45835477D01*
X206016076Y-45808177D01*
X205978125Y-45823691D01*
X205930615Y-45843168D01*
X205969641Y-45783848D01*
X205977900Y-45773578D01*
X206020771Y-45680636D01*
X205961337Y-45590223D01*
X205946150Y-45576250D01*
X205826025Y-45507030D01*
X205634917Y-45434540D01*
X205412636Y-45369400D01*
X205198995Y-45322232D01*
X205033804Y-45303657D01*
X204965898Y-45314729D01*
X204924513Y-45319736D01*
X204937360Y-45289883D01*
X204922844Y-45218772D01*
X204861697Y-45183645D01*
X204766167Y-45100704D01*
X204684010Y-44943088D01*
X204672878Y-44909198D01*
X204626479Y-44727322D01*
X204590962Y-44541600D01*
X204571162Y-44386684D01*
X204571916Y-44297227D01*
X204586674Y-44291507D01*
X204635857Y-44264636D01*
X204716988Y-44158493D01*
X204733421Y-44132272D01*
X204828633Y-44004779D01*
X204909447Y-43943066D01*
X204917314Y-43942000D01*
X204958650Y-43905224D01*
X204950986Y-43886164D01*
X204993906Y-43864368D01*
X205134607Y-43849449D01*
X205344071Y-43841173D01*
X205593279Y-43839302D01*
X205853213Y-43843601D01*
X205853213Y-43843601D01*
G37*
X205853213Y-43843601D02*
X206094853Y-43853834D01*
X206289181Y-43869765D01*
X206407177Y-43891160D01*
X206422625Y-43898122D01*
X206475810Y-43991120D01*
X206501554Y-44151195D01*
X206502000Y-44175403D01*
X206493606Y-44323064D01*
X206452917Y-44373790D01*
X206359125Y-44358071D01*
X206221765Y-44330087D01*
X206007741Y-44300662D01*
X205799820Y-44279505D01*
X205557620Y-44265904D01*
X205405299Y-44279042D01*
X205307635Y-44323766D01*
X205275945Y-44351625D01*
X205178784Y-44500837D01*
X205200854Y-44652228D01*
X205224688Y-44694344D01*
X205306695Y-44744887D01*
X205475736Y-44807539D01*
X205694849Y-44872717D01*
X205927074Y-44930839D01*
X206135451Y-44972323D01*
X206283018Y-44987587D01*
X206327056Y-44980135D01*
X206363547Y-44988116D01*
X206360698Y-45002131D01*
X206387353Y-45081312D01*
X206475861Y-45198282D01*
X206479067Y-45201749D01*
X206618963Y-45438199D01*
X206659077Y-45713376D01*
X206602681Y-45991789D01*
X206453049Y-46237947D01*
X206376663Y-46312106D01*
X206263739Y-46416876D01*
X206213356Y-46483500D01*
X206214270Y-46490812D01*
X206176173Y-46507307D01*
X206042501Y-46516556D01*
X205844447Y-46519015D01*
X205613204Y-46515141D01*
X205379963Y-46505392D01*
X205175917Y-46490225D01*
X205050603Y-46473761D01*
X204806116Y-46409895D01*
X204665145Y-46316216D01*
X204604508Y-46171655D01*
X204597000Y-46061474D01*
X204603180Y-45917586D01*
X204618306Y-45848149D01*
X204620766Y-45847000D01*
X204689966Y-45865896D01*
X204834090Y-45913126D01*
X204890641Y-45932572D01*
X205158444Y-46019056D01*
X205351947Y-46067902D01*
X205455124Y-46075727D01*
X205464232Y-46053652D01*
X205487856Y-46010780D01*
X205549500Y-46001214D01*
X205630684Y-46025244D01*
X205632135Y-46057910D01*
X205651146Y-46084028D01*
X205742484Y-46068890D01*
X205863328Y-46024805D01*
X205970853Y-45964081D01*
X205978125Y-45958453D01*
X206049028Y-45868908D01*
X206057500Y-45835477D01*
X206016076Y-45808177D01*
X205978125Y-45823691D01*
X205930615Y-45843168D01*
X205969641Y-45783848D01*
X205977900Y-45773578D01*
X206020771Y-45680636D01*
X205961337Y-45590223D01*
X205946150Y-45576250D01*
X205826025Y-45507030D01*
X205634917Y-45434540D01*
X205412636Y-45369400D01*
X205198995Y-45322232D01*
X205033804Y-45303657D01*
X204965898Y-45314729D01*
X204924513Y-45319736D01*
X204937360Y-45289883D01*
X204922844Y-45218772D01*
X204861697Y-45183645D01*
X204766167Y-45100704D01*
X204684010Y-44943088D01*
X204672878Y-44909198D01*
X204626479Y-44727322D01*
X204590962Y-44541600D01*
X204571162Y-44386684D01*
X204571916Y-44297227D01*
X204586674Y-44291507D01*
X204635857Y-44264636D01*
X204716988Y-44158493D01*
X204733421Y-44132272D01*
X204828633Y-44004779D01*
X204909447Y-43943066D01*
X204917314Y-43942000D01*
X204958650Y-43905224D01*
X204950986Y-43886164D01*
X204993906Y-43864368D01*
X205134607Y-43849449D01*
X205344071Y-43841173D01*
X205593279Y-43839302D01*
X205853213Y-43843601D01*
G36*
X208619290Y-43786212D02*
X208862929Y-43857559D01*
X208950140Y-43901463D01*
X209129431Y-44016659D01*
X209211821Y-44099468D01*
X209194102Y-44139282D01*
X209073070Y-44125497D01*
X209012631Y-44108232D01*
X208866808Y-44053012D01*
X208791023Y-44005608D01*
X208788000Y-43998160D01*
X208732222Y-43985592D01*
X208590043Y-43997793D01*
X208486981Y-44014632D01*
X208292839Y-44041953D01*
X208145174Y-44046866D01*
X208105939Y-44040161D01*
X208006877Y-44058972D01*
X207872896Y-44146463D01*
X207740243Y-44269189D01*
X207645165Y-44393707D01*
X207623422Y-44485361D01*
X207619612Y-44564731D01*
X207590286Y-44577000D01*
X207550818Y-44623753D01*
X207560995Y-44678658D01*
X207550931Y-44793782D01*
X207511378Y-44836436D01*
X207459535Y-44882846D01*
X207504908Y-44893527D01*
X207560830Y-44940975D01*
X207560197Y-45043663D01*
X207506911Y-45145148D01*
X207486250Y-45163402D01*
X207474832Y-45204136D01*
X207518000Y-45212000D01*
X207581219Y-45222206D01*
X207533767Y-45265203D01*
X207518000Y-45275500D01*
X207463603Y-45325892D01*
X207505365Y-45338027D01*
X207580864Y-45391939D01*
X207664117Y-45524307D01*
X207681996Y-45564012D01*
X207770572Y-45721509D01*
X207868274Y-45821021D01*
X207885131Y-45829256D01*
X207999012Y-45892752D01*
X208032636Y-45926417D01*
X208146856Y-46001815D01*
X208338464Y-46047274D01*
X208560330Y-46057826D01*
X208765319Y-46028499D01*
X208820578Y-46009496D01*
X208973740Y-45957211D01*
X209039707Y-45969649D01*
X209046463Y-45993115D01*
X209067561Y-46008434D01*
X209096567Y-45953426D01*
X209104065Y-45942250D01*
X209169000Y-45942250D01*
X209200750Y-45974000D01*
X209232500Y-45942250D01*
X209200750Y-45910500D01*
X209169000Y-45942250D01*
X209104065Y-45942250D01*
X209161523Y-45856612D01*
X209203229Y-45836039D01*
X209322272Y-45803848D01*
X209423181Y-45735717D01*
X209458423Y-45665685D01*
X209454508Y-45656109D01*
X209453953Y-45565278D01*
X209497409Y-45412942D01*
X209512989Y-45373545D01*
X209568633Y-45214058D01*
X209566386Y-45156493D01*
X209518048Y-45196604D01*
X209435417Y-45330141D01*
X209391250Y-45417373D01*
X209202268Y-45701486D01*
X208952957Y-45878546D01*
X208669184Y-45955555D01*
X208337632Y-45942815D01*
X208048555Y-45823855D01*
X207822131Y-45616818D01*
X207678533Y-45339848D01*
X207637241Y-45027564D01*
X207646668Y-44980371D01*
X208057750Y-44980371D01*
X208078566Y-45198310D01*
X208158886Y-45362727D01*
X208244255Y-45461830D01*
X208389128Y-45588237D01*
X208540356Y-45644701D01*
X208730735Y-45656500D01*
X208933203Y-45643211D01*
X209067936Y-45587099D01*
X209192854Y-45463798D01*
X209195105Y-45461127D01*
X209342159Y-45202695D01*
X209376862Y-44929901D01*
X209300103Y-44670874D01*
X209164659Y-44497625D01*
X208931847Y-44354750D01*
X209232500Y-44354750D01*
X209264250Y-44386500D01*
X209296000Y-44354750D01*
X209264250Y-44323000D01*
X209232500Y-44354750D01*
X208931847Y-44354750D01*
X208922642Y-44349101D01*
X208659974Y-44320155D01*
X208398063Y-44410535D01*
X208265126Y-44508291D01*
X208129256Y-44651881D01*
X208069720Y-44798026D01*
X208057750Y-44980371D01*
X207646668Y-44980371D01*
X207703537Y-44695711D01*
X207863860Y-44424453D01*
X208096880Y-44227960D01*
X208381271Y-44120400D01*
X208695706Y-44115941D01*
X208915000Y-44178699D01*
X209086870Y-44244219D01*
X209219250Y-44284610D01*
X209232500Y-44287257D01*
X209322104Y-44342303D01*
X209335687Y-44376678D01*
X209350103Y-44504802D01*
X209351562Y-44517247D01*
X209399280Y-44552289D01*
X209432811Y-44539186D01*
X209476483Y-44531743D01*
X209462618Y-44564268D01*
X209443991Y-44674521D01*
X209460178Y-44798269D01*
X209513219Y-44914798D01*
X209604996Y-44928294D01*
X209624911Y-44922628D01*
X209694317Y-44910521D01*
X209726624Y-44949514D01*
X209729640Y-45066346D01*
X209716110Y-45234920D01*
X209682047Y-45449145D01*
X209625828Y-45657427D01*
X209558978Y-45829919D01*
X209493026Y-45936772D01*
X209440336Y-45949003D01*
X209384011Y-45970924D01*
X209288295Y-46070532D01*
X209254672Y-46113981D01*
X209131805Y-46248595D01*
X209016141Y-46326396D01*
X208995680Y-46331921D01*
X208890021Y-46377447D01*
X208864425Y-46411474D01*
X208797915Y-46446850D01*
X208741730Y-46435891D01*
X208673490Y-46429159D01*
X208686080Y-46471208D01*
X208673480Y-46513383D01*
X208562309Y-46537250D01*
X208339307Y-46545441D01*
X208311750Y-46545500D01*
X208071244Y-46537505D01*
X207949461Y-46512612D01*
X207934954Y-46475196D01*
X207930049Y-46431262D01*
X207851610Y-46445136D01*
X207756025Y-46442831D01*
X207657017Y-46386750D01*
X207708500Y-46386750D01*
X207740250Y-46418500D01*
X207772000Y-46386750D01*
X207740250Y-46355000D01*
X207708500Y-46386750D01*
X207657017Y-46386750D01*
X207630130Y-46371521D01*
X207574359Y-46323250D01*
X207581500Y-46323250D01*
X207613250Y-46355000D01*
X207645000Y-46323250D01*
X207613250Y-46291500D01*
X207581500Y-46323250D01*
X207574359Y-46323250D01*
X207452683Y-46217937D01*
X207387912Y-46155491D01*
X207301734Y-46069250D01*
X208915000Y-46069250D01*
X208946750Y-46101000D01*
X208978500Y-46069250D01*
X208946750Y-46037500D01*
X208915000Y-46069250D01*
X207301734Y-46069250D01*
X207237946Y-46005416D01*
X207178890Y-45942250D01*
X207899000Y-45942250D01*
X207930750Y-45974000D01*
X207962500Y-45942250D01*
X207930750Y-45910500D01*
X207899000Y-45942250D01*
X207178890Y-45942250D01*
X207143135Y-45904007D01*
X207119785Y-45868928D01*
X207126235Y-45872097D01*
X207169075Y-45880464D01*
X207147335Y-45801290D01*
X207128196Y-45757786D01*
X207060906Y-45650922D01*
X207007827Y-45626092D01*
X207004689Y-45624750D01*
X207581500Y-45624750D01*
X207613250Y-45656500D01*
X207645000Y-45624750D01*
X207613250Y-45593000D01*
X207581500Y-45624750D01*
X207004689Y-45624750D01*
X206957863Y-45604729D01*
X206927536Y-45497750D01*
X207518000Y-45497750D01*
X207549750Y-45529500D01*
X207581500Y-45497750D01*
X207549750Y-45466000D01*
X207518000Y-45497750D01*
X206927536Y-45497750D01*
X206925252Y-45489696D01*
X206910220Y-45313160D01*
X206912995Y-45107291D01*
X206933801Y-44904257D01*
X206972866Y-44736229D01*
X206973077Y-44735750D01*
X207454500Y-44735750D01*
X207486250Y-44767500D01*
X207518000Y-44735750D01*
X207486250Y-44704000D01*
X207454500Y-44735750D01*
X206973077Y-44735750D01*
X207001118Y-44672250D01*
X207045654Y-44551532D01*
X207050974Y-44524238D01*
X207100778Y-44436918D01*
X207216545Y-44297874D01*
X207335245Y-44174988D01*
X207467807Y-44050764D01*
X207546242Y-43987455D01*
X207554696Y-43995960D01*
X207535470Y-44049140D01*
X207599719Y-44029132D01*
X207637337Y-44009601D01*
X207683500Y-43973750D01*
X208216500Y-43973750D01*
X208248250Y-44005500D01*
X208280000Y-43973750D01*
X208248250Y-43942000D01*
X208216500Y-43973750D01*
X207683500Y-43973750D01*
X207741767Y-43928499D01*
X207772000Y-43869472D01*
X207818535Y-43829590D01*
X207870548Y-43839228D01*
X207936607Y-43844652D01*
X207933233Y-43819019D01*
X207971395Y-43789080D01*
X208109514Y-43769219D01*
X208303387Y-43763335D01*
X208619290Y-43786212D01*
X208619290Y-43786212D01*
G37*
X208619290Y-43786212D02*
X208862929Y-43857559D01*
X208950140Y-43901463D01*
X209129431Y-44016659D01*
X209211821Y-44099468D01*
X209194102Y-44139282D01*
X209073070Y-44125497D01*
X209012631Y-44108232D01*
X208866808Y-44053012D01*
X208791023Y-44005608D01*
X208788000Y-43998160D01*
X208732222Y-43985592D01*
X208590043Y-43997793D01*
X208486981Y-44014632D01*
X208292839Y-44041953D01*
X208145174Y-44046866D01*
X208105939Y-44040161D01*
X208006877Y-44058972D01*
X207872896Y-44146463D01*
X207740243Y-44269189D01*
X207645165Y-44393707D01*
X207623422Y-44485361D01*
X207619612Y-44564731D01*
X207590286Y-44577000D01*
X207550818Y-44623753D01*
X207560995Y-44678658D01*
X207550931Y-44793782D01*
X207511378Y-44836436D01*
X207459535Y-44882846D01*
X207504908Y-44893527D01*
X207560830Y-44940975D01*
X207560197Y-45043663D01*
X207506911Y-45145148D01*
X207486250Y-45163402D01*
X207474832Y-45204136D01*
X207518000Y-45212000D01*
X207581219Y-45222206D01*
X207533767Y-45265203D01*
X207518000Y-45275500D01*
X207463603Y-45325892D01*
X207505365Y-45338027D01*
X207580864Y-45391939D01*
X207664117Y-45524307D01*
X207681996Y-45564012D01*
X207770572Y-45721509D01*
X207868274Y-45821021D01*
X207885131Y-45829256D01*
X207999012Y-45892752D01*
X208032636Y-45926417D01*
X208146856Y-46001815D01*
X208338464Y-46047274D01*
X208560330Y-46057826D01*
X208765319Y-46028499D01*
X208820578Y-46009496D01*
X208973740Y-45957211D01*
X209039707Y-45969649D01*
X209046463Y-45993115D01*
X209067561Y-46008434D01*
X209096567Y-45953426D01*
X209104065Y-45942250D01*
X209169000Y-45942250D01*
X209200750Y-45974000D01*
X209232500Y-45942250D01*
X209200750Y-45910500D01*
X209169000Y-45942250D01*
X209104065Y-45942250D01*
X209161523Y-45856612D01*
X209203229Y-45836039D01*
X209322272Y-45803848D01*
X209423181Y-45735717D01*
X209458423Y-45665685D01*
X209454508Y-45656109D01*
X209453953Y-45565278D01*
X209497409Y-45412942D01*
X209512989Y-45373545D01*
X209568633Y-45214058D01*
X209566386Y-45156493D01*
X209518048Y-45196604D01*
X209435417Y-45330141D01*
X209391250Y-45417373D01*
X209202268Y-45701486D01*
X208952957Y-45878546D01*
X208669184Y-45955555D01*
X208337632Y-45942815D01*
X208048555Y-45823855D01*
X207822131Y-45616818D01*
X207678533Y-45339848D01*
X207637241Y-45027564D01*
X207646668Y-44980371D01*
X208057750Y-44980371D01*
X208078566Y-45198310D01*
X208158886Y-45362727D01*
X208244255Y-45461830D01*
X208389128Y-45588237D01*
X208540356Y-45644701D01*
X208730735Y-45656500D01*
X208933203Y-45643211D01*
X209067936Y-45587099D01*
X209192854Y-45463798D01*
X209195105Y-45461127D01*
X209342159Y-45202695D01*
X209376862Y-44929901D01*
X209300103Y-44670874D01*
X209164659Y-44497625D01*
X208931847Y-44354750D01*
X209232500Y-44354750D01*
X209264250Y-44386500D01*
X209296000Y-44354750D01*
X209264250Y-44323000D01*
X209232500Y-44354750D01*
X208931847Y-44354750D01*
X208922642Y-44349101D01*
X208659974Y-44320155D01*
X208398063Y-44410535D01*
X208265126Y-44508291D01*
X208129256Y-44651881D01*
X208069720Y-44798026D01*
X208057750Y-44980371D01*
X207646668Y-44980371D01*
X207703537Y-44695711D01*
X207863860Y-44424453D01*
X208096880Y-44227960D01*
X208381271Y-44120400D01*
X208695706Y-44115941D01*
X208915000Y-44178699D01*
X209086870Y-44244219D01*
X209219250Y-44284610D01*
X209232500Y-44287257D01*
X209322104Y-44342303D01*
X209335687Y-44376678D01*
X209350103Y-44504802D01*
X209351562Y-44517247D01*
X209399280Y-44552289D01*
X209432811Y-44539186D01*
X209476483Y-44531743D01*
X209462618Y-44564268D01*
X209443991Y-44674521D01*
X209460178Y-44798269D01*
X209513219Y-44914798D01*
X209604996Y-44928294D01*
X209624911Y-44922628D01*
X209694317Y-44910521D01*
X209726624Y-44949514D01*
X209729640Y-45066346D01*
X209716110Y-45234920D01*
X209682047Y-45449145D01*
X209625828Y-45657427D01*
X209558978Y-45829919D01*
X209493026Y-45936772D01*
X209440336Y-45949003D01*
X209384011Y-45970924D01*
X209288295Y-46070532D01*
X209254672Y-46113981D01*
X209131805Y-46248595D01*
X209016141Y-46326396D01*
X208995680Y-46331921D01*
X208890021Y-46377447D01*
X208864425Y-46411474D01*
X208797915Y-46446850D01*
X208741730Y-46435891D01*
X208673490Y-46429159D01*
X208686080Y-46471208D01*
X208673480Y-46513383D01*
X208562309Y-46537250D01*
X208339307Y-46545441D01*
X208311750Y-46545500D01*
X208071244Y-46537505D01*
X207949461Y-46512612D01*
X207934954Y-46475196D01*
X207930049Y-46431262D01*
X207851610Y-46445136D01*
X207756025Y-46442831D01*
X207657017Y-46386750D01*
X207708500Y-46386750D01*
X207740250Y-46418500D01*
X207772000Y-46386750D01*
X207740250Y-46355000D01*
X207708500Y-46386750D01*
X207657017Y-46386750D01*
X207630130Y-46371521D01*
X207574359Y-46323250D01*
X207581500Y-46323250D01*
X207613250Y-46355000D01*
X207645000Y-46323250D01*
X207613250Y-46291500D01*
X207581500Y-46323250D01*
X207574359Y-46323250D01*
X207452683Y-46217937D01*
X207387912Y-46155491D01*
X207301734Y-46069250D01*
X208915000Y-46069250D01*
X208946750Y-46101000D01*
X208978500Y-46069250D01*
X208946750Y-46037500D01*
X208915000Y-46069250D01*
X207301734Y-46069250D01*
X207237946Y-46005416D01*
X207178890Y-45942250D01*
X207899000Y-45942250D01*
X207930750Y-45974000D01*
X207962500Y-45942250D01*
X207930750Y-45910500D01*
X207899000Y-45942250D01*
X207178890Y-45942250D01*
X207143135Y-45904007D01*
X207119785Y-45868928D01*
X207126235Y-45872097D01*
X207169075Y-45880464D01*
X207147335Y-45801290D01*
X207128196Y-45757786D01*
X207060906Y-45650922D01*
X207007827Y-45626092D01*
X207004689Y-45624750D01*
X207581500Y-45624750D01*
X207613250Y-45656500D01*
X207645000Y-45624750D01*
X207613250Y-45593000D01*
X207581500Y-45624750D01*
X207004689Y-45624750D01*
X206957863Y-45604729D01*
X206927536Y-45497750D01*
X207518000Y-45497750D01*
X207549750Y-45529500D01*
X207581500Y-45497750D01*
X207549750Y-45466000D01*
X207518000Y-45497750D01*
X206927536Y-45497750D01*
X206925252Y-45489696D01*
X206910220Y-45313160D01*
X206912995Y-45107291D01*
X206933801Y-44904257D01*
X206972866Y-44736229D01*
X206973077Y-44735750D01*
X207454500Y-44735750D01*
X207486250Y-44767500D01*
X207518000Y-44735750D01*
X207486250Y-44704000D01*
X207454500Y-44735750D01*
X206973077Y-44735750D01*
X207001118Y-44672250D01*
X207045654Y-44551532D01*
X207050974Y-44524238D01*
X207100778Y-44436918D01*
X207216545Y-44297874D01*
X207335245Y-44174988D01*
X207467807Y-44050764D01*
X207546242Y-43987455D01*
X207554696Y-43995960D01*
X207535470Y-44049140D01*
X207599719Y-44029132D01*
X207637337Y-44009601D01*
X207683500Y-43973750D01*
X208216500Y-43973750D01*
X208248250Y-44005500D01*
X208280000Y-43973750D01*
X208248250Y-43942000D01*
X208216500Y-43973750D01*
X207683500Y-43973750D01*
X207741767Y-43928499D01*
X207772000Y-43869472D01*
X207818535Y-43829590D01*
X207870548Y-43839228D01*
X207936607Y-43844652D01*
X207933233Y-43819019D01*
X207971395Y-43789080D01*
X208109514Y-43769219D01*
X208303387Y-43763335D01*
X208619290Y-43786212D01*
G36*
X212788500Y-46513750D02*
X212756750Y-46545500D01*
X212725000Y-46513750D01*
X212756750Y-46482000D01*
X212788500Y-46513750D01*
X212788500Y-46513750D01*
G37*
X212788500Y-46513750D02*
X212756750Y-46545500D01*
X212725000Y-46513750D01*
X212756750Y-46482000D01*
X212788500Y-46513750D01*
G36*
X204597000Y-46386750D02*
X204565250Y-46418500D01*
X204533500Y-46386750D01*
X204565250Y-46355000D01*
X204597000Y-46386750D01*
X204597000Y-46386750D01*
G37*
X204597000Y-46386750D02*
X204565250Y-46418500D01*
X204533500Y-46386750D01*
X204565250Y-46355000D01*
X204597000Y-46386750D01*
G36*
X207233865Y-46057427D02*
X207279875Y-46092900D01*
X207378597Y-46185585D01*
X207378167Y-46226957D01*
X207367025Y-46228000D01*
X207314019Y-46184605D01*
X207255900Y-46116875D01*
X207200982Y-46041659D01*
X207233865Y-46057427D01*
X207233865Y-46057427D01*
G37*
X207233865Y-46057427D02*
X207279875Y-46092900D01*
X207378597Y-46185585D01*
X207378167Y-46226957D01*
X207367025Y-46228000D01*
X207314019Y-46184605D01*
X207255900Y-46116875D01*
X207200982Y-46041659D01*
X207233865Y-46057427D01*
G36*
X214503000Y-46196250D02*
X214471250Y-46228000D01*
X214439500Y-46196250D01*
X214471250Y-46164500D01*
X214503000Y-46196250D01*
X214503000Y-46196250D01*
G37*
X214503000Y-46196250D02*
X214471250Y-46228000D01*
X214439500Y-46196250D01*
X214471250Y-46164500D01*
X214503000Y-46196250D01*
G36*
X214566500Y-46069250D02*
X214534750Y-46101000D01*
X214503000Y-46069250D01*
X214534750Y-46037500D01*
X214566500Y-46069250D01*
X214566500Y-46069250D01*
G37*
X214566500Y-46069250D02*
X214534750Y-46101000D01*
X214503000Y-46069250D01*
X214534750Y-46037500D01*
X214566500Y-46069250D01*
G36*
X206756000Y-45878750D02*
X206724250Y-45910500D01*
X206692500Y-45878750D01*
X206724250Y-45847000D01*
X206756000Y-45878750D01*
X206756000Y-45878750D01*
G37*
X206756000Y-45878750D02*
X206724250Y-45910500D01*
X206692500Y-45878750D01*
X206724250Y-45847000D01*
X206756000Y-45878750D01*
G36*
X204597000Y-45751750D02*
X204565250Y-45783500D01*
X204533500Y-45751750D01*
X204565250Y-45720000D01*
X204597000Y-45751750D01*
X204597000Y-45751750D01*
G37*
X204597000Y-45751750D02*
X204565250Y-45783500D01*
X204533500Y-45751750D01*
X204565250Y-45720000D01*
X204597000Y-45751750D01*
G36*
X207073500Y-45751750D02*
X207041750Y-45783500D01*
X207010000Y-45751750D01*
X207041750Y-45720000D01*
X207073500Y-45751750D01*
X207073500Y-45751750D01*
G37*
X207073500Y-45751750D02*
X207041750Y-45783500D01*
X207010000Y-45751750D01*
X207041750Y-45720000D01*
X207073500Y-45751750D01*
G36*
X212534500Y-45751750D02*
X212502750Y-45783500D01*
X212471000Y-45751750D01*
X212502750Y-45720000D01*
X212534500Y-45751750D01*
X212534500Y-45751750D01*
G37*
X212534500Y-45751750D02*
X212502750Y-45783500D01*
X212471000Y-45751750D01*
X212502750Y-45720000D01*
X212534500Y-45751750D01*
G36*
X213868000Y-45751750D02*
X213836250Y-45783500D01*
X213804500Y-45751750D01*
X213836250Y-45720000D01*
X213868000Y-45751750D01*
X213868000Y-45751750D01*
G37*
X213868000Y-45751750D02*
X213836250Y-45783500D01*
X213804500Y-45751750D01*
X213836250Y-45720000D01*
X213868000Y-45751750D01*
G36*
X205994000Y-45688250D02*
X205962250Y-45720000D01*
X205930500Y-45688250D01*
X205962250Y-45656500D01*
X205994000Y-45688250D01*
X205994000Y-45688250D01*
G37*
X205994000Y-45688250D02*
X205962250Y-45720000D01*
X205930500Y-45688250D01*
X205962250Y-45656500D01*
X205994000Y-45688250D01*
G36*
X209423000Y-45688250D02*
X209391250Y-45720000D01*
X209359500Y-45688250D01*
X209391250Y-45656500D01*
X209423000Y-45688250D01*
X209423000Y-45688250D01*
G37*
X209423000Y-45688250D02*
X209391250Y-45720000D01*
X209359500Y-45688250D01*
X209391250Y-45656500D01*
X209423000Y-45688250D01*
G36*
X205867000Y-45561250D02*
X205835250Y-45593000D01*
X205803500Y-45561250D01*
X205835250Y-45529500D01*
X205867000Y-45561250D01*
X205867000Y-45561250D01*
G37*
X205867000Y-45561250D02*
X205835250Y-45593000D01*
X205803500Y-45561250D01*
X205835250Y-45529500D01*
X205867000Y-45561250D01*
G36*
X206756000Y-45497750D02*
X206724250Y-45529500D01*
X206692500Y-45497750D01*
X206724250Y-45466000D01*
X206756000Y-45497750D01*
X206756000Y-45497750D01*
G37*
X206756000Y-45497750D02*
X206724250Y-45529500D01*
X206692500Y-45497750D01*
X206724250Y-45466000D01*
X206756000Y-45497750D01*
G36*
X213487000Y-45497750D02*
X213455250Y-45529500D01*
X213423500Y-45497750D01*
X213455250Y-45466000D01*
X213487000Y-45497750D01*
X213487000Y-45497750D01*
G37*
X213487000Y-45497750D02*
X213455250Y-45529500D01*
X213423500Y-45497750D01*
X213455250Y-45466000D01*
X213487000Y-45497750D01*
G36*
X210820000Y-44735750D02*
X210788250Y-44767500D01*
X210756500Y-44735750D01*
X210788250Y-44704000D01*
X210820000Y-44735750D01*
X210820000Y-44735750D01*
G37*
X210820000Y-44735750D02*
X210788250Y-44767500D01*
X210756500Y-44735750D01*
X210788250Y-44704000D01*
X210820000Y-44735750D01*
G36*
X210693000Y-44672250D02*
X210661250Y-44704000D01*
X210629500Y-44672250D01*
X210661250Y-44640500D01*
X210693000Y-44672250D01*
X210693000Y-44672250D01*
G37*
X210693000Y-44672250D02*
X210661250Y-44704000D01*
X210629500Y-44672250D01*
X210661250Y-44640500D01*
X210693000Y-44672250D01*
G36*
X206565500Y-44481750D02*
X206533750Y-44513500D01*
X206502000Y-44481750D01*
X206533750Y-44450000D01*
X206565500Y-44481750D01*
X206565500Y-44481750D01*
G37*
X206565500Y-44481750D02*
X206533750Y-44513500D01*
X206502000Y-44481750D01*
X206533750Y-44450000D01*
X206565500Y-44481750D01*
G36*
X207946875Y-44159208D02*
X207926803Y-44214930D01*
X207847832Y-44309297D01*
X207749816Y-44401096D01*
X207672605Y-44449116D01*
X207665681Y-44450000D01*
X207674631Y-44410421D01*
X207751938Y-44313026D01*
X207771764Y-44291500D01*
X207877766Y-44192535D01*
X207942871Y-44157243D01*
X207946875Y-44159208D01*
X207946875Y-44159208D01*
G37*
X207946875Y-44159208D02*
X207926803Y-44214930D01*
X207847832Y-44309297D01*
X207749816Y-44401096D01*
X207672605Y-44449116D01*
X207665681Y-44450000D01*
X207674631Y-44410421D01*
X207751938Y-44313026D01*
X207771764Y-44291500D01*
X207877766Y-44192535D01*
X207942871Y-44157243D01*
X207946875Y-44159208D01*
G36*
X213169500Y-44418250D02*
X213137750Y-44450000D01*
X213106000Y-44418250D01*
X213137750Y-44386500D01*
X213169500Y-44418250D01*
X213169500Y-44418250D01*
G37*
X213169500Y-44418250D02*
X213137750Y-44450000D01*
X213106000Y-44418250D01*
X213137750Y-44386500D01*
X213169500Y-44418250D01*
G36*
X208089500Y-44100750D02*
X208057750Y-44132500D01*
X208026000Y-44100750D01*
X208057750Y-44069000D01*
X208089500Y-44100750D01*
X208089500Y-44100750D01*
G37*
X208089500Y-44100750D02*
X208057750Y-44132500D01*
X208026000Y-44100750D01*
X208057750Y-44069000D01*
X208089500Y-44100750D01*
G36*
X207708500Y-43910250D02*
X207676750Y-43942000D01*
X207645000Y-43910250D01*
X207676750Y-43878500D01*
X207708500Y-43910250D01*
X207708500Y-43910250D01*
G37*
X207708500Y-43910250D02*
X207676750Y-43942000D01*
X207645000Y-43910250D01*
X207676750Y-43878500D01*
X207708500Y-43910250D01*
G36*
X205422500Y-43719750D02*
X205390750Y-43751500D01*
X205359000Y-43719750D01*
X205390750Y-43688000D01*
X205422500Y-43719750D01*
X205422500Y-43719750D01*
G37*
X205422500Y-43719750D02*
X205390750Y-43751500D01*
X205359000Y-43719750D01*
X205390750Y-43688000D01*
X205422500Y-43719750D01*
G36*
X205803500Y-43719750D02*
X205771750Y-43751500D01*
X205740000Y-43719750D01*
X205771750Y-43688000D01*
X205803500Y-43719750D01*
X205803500Y-43719750D01*
G37*
X205803500Y-43719750D02*
X205771750Y-43751500D01*
X205740000Y-43719750D01*
X205771750Y-43688000D01*
X205803500Y-43719750D01*
D17*
X193254381Y-42163905D02*
X194063905Y-42163905D01*
X194159143Y-42116286D01*
X194206762Y-42068667D01*
X194254381Y-41973429D01*
X194254381Y-41782952D01*
X194206762Y-41687714D01*
X194159143Y-41640095D01*
X194063905Y-41592476D01*
X193254381Y-41592476D01*
X194254381Y-40592476D02*
X194254381Y-41163905D01*
X194254381Y-40878191D02*
X193254381Y-40878191D01*
X193397238Y-40973429D01*
X193492476Y-41068667D01*
X193540095Y-41163905D01*
D12*
X165870286Y-51014381D02*
X166203619Y-52014381D01*
X166536953Y-51014381D01*
X167060762Y-51014381D02*
X167251239Y-51014381D01*
X167346477Y-51062000D01*
X167441715Y-51157238D01*
X167489334Y-51347714D01*
X167489334Y-51681048D01*
X167441715Y-51871524D01*
X167346477Y-51966762D01*
X167251239Y-52014381D01*
X167060762Y-52014381D01*
X166965524Y-51966762D01*
X166870286Y-51871524D01*
X166822667Y-51681048D01*
X166822667Y-51347714D01*
X166870286Y-51157238D01*
X166965524Y-51062000D01*
X167060762Y-51014381D01*
X167775048Y-51014381D02*
X168346477Y-51014381D01*
X168060762Y-52014381D02*
X168060762Y-51014381D01*
X168679810Y-51490571D02*
X169013144Y-51490571D01*
X169156001Y-52014381D02*
X168679810Y-52014381D01*
X168679810Y-51014381D01*
X169156001Y-51014381D01*
X170346477Y-51919143D02*
X170394096Y-51966762D01*
X170346477Y-52014381D01*
X170298858Y-51966762D01*
X170346477Y-51919143D01*
X170346477Y-52014381D01*
X170346477Y-51395333D02*
X170394096Y-51442952D01*
X170346477Y-51490571D01*
X170298858Y-51442952D01*
X170346477Y-51395333D01*
X170346477Y-51490571D01*
X171060762Y-52347714D02*
X171060762Y-50919143D01*
X157377143Y-51014381D02*
X157710476Y-52014381D01*
X158043810Y-51014381D01*
X158567619Y-51014381D02*
X158758096Y-51014381D01*
X158853334Y-51062000D01*
X158948572Y-51157238D01*
X158996191Y-51347714D01*
X158996191Y-51681048D01*
X158948572Y-51871524D01*
X158853334Y-51966762D01*
X158758096Y-52014381D01*
X158567619Y-52014381D01*
X158472381Y-51966762D01*
X158377143Y-51871524D01*
X158329524Y-51681048D01*
X158329524Y-51347714D01*
X158377143Y-51157238D01*
X158472381Y-51062000D01*
X158567619Y-51014381D01*
X159281905Y-51014381D02*
X159853334Y-51014381D01*
X159567619Y-52014381D02*
X159567619Y-51014381D01*
X160186667Y-51490571D02*
X160520001Y-51490571D01*
X160662858Y-52014381D02*
X160186667Y-52014381D01*
X160186667Y-51014381D01*
X160662858Y-51014381D01*
X161853334Y-51919143D02*
X161900953Y-51966762D01*
X161853334Y-52014381D01*
X161805715Y-51966762D01*
X161853334Y-51919143D01*
X161853334Y-52014381D01*
X161853334Y-51395333D02*
X161900953Y-51442952D01*
X161853334Y-51490571D01*
X161805715Y-51442952D01*
X161853334Y-51395333D01*
X161853334Y-51490571D01*
X162234286Y-52395333D02*
X162281905Y-52347714D01*
X162377143Y-52204857D01*
X162424762Y-52109619D01*
X162472381Y-51966762D01*
X162520000Y-51728667D01*
X162520000Y-51538190D01*
X162472381Y-51300095D01*
X162424762Y-51157238D01*
X162377143Y-51062000D01*
X162281905Y-50919143D01*
X162234286Y-50871524D01*
X175157143Y-51014381D02*
X175490476Y-52014381D01*
X175823810Y-51014381D01*
X176347619Y-51014381D02*
X176538096Y-51014381D01*
X176633334Y-51062000D01*
X176728572Y-51157238D01*
X176776191Y-51347714D01*
X176776191Y-51681048D01*
X176728572Y-51871524D01*
X176633334Y-51966762D01*
X176538096Y-52014381D01*
X176347619Y-52014381D01*
X176252381Y-51966762D01*
X176157143Y-51871524D01*
X176109524Y-51681048D01*
X176109524Y-51347714D01*
X176157143Y-51157238D01*
X176252381Y-51062000D01*
X176347619Y-51014381D01*
X177061905Y-51014381D02*
X177633334Y-51014381D01*
X177347619Y-52014381D02*
X177347619Y-51014381D01*
X177966667Y-51490571D02*
X178300001Y-51490571D01*
X178442858Y-52014381D02*
X177966667Y-52014381D01*
X177966667Y-51014381D01*
X178442858Y-51014381D01*
X179633334Y-51919143D02*
X179680953Y-51966762D01*
X179633334Y-52014381D01*
X179585715Y-51966762D01*
X179633334Y-51919143D01*
X179633334Y-52014381D01*
X179633334Y-51395333D02*
X179680953Y-51442952D01*
X179633334Y-51490571D01*
X179585715Y-51442952D01*
X179633334Y-51395333D01*
X179633334Y-51490571D01*
X180395239Y-52395333D02*
X180347619Y-52347714D01*
X180252381Y-52204857D01*
X180204762Y-52109619D01*
X180157143Y-51966762D01*
X180109524Y-51728667D01*
X180109524Y-51538190D01*
X180157143Y-51300095D01*
X180204762Y-51157238D01*
X180252381Y-51062000D01*
X180347619Y-50919143D01*
X180395239Y-50871524D01*
D17*
X169759334Y-40252381D02*
X169426000Y-39776190D01*
X169187905Y-40252381D02*
X169187905Y-39252381D01*
X169568858Y-39252381D01*
X169664096Y-39300000D01*
X169711715Y-39347619D01*
X169759334Y-39442857D01*
X169759334Y-39585714D01*
X169711715Y-39680952D01*
X169664096Y-39728571D01*
X169568858Y-39776190D01*
X169187905Y-39776190D01*
X170711715Y-40252381D02*
X170140286Y-40252381D01*
X170426000Y-40252381D02*
X170426000Y-39252381D01*
X170330762Y-39395238D01*
X170235524Y-39490476D01*
X170140286Y-39538095D01*
X169759334Y-36950381D02*
X169426000Y-36474190D01*
X169187905Y-36950381D02*
X169187905Y-35950381D01*
X169568858Y-35950381D01*
X169664096Y-35998000D01*
X169711715Y-36045619D01*
X169759334Y-36140857D01*
X169759334Y-36283714D01*
X169711715Y-36378952D01*
X169664096Y-36426571D01*
X169568858Y-36474190D01*
X169187905Y-36474190D01*
X170140286Y-36045619D02*
X170187905Y-35998000D01*
X170283143Y-35950381D01*
X170521239Y-35950381D01*
X170616477Y-35998000D01*
X170664096Y-36045619D01*
X170711715Y-36140857D01*
X170711715Y-36236095D01*
X170664096Y-36378952D01*
X170092667Y-36950381D01*
X170711715Y-36950381D01*
X205827334Y-38298381D02*
X205494000Y-37822190D01*
X205255905Y-38298381D02*
X205255905Y-37298381D01*
X205636858Y-37298381D01*
X205732096Y-37346000D01*
X205779715Y-37393619D01*
X205827334Y-37488857D01*
X205827334Y-37631714D01*
X205779715Y-37726952D01*
X205732096Y-37774571D01*
X205636858Y-37822190D01*
X205255905Y-37822190D01*
X206160667Y-37298381D02*
X206779715Y-37298381D01*
X206446381Y-37679333D01*
X206589239Y-37679333D01*
X206684477Y-37726952D01*
X206732096Y-37774571D01*
X206779715Y-37869810D01*
X206779715Y-38107905D01*
X206732096Y-38203143D01*
X206684477Y-38250762D01*
X206589239Y-38298381D01*
X206303524Y-38298381D01*
X206208286Y-38250762D01*
X206160667Y-38203143D01*
X204557334Y-33472381D02*
X204224000Y-32996190D01*
X203985905Y-33472381D02*
X203985905Y-32472381D01*
X204366858Y-32472381D01*
X204462096Y-32520000D01*
X204509715Y-32567619D01*
X204557334Y-32662857D01*
X204557334Y-32805714D01*
X204509715Y-32900952D01*
X204462096Y-32948571D01*
X204366858Y-32996190D01*
X203985905Y-32996190D01*
X205414477Y-32805714D02*
X205414477Y-33472381D01*
X205176381Y-32424762D02*
X204938286Y-33139048D01*
X205557334Y-33139048D01*
X208367334Y-38298381D02*
X208034000Y-37822190D01*
X207795905Y-38298381D02*
X207795905Y-37298381D01*
X208176858Y-37298381D01*
X208272096Y-37346000D01*
X208319715Y-37393619D01*
X208367334Y-37488857D01*
X208367334Y-37631714D01*
X208319715Y-37726952D01*
X208272096Y-37774571D01*
X208176858Y-37822190D01*
X207795905Y-37822190D01*
X209272096Y-37298381D02*
X208795905Y-37298381D01*
X208748286Y-37774571D01*
X208795905Y-37726952D01*
X208891143Y-37679333D01*
X209129239Y-37679333D01*
X209224477Y-37726952D01*
X209272096Y-37774571D01*
X209319715Y-37869810D01*
X209319715Y-38107905D01*
X209272096Y-38203143D01*
X209224477Y-38250762D01*
X209129239Y-38298381D01*
X208891143Y-38298381D01*
X208795905Y-38250762D01*
X208748286Y-38203143D01*
X194488571Y-40155714D02*
X194536190Y-40012857D01*
X194583810Y-39965238D01*
X194679048Y-39917619D01*
X194821905Y-39917619D01*
X194917143Y-39965238D01*
X194964762Y-40012857D01*
X195012381Y-40108095D01*
X195012381Y-40489048D01*
X194012381Y-40489048D01*
X194012381Y-40155714D01*
X194060000Y-40060476D01*
X194107619Y-40012857D01*
X194202857Y-39965238D01*
X194298095Y-39965238D01*
X194393333Y-40012857D01*
X194440952Y-40060476D01*
X194488571Y-40155714D01*
X194488571Y-40489048D01*
X194012381Y-39631905D02*
X194012381Y-39060476D01*
X195012381Y-39346191D02*
X194012381Y-39346191D01*
X195012381Y-38203333D02*
X195012381Y-38774762D01*
X195012381Y-38489048D02*
X194012381Y-38489048D01*
X194155238Y-38584286D01*
X194250476Y-38679524D01*
X194298095Y-38774762D01*
M02*
