G04 #@! TF.FileFunction,Copper,L1,Top,Signal*
%FSLAX46Y46*%
G04 Gerber Fmt 4.6, Leading zero omitted, Abs format (unit mm)*
G04 Created by KiCad (PCBNEW 4.0.6) date Mon Aug 21 13:20:44 2017*
%MOMM*%
%LPD*%
G01*
G04 APERTURE LIST*
%ADD10C,0.100000*%
%ADD11R,2.500000X1.100000*%
%ADD12R,1.500000X1.500000*%
%ADD13R,1.700000X1.700000*%
%ADD14O,1.700000X1.700000*%
%ADD15R,1.500000X1.300000*%
%ADD16R,1.300000X1.500000*%
%ADD17C,2.540000*%
%ADD18C,0.685800*%
%ADD19C,0.635000*%
%ADD20C,1.270000*%
G04 APERTURE END LIST*
D10*
D11*
X184212000Y-35052000D03*
X184212000Y-37052000D03*
X184212000Y-39052000D03*
X184212000Y-41052000D03*
X184212000Y-43052000D03*
X184212000Y-45052000D03*
X184212000Y-47052000D03*
X184212000Y-49052000D03*
X199612000Y-49052000D03*
X199612000Y-47052000D03*
X199612000Y-45052000D03*
X199612000Y-43052000D03*
X199612000Y-41052000D03*
X199612000Y-39052000D03*
X199612000Y-37052000D03*
X199612000Y-35052000D03*
D12*
X170881000Y-48994000D03*
X166431000Y-48994000D03*
X170881000Y-45494000D03*
X166431000Y-45494000D03*
X162245000Y-48994000D03*
X157795000Y-48994000D03*
X162245000Y-45494000D03*
X157795000Y-45494000D03*
X180025000Y-48994000D03*
X175575000Y-48994000D03*
X180025000Y-45494000D03*
X175575000Y-45494000D03*
D13*
X221488000Y-28448000D03*
D14*
X218948000Y-28448000D03*
X216408000Y-28448000D03*
X213868000Y-28448000D03*
X211328000Y-28448000D03*
X208788000Y-28448000D03*
D15*
X171276000Y-38100000D03*
X168576000Y-38100000D03*
X171276000Y-34798000D03*
X168576000Y-34798000D03*
D16*
X205994000Y-39544000D03*
X205994000Y-42244000D03*
D15*
X203374000Y-34544000D03*
X206074000Y-34544000D03*
D16*
X208534000Y-42244000D03*
X208534000Y-39544000D03*
D17*
X156340000Y-39370000D03*
X163960000Y-41910000D03*
X163960000Y-36830000D03*
X219460000Y-39370000D03*
X211840000Y-36830000D03*
X211840000Y-41910000D03*
D18*
X198882000Y-49022000D03*
X168402000Y-34798000D03*
X177800000Y-49022000D03*
X168656000Y-49022000D03*
X160020000Y-49022000D03*
X208534000Y-39370000D03*
X155956000Y-29464000D03*
X168354000Y-29464000D03*
X185420000Y-51562000D03*
X174498000Y-29464000D03*
X191096000Y-51566000D03*
X207264000Y-50292000D03*
X214424000Y-50292000D03*
D19*
X163960000Y-41910000D02*
X171958000Y-41910000D01*
X171958000Y-41910000D02*
X174816000Y-39052000D01*
X174816000Y-39052000D02*
X184912000Y-39052000D01*
X184912000Y-49052000D02*
X182596000Y-49052000D01*
X182596000Y-49052000D02*
X179070000Y-52578000D01*
X206074000Y-34544000D02*
X216408000Y-34544000D01*
X216408000Y-34544000D02*
X216408000Y-34214000D01*
X156340000Y-39370000D02*
X156340000Y-50168000D01*
X216408000Y-36068000D02*
X216408000Y-34214000D01*
X156340000Y-50168000D02*
X158750000Y-52578000D01*
X158750000Y-52578000D02*
X179070000Y-52578000D01*
X179070000Y-52578000D02*
X215646000Y-52578000D01*
X215646000Y-52578000D02*
X216408000Y-51816000D01*
X216408000Y-51816000D02*
X216408000Y-36068000D01*
X216408000Y-34214000D02*
X216408000Y-28448000D01*
X206074000Y-34544000D02*
X206074000Y-39464000D01*
X206074000Y-39464000D02*
X205994000Y-39544000D01*
X156340000Y-39370000D02*
X156340000Y-39748000D01*
X156340000Y-39370000D02*
X161674000Y-39370000D01*
X161674000Y-39370000D02*
X163960000Y-37084000D01*
X163960000Y-37084000D02*
X163960000Y-41910000D01*
D20*
X180025000Y-48994000D02*
X177828000Y-48994000D01*
X177772000Y-48994000D02*
X177800000Y-49022000D01*
X177772000Y-48994000D02*
X175575000Y-48994000D01*
X177828000Y-48994000D02*
X177800000Y-49022000D01*
X170881000Y-48994000D02*
X175575000Y-48994000D01*
X170881000Y-48994000D02*
X168684000Y-48994000D01*
X168628000Y-48994000D02*
X168656000Y-49022000D01*
X168628000Y-48994000D02*
X166431000Y-48994000D01*
X168684000Y-48994000D02*
X168656000Y-49022000D01*
X162245000Y-48994000D02*
X166431000Y-48994000D01*
X162245000Y-48994000D02*
X160048000Y-48994000D01*
X159992000Y-48994000D02*
X157795000Y-48994000D01*
X159992000Y-48994000D02*
X160020000Y-49022000D01*
X160048000Y-48994000D02*
X160020000Y-49022000D01*
D19*
X184912000Y-45052000D02*
X182466000Y-45052000D01*
X172433000Y-43942000D02*
X170881000Y-45494000D01*
X181356000Y-43942000D02*
X172433000Y-43942000D01*
X182466000Y-45052000D02*
X181356000Y-43942000D01*
X166431000Y-45494000D02*
X170881000Y-45494000D01*
X162245000Y-45494000D02*
X163548000Y-45494000D01*
X165990000Y-43052000D02*
X184912000Y-43052000D01*
X163548000Y-45494000D02*
X165990000Y-43052000D01*
X157795000Y-45494000D02*
X162245000Y-45494000D01*
X175575000Y-45494000D02*
X180025000Y-45494000D01*
X180025000Y-45494000D02*
X181583000Y-47052000D01*
X181583000Y-47052000D02*
X184912000Y-47052000D01*
X168576000Y-38100000D02*
X165274000Y-34798000D01*
X159512000Y-34798000D02*
X165274000Y-34798000D01*
X155956000Y-31242000D02*
X159512000Y-34798000D01*
X155956000Y-31242000D02*
X155956000Y-29464000D01*
X184912000Y-35052000D02*
X181864000Y-35052000D01*
X179578000Y-35052000D02*
X181864000Y-35052000D01*
X179070000Y-35052000D02*
X179578000Y-35052000D01*
X176784000Y-32766000D02*
X179070000Y-35052000D01*
X171196000Y-32766000D02*
X176784000Y-32766000D01*
X168354000Y-29924000D02*
X171196000Y-32766000D01*
X168354000Y-29924000D02*
X168354000Y-29464000D01*
X184912000Y-41052000D02*
X185516000Y-41052000D01*
X186436000Y-36068000D02*
X185420000Y-35052000D01*
X186436000Y-40132000D02*
X186436000Y-36068000D01*
X185516000Y-41052000D02*
X186436000Y-40132000D01*
X185420000Y-35052000D02*
X184912000Y-35052000D01*
X198912000Y-37052000D02*
X195220000Y-40744000D01*
X195220000Y-48680000D02*
X195220000Y-40744000D01*
X194890000Y-49010000D02*
X195220000Y-48680000D01*
X187718000Y-49010000D02*
X194890000Y-49010000D01*
X187718000Y-49010000D02*
X185420000Y-51562000D01*
X198912000Y-37052000D02*
X198660000Y-37052000D01*
X213868000Y-28448000D02*
X213868000Y-33147000D01*
X213868000Y-33147000D02*
X213868000Y-33020000D01*
X213868000Y-33020000D02*
X213868000Y-33147000D01*
X198912000Y-37052000D02*
X200946000Y-37052000D01*
X202311000Y-33147000D02*
X213868000Y-33147000D01*
X201930000Y-33528000D02*
X202311000Y-33147000D01*
X201930000Y-36068000D02*
X201930000Y-33528000D01*
X200946000Y-37052000D02*
X201930000Y-36068000D01*
X198882000Y-35052000D02*
X197612000Y-33782000D01*
X180086000Y-33782000D02*
X197612000Y-33782000D01*
X175768000Y-29464000D02*
X180086000Y-33782000D01*
X175768000Y-29464000D02*
X174498000Y-29464000D01*
X198912000Y-35052000D02*
X200279000Y-35052000D01*
X200279000Y-35052000D02*
X201142598Y-34188402D01*
X211328000Y-31750000D02*
X211328000Y-28448000D01*
X210718402Y-32359598D02*
X211328000Y-31750000D01*
X201955402Y-32359598D02*
X210718402Y-32359598D01*
X201142598Y-33172402D02*
X201955402Y-32359598D01*
X201142598Y-34188402D02*
X201142598Y-33172402D01*
X198912000Y-35052000D02*
X199771000Y-35052000D01*
X198912000Y-35052000D02*
X199898000Y-35052000D01*
X198882000Y-35052000D02*
X198912000Y-35052000D01*
X198912000Y-39052000D02*
X196020000Y-41944000D01*
X196020000Y-49080000D02*
X196020000Y-41944000D01*
X195290000Y-49810000D02*
X196020000Y-49080000D01*
X191998000Y-49810000D02*
X195290000Y-49810000D01*
X191998000Y-49810000D02*
X191262000Y-51308000D01*
X198912000Y-41052000D02*
X196840000Y-43124000D01*
X196840000Y-50230000D02*
X196840000Y-43124000D01*
X197740000Y-51130000D02*
X196840000Y-50230000D01*
X206426000Y-51130000D02*
X197740000Y-51130000D01*
X206426000Y-51130000D02*
X207264000Y-50292000D01*
X198912000Y-43052000D02*
X198308000Y-43052000D01*
X197650000Y-43710000D02*
X198308000Y-43052000D01*
X197650000Y-49900000D02*
X197650000Y-43710000D01*
X198060000Y-50310000D02*
X197650000Y-49900000D01*
X202940000Y-50310000D02*
X198060000Y-50310000D01*
X203970000Y-49280000D02*
X202940000Y-50310000D01*
X203970000Y-47390000D02*
X203970000Y-49280000D01*
X204480000Y-46880000D02*
X203970000Y-47390000D01*
X211012000Y-46880000D02*
X204480000Y-46880000D01*
X211012000Y-46880000D02*
X214424000Y-50292000D01*
X198912000Y-43052000D02*
X201550000Y-43052000D01*
X203374000Y-41228000D02*
X203374000Y-34544000D01*
X201550000Y-43052000D02*
X203374000Y-41228000D01*
X171276000Y-38100000D02*
X181610000Y-38100000D01*
X181610000Y-38100000D02*
X182658000Y-37052000D01*
X182658000Y-37052000D02*
X184912000Y-37052000D01*
X171276000Y-34798000D02*
X171276000Y-38100000D01*
X205994000Y-42244000D02*
X203628000Y-42244000D01*
X203628000Y-42244000D02*
X200820000Y-45052000D01*
X200820000Y-45052000D02*
X198912000Y-45052000D01*
X208534000Y-42244000D02*
X208534000Y-42926000D01*
X208534000Y-42926000D02*
X207772000Y-43688000D01*
X207772000Y-43688000D02*
X203962000Y-43688000D01*
X203962000Y-43688000D02*
X200598000Y-47052000D01*
X200598000Y-47052000D02*
X198912000Y-47052000D01*
M02*
